M48
; DRILL file {KiCad 5.1.10} date Fri Oct  8 14:45:48 2021
; FORMAT={-:-/ absolute / metric / decimal}
; #@! TF.CreationDate,2021-10-08T14:45:48+03:00
; #@! TF.GenerationSoftware,Kicad,Pcbnew,5.1.10
FMAT,2
METRIC
T1C0.400
T2C0.900
T3C1.000
T4C1.100
%
G90
G05
T1
X45.629Y-54.979
X45.974Y-62.738
X47.244Y-53.188
X52.68Y-60.198
X52.934Y-58.674
X54.372Y-63.053
X54.61Y-50.292
X56.388Y-48.895
X56.896Y-60.198
X57.658Y-64.77
X57.912Y-49.784
X57.912Y-56.148
X58.679Y-58.61
X58.928Y-64.516
X60.944Y-48.768
X61.214Y-58.166
X61.722Y-52.578
X61.976Y-56.896
X61.976Y-59.182
X61.976Y-63.754
X61.976Y-64.77
X63.516Y-66.04
X63.754Y-53.34
X63.754Y-61.722
X68.834Y-54.631
X69.736Y-60.134
X71.882Y-60.706
X73.152Y-54.61
X74.184Y-60.706
X74.93Y-54.61
X76.962Y-54.61
T3
X47.742Y-49.022
X47.752Y-65.786
X50.282Y-49.022
X50.292Y-65.786
X68.58Y-66.04
X68.61Y-49.276
X71.12Y-66.04
X71.15Y-49.276
X73.66Y-66.04
X73.69Y-49.276
X79.756Y-52.294
X79.756Y-54.834
X79.756Y-57.374
X79.756Y-59.914
X79.756Y-62.454
X82.296Y-52.294
X82.296Y-54.834
X82.296Y-57.374
X82.296Y-59.914
X82.296Y-62.454
T4
X37.38Y-55.104
X37.38Y-59.704
T2
G00X38.18Y-51.704
M15
G01X36.58Y-51.704
M16
G05
G00X38.18Y-63.104
M15
G01X36.58Y-63.104
M16
G05
T0
M30
