%TF.GenerationSoftware,KiCad,Pcbnew,5.1.10*%
%TF.CreationDate,2021-10-08T14:45:48+03:00*%
%TF.ProjectId,Magma_STLink,4d61676d-615f-4535-944c-696e6b2e6b69,rev?*%
%TF.SameCoordinates,Original*%
%TF.FileFunction,Legend,Top*%
%TF.FilePolarity,Positive*%
%FSLAX46Y46*%
G04 Gerber Fmt 4.6, Leading zero omitted, Abs format (unit mm)*
G04 Created by KiCad (PCBNEW 5.1.10) date 2021-10-08 14:45:48*
%MOMM*%
%LPD*%
G01*
G04 APERTURE LIST*
%ADD10C,0.120000*%
%TA.AperFunction,Profile*%
%ADD11C,0.120000*%
%TD*%
%ADD12C,0.200000*%
%ADD13C,0.150000*%
%ADD14C,0.125000*%
%TA.AperFunction,Profile*%
%ADD15C,0.050000*%
%TD*%
%ADD16C,0.010000*%
%ADD17C,0.127000*%
%ADD18C,1.100000*%
%ADD19O,3.500000X1.900000*%
%ADD20R,2.500000X1.100000*%
%ADD21R,2.400000X1.700000*%
%ADD22O,1.700000X1.700000*%
%ADD23R,1.700000X1.700000*%
G04 APERTURE END LIST*
D10*
X64058800Y-62280800D02*
G75*
G03*
X64058800Y-62280800I-254000J0D01*
G01*
X76758800Y-56134000D02*
X76758800Y-56743600D01*
X78435200Y-56134000D02*
X76758800Y-56134000D01*
X76758800Y-58724800D02*
X76758800Y-58013600D01*
X78384400Y-58724800D02*
X76758800Y-58724800D01*
D11*
X44958000Y-64526800D02*
G75*
G03*
X44958000Y-64526800I-2500000J0D01*
G01*
X44958000Y-50302800D02*
G75*
G03*
X44958000Y-50302800I-2500000J0D01*
G01*
D12*
X45101657Y-52474761D02*
X45238561Y-52522380D01*
X45476657Y-52522380D01*
X45577847Y-52474761D01*
X45631419Y-52427142D01*
X45690942Y-52331904D01*
X45702847Y-52236666D01*
X45667133Y-52141428D01*
X45625466Y-52093809D01*
X45536180Y-52046190D01*
X45351657Y-51998571D01*
X45262371Y-51950952D01*
X45220704Y-51903333D01*
X45184990Y-51808095D01*
X45196895Y-51712857D01*
X45256419Y-51617619D01*
X45309990Y-51570000D01*
X45411180Y-51522380D01*
X45649276Y-51522380D01*
X45786180Y-51570000D01*
X46077847Y-51522380D02*
X46649276Y-51522380D01*
X46238561Y-52522380D02*
X46363561Y-51522380D01*
X47333800Y-52522380D02*
X46857609Y-52522380D01*
X46982609Y-51522380D01*
X47667133Y-52522380D02*
X47792133Y-51522380D01*
X48143323Y-52522380D02*
X48268323Y-51522380D01*
X48714752Y-52522380D01*
X48839752Y-51522380D01*
X49190942Y-52522380D02*
X49315942Y-51522380D01*
X49762371Y-52522380D02*
X49405228Y-51950952D01*
X49887371Y-51522380D02*
X49244514Y-52093809D01*
X50934990Y-51522380D02*
X51143323Y-52522380D01*
X51601657Y-51522380D01*
X51875466Y-51617619D02*
X51929038Y-51570000D01*
X52030228Y-51522380D01*
X52268323Y-51522380D01*
X52357609Y-51570000D01*
X52399276Y-51617619D01*
X52434990Y-51712857D01*
X52423085Y-51808095D01*
X52357609Y-51950952D01*
X51714752Y-52522380D01*
X52333800Y-52522380D01*
D13*
X74596666Y-56856380D02*
X75263333Y-57856380D01*
X75263333Y-56856380D02*
X74596666Y-57856380D01*
D14*
X75831047Y-57606380D02*
X75902476Y-57630190D01*
X76021523Y-57630190D01*
X76069142Y-57606380D01*
X76092952Y-57582571D01*
X76116761Y-57534952D01*
X76116761Y-57487333D01*
X76092952Y-57439714D01*
X76069142Y-57415904D01*
X76021523Y-57392095D01*
X75926285Y-57368285D01*
X75878666Y-57344476D01*
X75854857Y-57320666D01*
X75831047Y-57273047D01*
X75831047Y-57225428D01*
X75854857Y-57177809D01*
X75878666Y-57154000D01*
X75926285Y-57130190D01*
X76045333Y-57130190D01*
X76116761Y-57154000D01*
X76283428Y-57130190D02*
X76402476Y-57630190D01*
X76497714Y-57273047D01*
X76592952Y-57630190D01*
X76712000Y-57130190D01*
X77188190Y-57582571D02*
X77164380Y-57606380D01*
X77092952Y-57630190D01*
X77045333Y-57630190D01*
X76973904Y-57606380D01*
X76926285Y-57558761D01*
X76902476Y-57511142D01*
X76878666Y-57415904D01*
X76878666Y-57344476D01*
X76902476Y-57249238D01*
X76926285Y-57201619D01*
X76973904Y-57154000D01*
X77045333Y-57130190D01*
X77092952Y-57130190D01*
X77164380Y-57154000D01*
X77188190Y-57177809D01*
X77640571Y-57630190D02*
X77402476Y-57630190D01*
X77402476Y-57130190D01*
X77807238Y-57630190D02*
X77807238Y-57130190D01*
X78092952Y-57630190D02*
X77878666Y-57344476D01*
X78092952Y-57130190D02*
X77807238Y-57415904D01*
X78731371Y-65097790D02*
X78731371Y-64597790D01*
X79017085Y-65097790D01*
X79017085Y-64597790D01*
X79540895Y-65097790D02*
X79374228Y-64859695D01*
X79255180Y-65097790D02*
X79255180Y-64597790D01*
X79445657Y-64597790D01*
X79493276Y-64621600D01*
X79517085Y-64645409D01*
X79540895Y-64693028D01*
X79540895Y-64764457D01*
X79517085Y-64812076D01*
X79493276Y-64835885D01*
X79445657Y-64859695D01*
X79255180Y-64859695D01*
X79731371Y-65073980D02*
X79802800Y-65097790D01*
X79921847Y-65097790D01*
X79969466Y-65073980D01*
X79993276Y-65050171D01*
X80017085Y-65002552D01*
X80017085Y-64954933D01*
X79993276Y-64907314D01*
X79969466Y-64883504D01*
X79921847Y-64859695D01*
X79826609Y-64835885D01*
X79778990Y-64812076D01*
X79755180Y-64788266D01*
X79731371Y-64740647D01*
X79731371Y-64693028D01*
X79755180Y-64645409D01*
X79778990Y-64621600D01*
X79826609Y-64597790D01*
X79945657Y-64597790D01*
X80017085Y-64621600D01*
X80159942Y-64597790D02*
X80445657Y-64597790D01*
X80302800Y-65097790D02*
X80302800Y-64597790D01*
X81338076Y-65073980D02*
X81409504Y-65097790D01*
X81528552Y-65097790D01*
X81576171Y-65073980D01*
X81599980Y-65050171D01*
X81623790Y-65002552D01*
X81623790Y-64954933D01*
X81599980Y-64907314D01*
X81576171Y-64883504D01*
X81528552Y-64859695D01*
X81433314Y-64835885D01*
X81385695Y-64812076D01*
X81361885Y-64788266D01*
X81338076Y-64740647D01*
X81338076Y-64693028D01*
X81361885Y-64645409D01*
X81385695Y-64621600D01*
X81433314Y-64597790D01*
X81552361Y-64597790D01*
X81623790Y-64621600D01*
X81790457Y-64597790D02*
X81909504Y-65097790D01*
X82004742Y-64740647D01*
X82099980Y-65097790D01*
X82219028Y-64597790D01*
X82409504Y-65097790D02*
X82409504Y-64597790D01*
X82528552Y-64597790D01*
X82599980Y-64621600D01*
X82647600Y-64669219D01*
X82671409Y-64716838D01*
X82695219Y-64812076D01*
X82695219Y-64883504D01*
X82671409Y-64978742D01*
X82647600Y-65026361D01*
X82599980Y-65073980D01*
X82528552Y-65097790D01*
X82409504Y-65097790D01*
X82909504Y-65097790D02*
X82909504Y-64597790D01*
X83242838Y-64597790D02*
X83338076Y-64597790D01*
X83385695Y-64621600D01*
X83433314Y-64669219D01*
X83457123Y-64764457D01*
X83457123Y-64931123D01*
X83433314Y-65026361D01*
X83385695Y-65073980D01*
X83338076Y-65097790D01*
X83242838Y-65097790D01*
X83195219Y-65073980D01*
X83147600Y-65026361D01*
X83123790Y-64931123D01*
X83123790Y-64764457D01*
X83147600Y-64669219D01*
X83195219Y-64621600D01*
X83242838Y-64597790D01*
D13*
X75215904Y-54316380D02*
X75834952Y-54316380D01*
X75501619Y-54697333D01*
X75644476Y-54697333D01*
X75739714Y-54744952D01*
X75787333Y-54792571D01*
X75834952Y-54887809D01*
X75834952Y-55125904D01*
X75787333Y-55221142D01*
X75739714Y-55268761D01*
X75644476Y-55316380D01*
X75358761Y-55316380D01*
X75263523Y-55268761D01*
X75215904Y-55221142D01*
X76120666Y-54316380D02*
X76454000Y-55316380D01*
X76787333Y-54316380D01*
X77025428Y-54316380D02*
X77644476Y-54316380D01*
X77311142Y-54697333D01*
X77454000Y-54697333D01*
X77549238Y-54744952D01*
X77596857Y-54792571D01*
X77644476Y-54887809D01*
X77644476Y-55125904D01*
X77596857Y-55221142D01*
X77549238Y-55268761D01*
X77454000Y-55316380D01*
X77168285Y-55316380D01*
X77073047Y-55268761D01*
X77025428Y-55221142D01*
D15*
X85598000Y-52324000D02*
X85598000Y-62484000D01*
X80264000Y-46990000D02*
G75*
G02*
X85598000Y-52324000I0J-5334000D01*
G01*
X85598000Y-62484000D02*
G75*
G02*
X80264000Y-67818000I-5334000J0D01*
G01*
X43180000Y-67818000D02*
X39116000Y-67818000D01*
X34290000Y-51816000D02*
X34290000Y-62992000D01*
X39116000Y-67818000D02*
G75*
G02*
X34290000Y-62992000I0J4826000D01*
G01*
X34290000Y-51816000D02*
G75*
G02*
X39116000Y-46990000I4826000J0D01*
G01*
X43180000Y-46990000D02*
X39116000Y-46990000D01*
X43180000Y-67818000D02*
X80264000Y-67818000D01*
X43180000Y-46990000D02*
X80264000Y-46990000D01*
D16*
%TO.C,G\u002A\u002A\u002A*%
G36*
X73785116Y-51955677D02*
G01*
X74023546Y-51955699D01*
X74061679Y-51955699D01*
X74263264Y-51955761D01*
X74457989Y-51955942D01*
X74644329Y-51956235D01*
X74820754Y-51956631D01*
X74985737Y-51957124D01*
X75137751Y-51957706D01*
X75275268Y-51958369D01*
X75396760Y-51959107D01*
X75500700Y-51959911D01*
X75585560Y-51960774D01*
X75649812Y-51961689D01*
X75691929Y-51962647D01*
X75710383Y-51963643D01*
X75710984Y-51963782D01*
X75721980Y-51968223D01*
X75731059Y-51973487D01*
X75737710Y-51981053D01*
X75741427Y-51992401D01*
X75741700Y-52009008D01*
X75738021Y-52032355D01*
X75729882Y-52063921D01*
X75716774Y-52105185D01*
X75698190Y-52157625D01*
X75673620Y-52222721D01*
X75642556Y-52301953D01*
X75604491Y-52396798D01*
X75558915Y-52508738D01*
X75505321Y-52639250D01*
X75443199Y-52789813D01*
X75372042Y-52961907D01*
X75347800Y-53020512D01*
X75285077Y-53171891D01*
X75224599Y-53317378D01*
X75167138Y-53455139D01*
X75113470Y-53583337D01*
X75064370Y-53700137D01*
X75020612Y-53803704D01*
X74982971Y-53892201D01*
X74952220Y-53963795D01*
X74929136Y-54016648D01*
X74914493Y-54048927D01*
X74910141Y-54057550D01*
X74849049Y-54140543D01*
X74768563Y-54217069D01*
X74674648Y-54282098D01*
X74598070Y-54320690D01*
X74529950Y-54349650D01*
X72851509Y-54353052D01*
X72609550Y-54353522D01*
X72391722Y-54353892D01*
X72196756Y-54354150D01*
X72023382Y-54354283D01*
X71870332Y-54354279D01*
X71736335Y-54354125D01*
X71620124Y-54353808D01*
X71520429Y-54353317D01*
X71435980Y-54352638D01*
X71365510Y-54351759D01*
X71307747Y-54350667D01*
X71261425Y-54349351D01*
X71225272Y-54347796D01*
X71198021Y-54345992D01*
X71178402Y-54343924D01*
X71165145Y-54341582D01*
X71156982Y-54338951D01*
X71152884Y-54336269D01*
X71136281Y-54307826D01*
X71132700Y-54288746D01*
X71137475Y-54273062D01*
X71151218Y-54236074D01*
X71173058Y-54179896D01*
X71202120Y-54106639D01*
X71237531Y-54018416D01*
X71278420Y-53917340D01*
X71301869Y-53859701D01*
X71357036Y-53859701D01*
X71357335Y-53870765D01*
X71360324Y-53878223D01*
X71362685Y-53881419D01*
X71369041Y-53885259D01*
X71382437Y-53888488D01*
X71404716Y-53891141D01*
X71437721Y-53893254D01*
X71483294Y-53894862D01*
X71543278Y-53896000D01*
X71619517Y-53896705D01*
X71713852Y-53897010D01*
X71828126Y-53896953D01*
X71964183Y-53896567D01*
X72117423Y-53895920D01*
X72273273Y-53895158D01*
X72405713Y-53894404D01*
X72516731Y-53893585D01*
X72608317Y-53892629D01*
X72682460Y-53891465D01*
X72741148Y-53890021D01*
X72786372Y-53888226D01*
X72820119Y-53886006D01*
X72844381Y-53883292D01*
X72861144Y-53880010D01*
X72872400Y-53876089D01*
X72880136Y-53871457D01*
X72883973Y-53868256D01*
X72905115Y-53833700D01*
X72910520Y-53788589D01*
X72903113Y-53754106D01*
X72892201Y-53740905D01*
X72864846Y-53712799D01*
X72823356Y-53672016D01*
X72770038Y-53620782D01*
X72707201Y-53561327D01*
X72637153Y-53495878D01*
X72598818Y-53460376D01*
X72514987Y-53382744D01*
X72447773Y-53319793D01*
X72394953Y-53269166D01*
X72354304Y-53228508D01*
X72323602Y-53195461D01*
X72300627Y-53167670D01*
X72283154Y-53142780D01*
X72268962Y-53118432D01*
X72260330Y-53101551D01*
X72242234Y-53063418D01*
X72230292Y-53032044D01*
X72223227Y-53000357D01*
X72219767Y-52961291D01*
X72218638Y-52907777D01*
X72218550Y-52869708D01*
X72218553Y-52868973D01*
X72644000Y-52868973D01*
X72645950Y-52882217D01*
X72653137Y-52897822D01*
X72667560Y-52917941D01*
X72691222Y-52944728D01*
X72726122Y-52980336D01*
X72774263Y-53026921D01*
X72837645Y-53086635D01*
X72901175Y-53145775D01*
X72990791Y-53229070D01*
X73063757Y-53297346D01*
X73122115Y-53352775D01*
X73167910Y-53397533D01*
X73203186Y-53433793D01*
X73229988Y-53463728D01*
X73250361Y-53489513D01*
X73266348Y-53513322D01*
X73279995Y-53537328D01*
X73292387Y-53561755D01*
X73330677Y-53667023D01*
X73345665Y-53776116D01*
X73338352Y-53885484D01*
X73309743Y-53991577D01*
X73260839Y-54090843D01*
X73192643Y-54179732D01*
X73106157Y-54254694D01*
X73094444Y-54262687D01*
X73059120Y-54286778D01*
X73034114Y-54305049D01*
X73025000Y-54313348D01*
X73037126Y-54314607D01*
X73071209Y-54315732D01*
X73123806Y-54316673D01*
X73191475Y-54317380D01*
X73270771Y-54317801D01*
X73334743Y-54317900D01*
X73432580Y-54317740D01*
X73508201Y-54317122D01*
X73564789Y-54315834D01*
X73605526Y-54313665D01*
X73633597Y-54310403D01*
X73652182Y-54305837D01*
X73664466Y-54299756D01*
X73669706Y-54295675D01*
X73676442Y-54288890D01*
X73681292Y-54282394D01*
X74142600Y-54282394D01*
X74147759Y-54304642D01*
X74151066Y-54309433D01*
X74168289Y-54314029D01*
X74204915Y-54316791D01*
X74255019Y-54317819D01*
X74312679Y-54317212D01*
X74371970Y-54315070D01*
X74426968Y-54311493D01*
X74471751Y-54306582D01*
X74488049Y-54303744D01*
X74603001Y-54266993D01*
X74706747Y-54208623D01*
X74796508Y-54130979D01*
X74869507Y-54036403D01*
X74917459Y-53941570D01*
X74931445Y-53907190D01*
X74953331Y-53854228D01*
X74981114Y-53787491D01*
X75012791Y-53711788D01*
X75046360Y-53631927D01*
X75054317Y-53613050D01*
X75117536Y-53462405D01*
X75175418Y-53322953D01*
X75227375Y-53196184D01*
X75272818Y-53083591D01*
X75311156Y-52986666D01*
X75341801Y-52906900D01*
X75364164Y-52845785D01*
X75377655Y-52804812D01*
X75381685Y-52785475D01*
X75381516Y-52784706D01*
X75373638Y-52779278D01*
X75353046Y-52775118D01*
X75317275Y-52772092D01*
X75263860Y-52770069D01*
X75190336Y-52768918D01*
X75094238Y-52768506D01*
X75078416Y-52768500D01*
X74983150Y-52768657D01*
X74910093Y-52769278D01*
X74856055Y-52770588D01*
X74817846Y-52772812D01*
X74792277Y-52776175D01*
X74776156Y-52780900D01*
X74766296Y-52787213D01*
X74762974Y-52790725D01*
X74756046Y-52799342D01*
X74749341Y-52809204D01*
X74741664Y-52823030D01*
X74731819Y-52843543D01*
X74718613Y-52873462D01*
X74700851Y-52915510D01*
X74677338Y-52972409D01*
X74646881Y-53046878D01*
X74608284Y-53141640D01*
X74599917Y-53162200D01*
X74566669Y-53243550D01*
X74525884Y-53342775D01*
X74479856Y-53454330D01*
X74430878Y-53572668D01*
X74381244Y-53692244D01*
X74333245Y-53807512D01*
X74315701Y-53849536D01*
X74275465Y-53946342D01*
X74238541Y-54036163D01*
X74206045Y-54116206D01*
X74179093Y-54183680D01*
X74158803Y-54235792D01*
X74146290Y-54269750D01*
X74142600Y-54282394D01*
X73681292Y-54282394D01*
X73683776Y-54279068D01*
X73692572Y-54264231D01*
X73703695Y-54242399D01*
X73718009Y-54211596D01*
X73736377Y-54169841D01*
X73759665Y-54115156D01*
X73788736Y-54045564D01*
X73824454Y-53959085D01*
X73867684Y-53853741D01*
X73919290Y-53727553D01*
X73940123Y-53676550D01*
X73982666Y-53572598D01*
X74030264Y-53456672D01*
X74079505Y-53337063D01*
X74126973Y-53222059D01*
X74169254Y-53119952D01*
X74179796Y-53094567D01*
X74212401Y-53015117D01*
X74241426Y-52942468D01*
X74265494Y-52880224D01*
X74283230Y-52831991D01*
X74293257Y-52801370D01*
X74295000Y-52792942D01*
X74294375Y-52787969D01*
X74291265Y-52783720D01*
X74283818Y-52780139D01*
X74270181Y-52777168D01*
X74248501Y-52774751D01*
X74216927Y-52772830D01*
X74173604Y-52771349D01*
X74116681Y-52770251D01*
X74044306Y-52769478D01*
X73954625Y-52768973D01*
X73845786Y-52768680D01*
X73715936Y-52768542D01*
X73563223Y-52768501D01*
X73500672Y-52768500D01*
X72706345Y-52768500D01*
X72675172Y-52799672D01*
X72649772Y-52839015D01*
X72644000Y-52868973D01*
X72218553Y-52868973D01*
X72218869Y-52805855D01*
X72220774Y-52760138D01*
X72225683Y-52725294D01*
X72235012Y-52694058D01*
X72250181Y-52659167D01*
X72265980Y-52626762D01*
X72322386Y-52534023D01*
X72392110Y-52460255D01*
X72479665Y-52401041D01*
X72514718Y-52383239D01*
X72599550Y-52343050D01*
X74091800Y-52336469D01*
X74284253Y-52335595D01*
X74469522Y-52334707D01*
X74646034Y-52333813D01*
X74812218Y-52332924D01*
X74966502Y-52332050D01*
X75107317Y-52331201D01*
X75233091Y-52330387D01*
X75342252Y-52329618D01*
X75433229Y-52328903D01*
X75504452Y-52328254D01*
X75554349Y-52327679D01*
X75581349Y-52327190D01*
X75585903Y-52326944D01*
X75597819Y-52303060D01*
X75614122Y-52263910D01*
X75632867Y-52215012D01*
X75652112Y-52161880D01*
X75669911Y-52110033D01*
X75684321Y-52064986D01*
X75693398Y-52032257D01*
X75695199Y-52017360D01*
X75695061Y-52017181D01*
X75681182Y-52015816D01*
X75643320Y-52014556D01*
X75582889Y-52013406D01*
X75501307Y-52012373D01*
X75399989Y-52011465D01*
X75280351Y-52010686D01*
X75143809Y-52010045D01*
X74991779Y-52009547D01*
X74825677Y-52009198D01*
X74646920Y-52009007D01*
X74456922Y-52008978D01*
X74257100Y-52009118D01*
X74048871Y-52009434D01*
X74021129Y-52009489D01*
X72358250Y-52012850D01*
X72282454Y-52048340D01*
X72182168Y-52104808D01*
X72098146Y-52171707D01*
X72034726Y-52245548D01*
X72031798Y-52249930D01*
X72015993Y-52278415D01*
X71992336Y-52327017D01*
X71962379Y-52392259D01*
X71927674Y-52470664D01*
X71889774Y-52558756D01*
X71850232Y-52653055D01*
X71831473Y-52698650D01*
X71785702Y-52810186D01*
X71735773Y-52931133D01*
X71684421Y-53054913D01*
X71634384Y-53174946D01*
X71588396Y-53284651D01*
X71549195Y-53377450D01*
X71548919Y-53378100D01*
X71498470Y-53496992D01*
X71457206Y-53594727D01*
X71424314Y-53673500D01*
X71398983Y-53735503D01*
X71380402Y-53782931D01*
X71367758Y-53817978D01*
X71360240Y-53842837D01*
X71357036Y-53859701D01*
X71301869Y-53859701D01*
X71323912Y-53805522D01*
X71373135Y-53685075D01*
X71425216Y-53558112D01*
X71479282Y-53426745D01*
X71534460Y-53293087D01*
X71589877Y-53159249D01*
X71644660Y-53027345D01*
X71697937Y-52899488D01*
X71748833Y-52777788D01*
X71796478Y-52664359D01*
X71839996Y-52561314D01*
X71878516Y-52470764D01*
X71911164Y-52394823D01*
X71937068Y-52335602D01*
X71955355Y-52295214D01*
X71962825Y-52279906D01*
X72021124Y-52192268D01*
X72097444Y-52112646D01*
X72184414Y-52048412D01*
X72207240Y-52035471D01*
X72228157Y-52024136D01*
X72246995Y-52013926D01*
X72265117Y-52004783D01*
X72283887Y-51996648D01*
X72304670Y-51989462D01*
X72328827Y-51983166D01*
X72357724Y-51977702D01*
X72392724Y-51973012D01*
X72435190Y-51969036D01*
X72486486Y-51965715D01*
X72547977Y-51962992D01*
X72621024Y-51960807D01*
X72706993Y-51959102D01*
X72807247Y-51957819D01*
X72923149Y-51956898D01*
X73056063Y-51956280D01*
X73207354Y-51955908D01*
X73378383Y-51955723D01*
X73570516Y-51955665D01*
X73785116Y-51955677D01*
G37*
X73785116Y-51955677D02*
X74023546Y-51955699D01*
X74061679Y-51955699D01*
X74263264Y-51955761D01*
X74457989Y-51955942D01*
X74644329Y-51956235D01*
X74820754Y-51956631D01*
X74985737Y-51957124D01*
X75137751Y-51957706D01*
X75275268Y-51958369D01*
X75396760Y-51959107D01*
X75500700Y-51959911D01*
X75585560Y-51960774D01*
X75649812Y-51961689D01*
X75691929Y-51962647D01*
X75710383Y-51963643D01*
X75710984Y-51963782D01*
X75721980Y-51968223D01*
X75731059Y-51973487D01*
X75737710Y-51981053D01*
X75741427Y-51992401D01*
X75741700Y-52009008D01*
X75738021Y-52032355D01*
X75729882Y-52063921D01*
X75716774Y-52105185D01*
X75698190Y-52157625D01*
X75673620Y-52222721D01*
X75642556Y-52301953D01*
X75604491Y-52396798D01*
X75558915Y-52508738D01*
X75505321Y-52639250D01*
X75443199Y-52789813D01*
X75372042Y-52961907D01*
X75347800Y-53020512D01*
X75285077Y-53171891D01*
X75224599Y-53317378D01*
X75167138Y-53455139D01*
X75113470Y-53583337D01*
X75064370Y-53700137D01*
X75020612Y-53803704D01*
X74982971Y-53892201D01*
X74952220Y-53963795D01*
X74929136Y-54016648D01*
X74914493Y-54048927D01*
X74910141Y-54057550D01*
X74849049Y-54140543D01*
X74768563Y-54217069D01*
X74674648Y-54282098D01*
X74598070Y-54320690D01*
X74529950Y-54349650D01*
X72851509Y-54353052D01*
X72609550Y-54353522D01*
X72391722Y-54353892D01*
X72196756Y-54354150D01*
X72023382Y-54354283D01*
X71870332Y-54354279D01*
X71736335Y-54354125D01*
X71620124Y-54353808D01*
X71520429Y-54353317D01*
X71435980Y-54352638D01*
X71365510Y-54351759D01*
X71307747Y-54350667D01*
X71261425Y-54349351D01*
X71225272Y-54347796D01*
X71198021Y-54345992D01*
X71178402Y-54343924D01*
X71165145Y-54341582D01*
X71156982Y-54338951D01*
X71152884Y-54336269D01*
X71136281Y-54307826D01*
X71132700Y-54288746D01*
X71137475Y-54273062D01*
X71151218Y-54236074D01*
X71173058Y-54179896D01*
X71202120Y-54106639D01*
X71237531Y-54018416D01*
X71278420Y-53917340D01*
X71301869Y-53859701D01*
X71357036Y-53859701D01*
X71357335Y-53870765D01*
X71360324Y-53878223D01*
X71362685Y-53881419D01*
X71369041Y-53885259D01*
X71382437Y-53888488D01*
X71404716Y-53891141D01*
X71437721Y-53893254D01*
X71483294Y-53894862D01*
X71543278Y-53896000D01*
X71619517Y-53896705D01*
X71713852Y-53897010D01*
X71828126Y-53896953D01*
X71964183Y-53896567D01*
X72117423Y-53895920D01*
X72273273Y-53895158D01*
X72405713Y-53894404D01*
X72516731Y-53893585D01*
X72608317Y-53892629D01*
X72682460Y-53891465D01*
X72741148Y-53890021D01*
X72786372Y-53888226D01*
X72820119Y-53886006D01*
X72844381Y-53883292D01*
X72861144Y-53880010D01*
X72872400Y-53876089D01*
X72880136Y-53871457D01*
X72883973Y-53868256D01*
X72905115Y-53833700D01*
X72910520Y-53788589D01*
X72903113Y-53754106D01*
X72892201Y-53740905D01*
X72864846Y-53712799D01*
X72823356Y-53672016D01*
X72770038Y-53620782D01*
X72707201Y-53561327D01*
X72637153Y-53495878D01*
X72598818Y-53460376D01*
X72514987Y-53382744D01*
X72447773Y-53319793D01*
X72394953Y-53269166D01*
X72354304Y-53228508D01*
X72323602Y-53195461D01*
X72300627Y-53167670D01*
X72283154Y-53142780D01*
X72268962Y-53118432D01*
X72260330Y-53101551D01*
X72242234Y-53063418D01*
X72230292Y-53032044D01*
X72223227Y-53000357D01*
X72219767Y-52961291D01*
X72218638Y-52907777D01*
X72218550Y-52869708D01*
X72218553Y-52868973D01*
X72644000Y-52868973D01*
X72645950Y-52882217D01*
X72653137Y-52897822D01*
X72667560Y-52917941D01*
X72691222Y-52944728D01*
X72726122Y-52980336D01*
X72774263Y-53026921D01*
X72837645Y-53086635D01*
X72901175Y-53145775D01*
X72990791Y-53229070D01*
X73063757Y-53297346D01*
X73122115Y-53352775D01*
X73167910Y-53397533D01*
X73203186Y-53433793D01*
X73229988Y-53463728D01*
X73250361Y-53489513D01*
X73266348Y-53513322D01*
X73279995Y-53537328D01*
X73292387Y-53561755D01*
X73330677Y-53667023D01*
X73345665Y-53776116D01*
X73338352Y-53885484D01*
X73309743Y-53991577D01*
X73260839Y-54090843D01*
X73192643Y-54179732D01*
X73106157Y-54254694D01*
X73094444Y-54262687D01*
X73059120Y-54286778D01*
X73034114Y-54305049D01*
X73025000Y-54313348D01*
X73037126Y-54314607D01*
X73071209Y-54315732D01*
X73123806Y-54316673D01*
X73191475Y-54317380D01*
X73270771Y-54317801D01*
X73334743Y-54317900D01*
X73432580Y-54317740D01*
X73508201Y-54317122D01*
X73564789Y-54315834D01*
X73605526Y-54313665D01*
X73633597Y-54310403D01*
X73652182Y-54305837D01*
X73664466Y-54299756D01*
X73669706Y-54295675D01*
X73676442Y-54288890D01*
X73681292Y-54282394D01*
X74142600Y-54282394D01*
X74147759Y-54304642D01*
X74151066Y-54309433D01*
X74168289Y-54314029D01*
X74204915Y-54316791D01*
X74255019Y-54317819D01*
X74312679Y-54317212D01*
X74371970Y-54315070D01*
X74426968Y-54311493D01*
X74471751Y-54306582D01*
X74488049Y-54303744D01*
X74603001Y-54266993D01*
X74706747Y-54208623D01*
X74796508Y-54130979D01*
X74869507Y-54036403D01*
X74917459Y-53941570D01*
X74931445Y-53907190D01*
X74953331Y-53854228D01*
X74981114Y-53787491D01*
X75012791Y-53711788D01*
X75046360Y-53631927D01*
X75054317Y-53613050D01*
X75117536Y-53462405D01*
X75175418Y-53322953D01*
X75227375Y-53196184D01*
X75272818Y-53083591D01*
X75311156Y-52986666D01*
X75341801Y-52906900D01*
X75364164Y-52845785D01*
X75377655Y-52804812D01*
X75381685Y-52785475D01*
X75381516Y-52784706D01*
X75373638Y-52779278D01*
X75353046Y-52775118D01*
X75317275Y-52772092D01*
X75263860Y-52770069D01*
X75190336Y-52768918D01*
X75094238Y-52768506D01*
X75078416Y-52768500D01*
X74983150Y-52768657D01*
X74910093Y-52769278D01*
X74856055Y-52770588D01*
X74817846Y-52772812D01*
X74792277Y-52776175D01*
X74776156Y-52780900D01*
X74766296Y-52787213D01*
X74762974Y-52790725D01*
X74756046Y-52799342D01*
X74749341Y-52809204D01*
X74741664Y-52823030D01*
X74731819Y-52843543D01*
X74718613Y-52873462D01*
X74700851Y-52915510D01*
X74677338Y-52972409D01*
X74646881Y-53046878D01*
X74608284Y-53141640D01*
X74599917Y-53162200D01*
X74566669Y-53243550D01*
X74525884Y-53342775D01*
X74479856Y-53454330D01*
X74430878Y-53572668D01*
X74381244Y-53692244D01*
X74333245Y-53807512D01*
X74315701Y-53849536D01*
X74275465Y-53946342D01*
X74238541Y-54036163D01*
X74206045Y-54116206D01*
X74179093Y-54183680D01*
X74158803Y-54235792D01*
X74146290Y-54269750D01*
X74142600Y-54282394D01*
X73681292Y-54282394D01*
X73683776Y-54279068D01*
X73692572Y-54264231D01*
X73703695Y-54242399D01*
X73718009Y-54211596D01*
X73736377Y-54169841D01*
X73759665Y-54115156D01*
X73788736Y-54045564D01*
X73824454Y-53959085D01*
X73867684Y-53853741D01*
X73919290Y-53727553D01*
X73940123Y-53676550D01*
X73982666Y-53572598D01*
X74030264Y-53456672D01*
X74079505Y-53337063D01*
X74126973Y-53222059D01*
X74169254Y-53119952D01*
X74179796Y-53094567D01*
X74212401Y-53015117D01*
X74241426Y-52942468D01*
X74265494Y-52880224D01*
X74283230Y-52831991D01*
X74293257Y-52801370D01*
X74295000Y-52792942D01*
X74294375Y-52787969D01*
X74291265Y-52783720D01*
X74283818Y-52780139D01*
X74270181Y-52777168D01*
X74248501Y-52774751D01*
X74216927Y-52772830D01*
X74173604Y-52771349D01*
X74116681Y-52770251D01*
X74044306Y-52769478D01*
X73954625Y-52768973D01*
X73845786Y-52768680D01*
X73715936Y-52768542D01*
X73563223Y-52768501D01*
X73500672Y-52768500D01*
X72706345Y-52768500D01*
X72675172Y-52799672D01*
X72649772Y-52839015D01*
X72644000Y-52868973D01*
X72218553Y-52868973D01*
X72218869Y-52805855D01*
X72220774Y-52760138D01*
X72225683Y-52725294D01*
X72235012Y-52694058D01*
X72250181Y-52659167D01*
X72265980Y-52626762D01*
X72322386Y-52534023D01*
X72392110Y-52460255D01*
X72479665Y-52401041D01*
X72514718Y-52383239D01*
X72599550Y-52343050D01*
X74091800Y-52336469D01*
X74284253Y-52335595D01*
X74469522Y-52334707D01*
X74646034Y-52333813D01*
X74812218Y-52332924D01*
X74966502Y-52332050D01*
X75107317Y-52331201D01*
X75233091Y-52330387D01*
X75342252Y-52329618D01*
X75433229Y-52328903D01*
X75504452Y-52328254D01*
X75554349Y-52327679D01*
X75581349Y-52327190D01*
X75585903Y-52326944D01*
X75597819Y-52303060D01*
X75614122Y-52263910D01*
X75632867Y-52215012D01*
X75652112Y-52161880D01*
X75669911Y-52110033D01*
X75684321Y-52064986D01*
X75693398Y-52032257D01*
X75695199Y-52017360D01*
X75695061Y-52017181D01*
X75681182Y-52015816D01*
X75643320Y-52014556D01*
X75582889Y-52013406D01*
X75501307Y-52012373D01*
X75399989Y-52011465D01*
X75280351Y-52010686D01*
X75143809Y-52010045D01*
X74991779Y-52009547D01*
X74825677Y-52009198D01*
X74646920Y-52009007D01*
X74456922Y-52008978D01*
X74257100Y-52009118D01*
X74048871Y-52009434D01*
X74021129Y-52009489D01*
X72358250Y-52012850D01*
X72282454Y-52048340D01*
X72182168Y-52104808D01*
X72098146Y-52171707D01*
X72034726Y-52245548D01*
X72031798Y-52249930D01*
X72015993Y-52278415D01*
X71992336Y-52327017D01*
X71962379Y-52392259D01*
X71927674Y-52470664D01*
X71889774Y-52558756D01*
X71850232Y-52653055D01*
X71831473Y-52698650D01*
X71785702Y-52810186D01*
X71735773Y-52931133D01*
X71684421Y-53054913D01*
X71634384Y-53174946D01*
X71588396Y-53284651D01*
X71549195Y-53377450D01*
X71548919Y-53378100D01*
X71498470Y-53496992D01*
X71457206Y-53594727D01*
X71424314Y-53673500D01*
X71398983Y-53735503D01*
X71380402Y-53782931D01*
X71367758Y-53817978D01*
X71360240Y-53842837D01*
X71357036Y-53859701D01*
X71301869Y-53859701D01*
X71323912Y-53805522D01*
X71373135Y-53685075D01*
X71425216Y-53558112D01*
X71479282Y-53426745D01*
X71534460Y-53293087D01*
X71589877Y-53159249D01*
X71644660Y-53027345D01*
X71697937Y-52899488D01*
X71748833Y-52777788D01*
X71796478Y-52664359D01*
X71839996Y-52561314D01*
X71878516Y-52470764D01*
X71911164Y-52394823D01*
X71937068Y-52335602D01*
X71955355Y-52295214D01*
X71962825Y-52279906D01*
X72021124Y-52192268D01*
X72097444Y-52112646D01*
X72184414Y-52048412D01*
X72207240Y-52035471D01*
X72228157Y-52024136D01*
X72246995Y-52013926D01*
X72265117Y-52004783D01*
X72283887Y-51996648D01*
X72304670Y-51989462D01*
X72328827Y-51983166D01*
X72357724Y-51977702D01*
X72392724Y-51973012D01*
X72435190Y-51969036D01*
X72486486Y-51965715D01*
X72547977Y-51962992D01*
X72621024Y-51960807D01*
X72706993Y-51959102D01*
X72807247Y-51957819D01*
X72923149Y-51956898D01*
X73056063Y-51956280D01*
X73207354Y-51955908D01*
X73378383Y-51955723D01*
X73570516Y-51955665D01*
X73785116Y-51955677D01*
D10*
%TO.C,J5*%
X38500000Y-61804000D02*
X39255000Y-61804000D01*
X35330000Y-51259000D02*
X34280000Y-51259000D01*
X35330000Y-63549000D02*
X34280000Y-63549000D01*
X38500000Y-61804000D02*
X38500000Y-53004000D01*
%TO.C,Y1*%
X65600000Y-60666000D02*
X65600000Y-55666000D01*
X69020000Y-60666000D02*
X69020000Y-55666000D01*
%TO.C,U2*%
X56530000Y-54556000D02*
X56080000Y-54556000D01*
X56080000Y-54556000D02*
X56080000Y-55006000D01*
X62850000Y-54556000D02*
X63300000Y-54556000D01*
X63300000Y-54556000D02*
X63300000Y-55006000D01*
X56530000Y-61776000D02*
X56080000Y-61776000D01*
X56080000Y-61776000D02*
X56080000Y-61326000D01*
X62850000Y-61776000D02*
X63300000Y-61776000D01*
X63300000Y-61776000D02*
X63300000Y-61326000D01*
X63300000Y-61326000D02*
X64590000Y-61326000D01*
%TO.C,STLINK_CONN1*%
X83626000Y-63784000D02*
X81026000Y-63784000D01*
X83626000Y-63784000D02*
X83626000Y-50964000D01*
X83626000Y-50964000D02*
X78426000Y-50964000D01*
X78426000Y-61184000D02*
X78426000Y-50964000D01*
X81026000Y-61184000D02*
X78426000Y-61184000D01*
X81026000Y-63784000D02*
X81026000Y-61184000D01*
X78426000Y-63784000D02*
X78426000Y-62454000D01*
X79756000Y-63784000D02*
X78426000Y-63784000D01*
%TO.C,R13*%
X50519064Y-56615000D02*
X50064936Y-56615000D01*
X50519064Y-55145000D02*
X50064936Y-55145000D01*
%TO.C,R10*%
X50519064Y-60933000D02*
X50064936Y-60933000D01*
X50519064Y-59463000D02*
X50064936Y-59463000D01*
%TO.C,R9*%
X50519064Y-58901000D02*
X50064936Y-58901000D01*
X50519064Y-57431000D02*
X50064936Y-57431000D01*
%TO.C,R8*%
X74956936Y-62460200D02*
X75411064Y-62460200D01*
X74956936Y-63930200D02*
X75411064Y-63930200D01*
%TO.C,R7*%
X74956936Y-59971000D02*
X75411064Y-59971000D01*
X74956936Y-61441000D02*
X75411064Y-61441000D01*
%TO.C,R4*%
X71146936Y-57685000D02*
X71601064Y-57685000D01*
X71146936Y-59155000D02*
X71601064Y-59155000D01*
%TO.C,R3*%
X60155064Y-66775000D02*
X59700936Y-66775000D01*
X60155064Y-65305000D02*
X59700936Y-65305000D01*
%TO.C,R1*%
X71093064Y-63930200D02*
X70638936Y-63930200D01*
X71093064Y-62460200D02*
X70638936Y-62460200D01*
%TO.C,J4*%
X46422000Y-64456000D02*
X46422000Y-67116000D01*
X49022000Y-64456000D02*
X46422000Y-64456000D01*
X49022000Y-67116000D02*
X46422000Y-67116000D01*
X49022000Y-64456000D02*
X49022000Y-67116000D01*
X50292000Y-64456000D02*
X51622000Y-64456000D01*
X51622000Y-64456000D02*
X51622000Y-65786000D01*
%TO.C,J3*%
X51612000Y-50352000D02*
X51612000Y-47692000D01*
X49012000Y-50352000D02*
X51612000Y-50352000D01*
X49012000Y-47692000D02*
X51612000Y-47692000D01*
X49012000Y-50352000D02*
X49012000Y-47692000D01*
X47742000Y-50352000D02*
X46412000Y-50352000D01*
X46412000Y-50352000D02*
X46412000Y-49022000D01*
%TO.C,J2*%
X75020000Y-50606000D02*
X75020000Y-47946000D01*
X69880000Y-50606000D02*
X75020000Y-50606000D01*
X69880000Y-47946000D02*
X75020000Y-47946000D01*
X69880000Y-50606000D02*
X69880000Y-47946000D01*
X68610000Y-50606000D02*
X67280000Y-50606000D01*
X67280000Y-50606000D02*
X67280000Y-49276000D01*
%TO.C,J1*%
X67250000Y-64710000D02*
X67250000Y-67370000D01*
X72390000Y-64710000D02*
X67250000Y-64710000D01*
X72390000Y-67370000D02*
X67250000Y-67370000D01*
X72390000Y-64710000D02*
X72390000Y-67370000D01*
X73660000Y-64710000D02*
X74990000Y-64710000D01*
X74990000Y-64710000D02*
X74990000Y-66040000D01*
D17*
%TO.C,D7*%
X46776000Y-56591500D02*
X46776000Y-58216500D01*
X43648000Y-56591500D02*
X43648000Y-58216500D01*
D12*
X46312000Y-55004000D02*
G75*
G03*
X46312000Y-55004000I-100000J0D01*
G01*
D10*
%TO.C,D6*%
X59144000Y-49503000D02*
X61604000Y-49503000D01*
X61604000Y-49503000D02*
X61604000Y-48033000D01*
X61604000Y-48033000D02*
X59144000Y-48033000D01*
%TO.C,D5*%
X56313000Y-48160000D02*
X53853000Y-48160000D01*
X53853000Y-48160000D02*
X53853000Y-49630000D01*
X53853000Y-49630000D02*
X56313000Y-49630000D01*
%TO.C,C7*%
X55633252Y-66775000D02*
X55110748Y-66775000D01*
X55633252Y-65305000D02*
X55110748Y-65305000D01*
%TO.C,C4*%
X66286748Y-52859000D02*
X66809252Y-52859000D01*
X66286748Y-54329000D02*
X66809252Y-54329000D01*
%TO.C,C1*%
X66265248Y-62003000D02*
X66787752Y-62003000D01*
X66265248Y-63473000D02*
X66787752Y-63473000D01*
%TD*%
%TO.C,J5*%
D13*
X37512666Y-64984380D02*
X37512666Y-65698666D01*
X37465047Y-65841523D01*
X37369809Y-65936761D01*
X37226952Y-65984380D01*
X37131714Y-65984380D01*
X38465047Y-64984380D02*
X37988857Y-64984380D01*
X37941238Y-65460571D01*
X37988857Y-65412952D01*
X38084095Y-65365333D01*
X38322190Y-65365333D01*
X38417428Y-65412952D01*
X38465047Y-65460571D01*
X38512666Y-65555809D01*
X38512666Y-65793904D01*
X38465047Y-65889142D01*
X38417428Y-65936761D01*
X38322190Y-65984380D01*
X38084095Y-65984380D01*
X37988857Y-65936761D01*
X37941238Y-65889142D01*
%TO.C,Y1*%
X69780209Y-55094190D02*
X69780209Y-55570380D01*
X69446876Y-54570380D02*
X69780209Y-55094190D01*
X70113542Y-54570380D01*
X70970685Y-55570380D02*
X70399257Y-55570380D01*
X70684971Y-55570380D02*
X70684971Y-54570380D01*
X70589733Y-54713238D01*
X70494495Y-54808476D01*
X70399257Y-54856095D01*
%TO.C,U2*%
X54102095Y-53046380D02*
X54102095Y-53855904D01*
X54149714Y-53951142D01*
X54197333Y-53998761D01*
X54292571Y-54046380D01*
X54483047Y-54046380D01*
X54578285Y-53998761D01*
X54625904Y-53951142D01*
X54673523Y-53855904D01*
X54673523Y-53046380D01*
X55102095Y-53141619D02*
X55149714Y-53094000D01*
X55244952Y-53046380D01*
X55483047Y-53046380D01*
X55578285Y-53094000D01*
X55625904Y-53141619D01*
X55673523Y-53236857D01*
X55673523Y-53332095D01*
X55625904Y-53474952D01*
X55054476Y-54046380D01*
X55673523Y-54046380D01*
%TO.C,R13*%
X49547542Y-54757580D02*
X49214209Y-54281390D01*
X48976114Y-54757580D02*
X48976114Y-53757580D01*
X49357066Y-53757580D01*
X49452304Y-53805200D01*
X49499923Y-53852819D01*
X49547542Y-53948057D01*
X49547542Y-54090914D01*
X49499923Y-54186152D01*
X49452304Y-54233771D01*
X49357066Y-54281390D01*
X48976114Y-54281390D01*
X50499923Y-54757580D02*
X49928495Y-54757580D01*
X50214209Y-54757580D02*
X50214209Y-53757580D01*
X50118971Y-53900438D01*
X50023733Y-53995676D01*
X49928495Y-54043295D01*
X50833257Y-53757580D02*
X51452304Y-53757580D01*
X51118971Y-54138533D01*
X51261828Y-54138533D01*
X51357066Y-54186152D01*
X51404685Y-54233771D01*
X51452304Y-54329009D01*
X51452304Y-54567104D01*
X51404685Y-54662342D01*
X51357066Y-54709961D01*
X51261828Y-54757580D01*
X50976114Y-54757580D01*
X50880876Y-54709961D01*
X50833257Y-54662342D01*
%TO.C,R10*%
X49649142Y-62300380D02*
X49315809Y-61824190D01*
X49077714Y-62300380D02*
X49077714Y-61300380D01*
X49458666Y-61300380D01*
X49553904Y-61348000D01*
X49601523Y-61395619D01*
X49649142Y-61490857D01*
X49649142Y-61633714D01*
X49601523Y-61728952D01*
X49553904Y-61776571D01*
X49458666Y-61824190D01*
X49077714Y-61824190D01*
X50601523Y-62300380D02*
X50030095Y-62300380D01*
X50315809Y-62300380D02*
X50315809Y-61300380D01*
X50220571Y-61443238D01*
X50125333Y-61538476D01*
X50030095Y-61586095D01*
X51220571Y-61300380D02*
X51315809Y-61300380D01*
X51411047Y-61348000D01*
X51458666Y-61395619D01*
X51506285Y-61490857D01*
X51553904Y-61681333D01*
X51553904Y-61919428D01*
X51506285Y-62109904D01*
X51458666Y-62205142D01*
X51411047Y-62252761D01*
X51315809Y-62300380D01*
X51220571Y-62300380D01*
X51125333Y-62252761D01*
X51077714Y-62205142D01*
X51030095Y-62109904D01*
X50982476Y-61919428D01*
X50982476Y-61681333D01*
X51030095Y-61490857D01*
X51077714Y-61395619D01*
X51125333Y-61348000D01*
X51220571Y-61300380D01*
%TO.C,R9*%
X52919333Y-58567580D02*
X52586000Y-58091390D01*
X52347904Y-58567580D02*
X52347904Y-57567580D01*
X52728857Y-57567580D01*
X52824095Y-57615200D01*
X52871714Y-57662819D01*
X52919333Y-57758057D01*
X52919333Y-57900914D01*
X52871714Y-57996152D01*
X52824095Y-58043771D01*
X52728857Y-58091390D01*
X52347904Y-58091390D01*
X53395523Y-58567580D02*
X53586000Y-58567580D01*
X53681238Y-58519961D01*
X53728857Y-58472342D01*
X53824095Y-58329485D01*
X53871714Y-58139009D01*
X53871714Y-57758057D01*
X53824095Y-57662819D01*
X53776476Y-57615200D01*
X53681238Y-57567580D01*
X53490761Y-57567580D01*
X53395523Y-57615200D01*
X53347904Y-57662819D01*
X53300285Y-57758057D01*
X53300285Y-57996152D01*
X53347904Y-58091390D01*
X53395523Y-58139009D01*
X53490761Y-58186628D01*
X53681238Y-58186628D01*
X53776476Y-58139009D01*
X53824095Y-58091390D01*
X53871714Y-57996152D01*
%TO.C,R8*%
X76744533Y-65323980D02*
X76411200Y-64847790D01*
X76173104Y-65323980D02*
X76173104Y-64323980D01*
X76554057Y-64323980D01*
X76649295Y-64371600D01*
X76696914Y-64419219D01*
X76744533Y-64514457D01*
X76744533Y-64657314D01*
X76696914Y-64752552D01*
X76649295Y-64800171D01*
X76554057Y-64847790D01*
X76173104Y-64847790D01*
X77315961Y-64752552D02*
X77220723Y-64704933D01*
X77173104Y-64657314D01*
X77125485Y-64562076D01*
X77125485Y-64514457D01*
X77173104Y-64419219D01*
X77220723Y-64371600D01*
X77315961Y-64323980D01*
X77506438Y-64323980D01*
X77601676Y-64371600D01*
X77649295Y-64419219D01*
X77696914Y-64514457D01*
X77696914Y-64562076D01*
X77649295Y-64657314D01*
X77601676Y-64704933D01*
X77506438Y-64752552D01*
X77315961Y-64752552D01*
X77220723Y-64800171D01*
X77173104Y-64847790D01*
X77125485Y-64943028D01*
X77125485Y-65133504D01*
X77173104Y-65228742D01*
X77220723Y-65276361D01*
X77315961Y-65323980D01*
X77506438Y-65323980D01*
X77601676Y-65276361D01*
X77649295Y-65228742D01*
X77696914Y-65133504D01*
X77696914Y-64943028D01*
X77649295Y-64847790D01*
X77601676Y-64800171D01*
X77506438Y-64752552D01*
%TO.C,R7*%
X72274133Y-61107580D02*
X71940800Y-60631390D01*
X71702704Y-61107580D02*
X71702704Y-60107580D01*
X72083657Y-60107580D01*
X72178895Y-60155200D01*
X72226514Y-60202819D01*
X72274133Y-60298057D01*
X72274133Y-60440914D01*
X72226514Y-60536152D01*
X72178895Y-60583771D01*
X72083657Y-60631390D01*
X71702704Y-60631390D01*
X72607466Y-60107580D02*
X73274133Y-60107580D01*
X72845561Y-61107580D01*
%TO.C,R4*%
X71207333Y-57222380D02*
X70874000Y-56746190D01*
X70635904Y-57222380D02*
X70635904Y-56222380D01*
X71016857Y-56222380D01*
X71112095Y-56270000D01*
X71159714Y-56317619D01*
X71207333Y-56412857D01*
X71207333Y-56555714D01*
X71159714Y-56650952D01*
X71112095Y-56698571D01*
X71016857Y-56746190D01*
X70635904Y-56746190D01*
X72064476Y-56555714D02*
X72064476Y-57222380D01*
X71826380Y-56174761D02*
X71588285Y-56889047D01*
X72207333Y-56889047D01*
%TO.C,R3*%
X59777333Y-64714380D02*
X59444000Y-64238190D01*
X59205904Y-64714380D02*
X59205904Y-63714380D01*
X59586857Y-63714380D01*
X59682095Y-63762000D01*
X59729714Y-63809619D01*
X59777333Y-63904857D01*
X59777333Y-64047714D01*
X59729714Y-64142952D01*
X59682095Y-64190571D01*
X59586857Y-64238190D01*
X59205904Y-64238190D01*
X60110666Y-63714380D02*
X60729714Y-63714380D01*
X60396380Y-64095333D01*
X60539238Y-64095333D01*
X60634476Y-64142952D01*
X60682095Y-64190571D01*
X60729714Y-64285809D01*
X60729714Y-64523904D01*
X60682095Y-64619142D01*
X60634476Y-64666761D01*
X60539238Y-64714380D01*
X60253523Y-64714380D01*
X60158285Y-64666761D01*
X60110666Y-64619142D01*
%TO.C,R1*%
X69988133Y-62072780D02*
X69654800Y-61596590D01*
X69416704Y-62072780D02*
X69416704Y-61072780D01*
X69797657Y-61072780D01*
X69892895Y-61120400D01*
X69940514Y-61168019D01*
X69988133Y-61263257D01*
X69988133Y-61406114D01*
X69940514Y-61501352D01*
X69892895Y-61548971D01*
X69797657Y-61596590D01*
X69416704Y-61596590D01*
X70940514Y-62072780D02*
X70369085Y-62072780D01*
X70654800Y-62072780D02*
X70654800Y-61072780D01*
X70559561Y-61215638D01*
X70464323Y-61310876D01*
X70369085Y-61358495D01*
%TO.C,J4*%
X45132666Y-65238380D02*
X45132666Y-65952666D01*
X45085047Y-66095523D01*
X44989809Y-66190761D01*
X44846952Y-66238380D01*
X44751714Y-66238380D01*
X46037428Y-65571714D02*
X46037428Y-66238380D01*
X45799333Y-65190761D02*
X45561238Y-65905047D01*
X46180285Y-65905047D01*
%TO.C,J3*%
X44675466Y-48372780D02*
X44675466Y-49087066D01*
X44627847Y-49229923D01*
X44532609Y-49325161D01*
X44389752Y-49372780D01*
X44294514Y-49372780D01*
X45056419Y-48372780D02*
X45675466Y-48372780D01*
X45342133Y-48753733D01*
X45484990Y-48753733D01*
X45580228Y-48801352D01*
X45627847Y-48848971D01*
X45675466Y-48944209D01*
X45675466Y-49182304D01*
X45627847Y-49277542D01*
X45580228Y-49325161D01*
X45484990Y-49372780D01*
X45199276Y-49372780D01*
X45104038Y-49325161D01*
X45056419Y-49277542D01*
%TO.C,J2*%
X65946666Y-48728380D02*
X65946666Y-49442666D01*
X65899047Y-49585523D01*
X65803809Y-49680761D01*
X65660952Y-49728380D01*
X65565714Y-49728380D01*
X66375238Y-48823619D02*
X66422857Y-48776000D01*
X66518095Y-48728380D01*
X66756190Y-48728380D01*
X66851428Y-48776000D01*
X66899047Y-48823619D01*
X66946666Y-48918857D01*
X66946666Y-49014095D01*
X66899047Y-49156952D01*
X66327619Y-49728380D01*
X66946666Y-49728380D01*
%TO.C,J1*%
X75612666Y-66508380D02*
X75612666Y-67222666D01*
X75565047Y-67365523D01*
X75469809Y-67460761D01*
X75326952Y-67508380D01*
X75231714Y-67508380D01*
X76612666Y-67508380D02*
X76041238Y-67508380D01*
X76326952Y-67508380D02*
X76326952Y-66508380D01*
X76231714Y-66651238D01*
X76136476Y-66746476D01*
X76041238Y-66794095D01*
%TO.C,D7*%
X43876019Y-60436723D02*
X43876019Y-59796723D01*
X44028400Y-59796723D01*
X44119828Y-59827200D01*
X44180780Y-59888152D01*
X44211257Y-59949104D01*
X44241733Y-60071009D01*
X44241733Y-60162438D01*
X44211257Y-60284342D01*
X44180780Y-60345295D01*
X44119828Y-60406247D01*
X44028400Y-60436723D01*
X43876019Y-60436723D01*
X44455066Y-59796723D02*
X44881733Y-59796723D01*
X44607447Y-60436723D01*
%TO.C,D6*%
X59459904Y-51252380D02*
X59459904Y-50252380D01*
X59698000Y-50252380D01*
X59840857Y-50300000D01*
X59936095Y-50395238D01*
X59983714Y-50490476D01*
X60031333Y-50680952D01*
X60031333Y-50823809D01*
X59983714Y-51014285D01*
X59936095Y-51109523D01*
X59840857Y-51204761D01*
X59698000Y-51252380D01*
X59459904Y-51252380D01*
X60888476Y-50252380D02*
X60698000Y-50252380D01*
X60602761Y-50300000D01*
X60555142Y-50347619D01*
X60459904Y-50490476D01*
X60412285Y-50680952D01*
X60412285Y-51061904D01*
X60459904Y-51157142D01*
X60507523Y-51204761D01*
X60602761Y-51252380D01*
X60793238Y-51252380D01*
X60888476Y-51204761D01*
X60936095Y-51157142D01*
X60983714Y-51061904D01*
X60983714Y-50823809D01*
X60936095Y-50728571D01*
X60888476Y-50680952D01*
X60793238Y-50633333D01*
X60602761Y-50633333D01*
X60507523Y-50680952D01*
X60459904Y-50728571D01*
X60412285Y-50823809D01*
%TO.C,D5*%
X53871904Y-51252380D02*
X53871904Y-50252380D01*
X54110000Y-50252380D01*
X54252857Y-50300000D01*
X54348095Y-50395238D01*
X54395714Y-50490476D01*
X54443333Y-50680952D01*
X54443333Y-50823809D01*
X54395714Y-51014285D01*
X54348095Y-51109523D01*
X54252857Y-51204761D01*
X54110000Y-51252380D01*
X53871904Y-51252380D01*
X55348095Y-50252380D02*
X54871904Y-50252380D01*
X54824285Y-50728571D01*
X54871904Y-50680952D01*
X54967142Y-50633333D01*
X55205238Y-50633333D01*
X55300476Y-50680952D01*
X55348095Y-50728571D01*
X55395714Y-50823809D01*
X55395714Y-51061904D01*
X55348095Y-51157142D01*
X55300476Y-51204761D01*
X55205238Y-51252380D01*
X54967142Y-51252380D01*
X54871904Y-51204761D01*
X54824285Y-51157142D01*
%TO.C,C7*%
X55205333Y-64619142D02*
X55157714Y-64666761D01*
X55014857Y-64714380D01*
X54919619Y-64714380D01*
X54776761Y-64666761D01*
X54681523Y-64571523D01*
X54633904Y-64476285D01*
X54586285Y-64285809D01*
X54586285Y-64142952D01*
X54633904Y-63952476D01*
X54681523Y-63857238D01*
X54776761Y-63762000D01*
X54919619Y-63714380D01*
X55014857Y-63714380D01*
X55157714Y-63762000D01*
X55205333Y-63809619D01*
X55538666Y-63714380D02*
X56205333Y-63714380D01*
X55776761Y-64714380D01*
%TO.C,C4*%
X66381333Y-52271142D02*
X66333714Y-52318761D01*
X66190857Y-52366380D01*
X66095619Y-52366380D01*
X65952761Y-52318761D01*
X65857523Y-52223523D01*
X65809904Y-52128285D01*
X65762285Y-51937809D01*
X65762285Y-51794952D01*
X65809904Y-51604476D01*
X65857523Y-51509238D01*
X65952761Y-51414000D01*
X66095619Y-51366380D01*
X66190857Y-51366380D01*
X66333714Y-51414000D01*
X66381333Y-51461619D01*
X67238476Y-51699714D02*
X67238476Y-52366380D01*
X67000380Y-51318761D02*
X66762285Y-52033047D01*
X67381333Y-52033047D01*
%TO.C,C1*%
X65619333Y-64873142D02*
X65571714Y-64920761D01*
X65428857Y-64968380D01*
X65333619Y-64968380D01*
X65190761Y-64920761D01*
X65095523Y-64825523D01*
X65047904Y-64730285D01*
X65000285Y-64539809D01*
X65000285Y-64396952D01*
X65047904Y-64206476D01*
X65095523Y-64111238D01*
X65190761Y-64016000D01*
X65333619Y-63968380D01*
X65428857Y-63968380D01*
X65571714Y-64016000D01*
X65619333Y-64063619D01*
X66571714Y-64968380D02*
X66000285Y-64968380D01*
X66286000Y-64968380D02*
X66286000Y-63968380D01*
X66190761Y-64111238D01*
X66095523Y-64206476D01*
X66000285Y-64254095D01*
%TD*%
%LPC*%
D18*
%TO.C,J5*%
X37380000Y-55104000D03*
X37380000Y-59704000D03*
D19*
X37380000Y-51704000D03*
X37380000Y-63104000D03*
D20*
X40130000Y-53904000D03*
X40130000Y-60904000D03*
X40130000Y-56404000D03*
X40130000Y-58404000D03*
%TD*%
D21*
%TO.C,Y1*%
X67310000Y-56316000D03*
X67310000Y-60016000D03*
%TD*%
%TO.C,U2*%
G36*
G01*
X62590000Y-61666000D02*
X62590000Y-62991000D01*
G75*
G02*
X62515000Y-63066000I-75000J0D01*
G01*
X62365000Y-63066000D01*
G75*
G02*
X62290000Y-62991000I0J75000D01*
G01*
X62290000Y-61666000D01*
G75*
G02*
X62365000Y-61591000I75000J0D01*
G01*
X62515000Y-61591000D01*
G75*
G02*
X62590000Y-61666000I0J-75000D01*
G01*
G37*
G36*
G01*
X62090000Y-61666000D02*
X62090000Y-62991000D01*
G75*
G02*
X62015000Y-63066000I-75000J0D01*
G01*
X61865000Y-63066000D01*
G75*
G02*
X61790000Y-62991000I0J75000D01*
G01*
X61790000Y-61666000D01*
G75*
G02*
X61865000Y-61591000I75000J0D01*
G01*
X62015000Y-61591000D01*
G75*
G02*
X62090000Y-61666000I0J-75000D01*
G01*
G37*
G36*
G01*
X61590000Y-61666000D02*
X61590000Y-62991000D01*
G75*
G02*
X61515000Y-63066000I-75000J0D01*
G01*
X61365000Y-63066000D01*
G75*
G02*
X61290000Y-62991000I0J75000D01*
G01*
X61290000Y-61666000D01*
G75*
G02*
X61365000Y-61591000I75000J0D01*
G01*
X61515000Y-61591000D01*
G75*
G02*
X61590000Y-61666000I0J-75000D01*
G01*
G37*
G36*
G01*
X61090000Y-61666000D02*
X61090000Y-62991000D01*
G75*
G02*
X61015000Y-63066000I-75000J0D01*
G01*
X60865000Y-63066000D01*
G75*
G02*
X60790000Y-62991000I0J75000D01*
G01*
X60790000Y-61666000D01*
G75*
G02*
X60865000Y-61591000I75000J0D01*
G01*
X61015000Y-61591000D01*
G75*
G02*
X61090000Y-61666000I0J-75000D01*
G01*
G37*
G36*
G01*
X60590000Y-61666000D02*
X60590000Y-62991000D01*
G75*
G02*
X60515000Y-63066000I-75000J0D01*
G01*
X60365000Y-63066000D01*
G75*
G02*
X60290000Y-62991000I0J75000D01*
G01*
X60290000Y-61666000D01*
G75*
G02*
X60365000Y-61591000I75000J0D01*
G01*
X60515000Y-61591000D01*
G75*
G02*
X60590000Y-61666000I0J-75000D01*
G01*
G37*
G36*
G01*
X60090000Y-61666000D02*
X60090000Y-62991000D01*
G75*
G02*
X60015000Y-63066000I-75000J0D01*
G01*
X59865000Y-63066000D01*
G75*
G02*
X59790000Y-62991000I0J75000D01*
G01*
X59790000Y-61666000D01*
G75*
G02*
X59865000Y-61591000I75000J0D01*
G01*
X60015000Y-61591000D01*
G75*
G02*
X60090000Y-61666000I0J-75000D01*
G01*
G37*
G36*
G01*
X59590000Y-61666000D02*
X59590000Y-62991000D01*
G75*
G02*
X59515000Y-63066000I-75000J0D01*
G01*
X59365000Y-63066000D01*
G75*
G02*
X59290000Y-62991000I0J75000D01*
G01*
X59290000Y-61666000D01*
G75*
G02*
X59365000Y-61591000I75000J0D01*
G01*
X59515000Y-61591000D01*
G75*
G02*
X59590000Y-61666000I0J-75000D01*
G01*
G37*
G36*
G01*
X59090000Y-61666000D02*
X59090000Y-62991000D01*
G75*
G02*
X59015000Y-63066000I-75000J0D01*
G01*
X58865000Y-63066000D01*
G75*
G02*
X58790000Y-62991000I0J75000D01*
G01*
X58790000Y-61666000D01*
G75*
G02*
X58865000Y-61591000I75000J0D01*
G01*
X59015000Y-61591000D01*
G75*
G02*
X59090000Y-61666000I0J-75000D01*
G01*
G37*
G36*
G01*
X58590000Y-61666000D02*
X58590000Y-62991000D01*
G75*
G02*
X58515000Y-63066000I-75000J0D01*
G01*
X58365000Y-63066000D01*
G75*
G02*
X58290000Y-62991000I0J75000D01*
G01*
X58290000Y-61666000D01*
G75*
G02*
X58365000Y-61591000I75000J0D01*
G01*
X58515000Y-61591000D01*
G75*
G02*
X58590000Y-61666000I0J-75000D01*
G01*
G37*
G36*
G01*
X58090000Y-61666000D02*
X58090000Y-62991000D01*
G75*
G02*
X58015000Y-63066000I-75000J0D01*
G01*
X57865000Y-63066000D01*
G75*
G02*
X57790000Y-62991000I0J75000D01*
G01*
X57790000Y-61666000D01*
G75*
G02*
X57865000Y-61591000I75000J0D01*
G01*
X58015000Y-61591000D01*
G75*
G02*
X58090000Y-61666000I0J-75000D01*
G01*
G37*
G36*
G01*
X57590000Y-61666000D02*
X57590000Y-62991000D01*
G75*
G02*
X57515000Y-63066000I-75000J0D01*
G01*
X57365000Y-63066000D01*
G75*
G02*
X57290000Y-62991000I0J75000D01*
G01*
X57290000Y-61666000D01*
G75*
G02*
X57365000Y-61591000I75000J0D01*
G01*
X57515000Y-61591000D01*
G75*
G02*
X57590000Y-61666000I0J-75000D01*
G01*
G37*
G36*
G01*
X57090000Y-61666000D02*
X57090000Y-62991000D01*
G75*
G02*
X57015000Y-63066000I-75000J0D01*
G01*
X56865000Y-63066000D01*
G75*
G02*
X56790000Y-62991000I0J75000D01*
G01*
X56790000Y-61666000D01*
G75*
G02*
X56865000Y-61591000I75000J0D01*
G01*
X57015000Y-61591000D01*
G75*
G02*
X57090000Y-61666000I0J-75000D01*
G01*
G37*
G36*
G01*
X56265000Y-60841000D02*
X56265000Y-60991000D01*
G75*
G02*
X56190000Y-61066000I-75000J0D01*
G01*
X54865000Y-61066000D01*
G75*
G02*
X54790000Y-60991000I0J75000D01*
G01*
X54790000Y-60841000D01*
G75*
G02*
X54865000Y-60766000I75000J0D01*
G01*
X56190000Y-60766000D01*
G75*
G02*
X56265000Y-60841000I0J-75000D01*
G01*
G37*
G36*
G01*
X56265000Y-60341000D02*
X56265000Y-60491000D01*
G75*
G02*
X56190000Y-60566000I-75000J0D01*
G01*
X54865000Y-60566000D01*
G75*
G02*
X54790000Y-60491000I0J75000D01*
G01*
X54790000Y-60341000D01*
G75*
G02*
X54865000Y-60266000I75000J0D01*
G01*
X56190000Y-60266000D01*
G75*
G02*
X56265000Y-60341000I0J-75000D01*
G01*
G37*
G36*
G01*
X56265000Y-59841000D02*
X56265000Y-59991000D01*
G75*
G02*
X56190000Y-60066000I-75000J0D01*
G01*
X54865000Y-60066000D01*
G75*
G02*
X54790000Y-59991000I0J75000D01*
G01*
X54790000Y-59841000D01*
G75*
G02*
X54865000Y-59766000I75000J0D01*
G01*
X56190000Y-59766000D01*
G75*
G02*
X56265000Y-59841000I0J-75000D01*
G01*
G37*
G36*
G01*
X56265000Y-59341000D02*
X56265000Y-59491000D01*
G75*
G02*
X56190000Y-59566000I-75000J0D01*
G01*
X54865000Y-59566000D01*
G75*
G02*
X54790000Y-59491000I0J75000D01*
G01*
X54790000Y-59341000D01*
G75*
G02*
X54865000Y-59266000I75000J0D01*
G01*
X56190000Y-59266000D01*
G75*
G02*
X56265000Y-59341000I0J-75000D01*
G01*
G37*
G36*
G01*
X56265000Y-58841000D02*
X56265000Y-58991000D01*
G75*
G02*
X56190000Y-59066000I-75000J0D01*
G01*
X54865000Y-59066000D01*
G75*
G02*
X54790000Y-58991000I0J75000D01*
G01*
X54790000Y-58841000D01*
G75*
G02*
X54865000Y-58766000I75000J0D01*
G01*
X56190000Y-58766000D01*
G75*
G02*
X56265000Y-58841000I0J-75000D01*
G01*
G37*
G36*
G01*
X56265000Y-58341000D02*
X56265000Y-58491000D01*
G75*
G02*
X56190000Y-58566000I-75000J0D01*
G01*
X54865000Y-58566000D01*
G75*
G02*
X54790000Y-58491000I0J75000D01*
G01*
X54790000Y-58341000D01*
G75*
G02*
X54865000Y-58266000I75000J0D01*
G01*
X56190000Y-58266000D01*
G75*
G02*
X56265000Y-58341000I0J-75000D01*
G01*
G37*
G36*
G01*
X56265000Y-57841000D02*
X56265000Y-57991000D01*
G75*
G02*
X56190000Y-58066000I-75000J0D01*
G01*
X54865000Y-58066000D01*
G75*
G02*
X54790000Y-57991000I0J75000D01*
G01*
X54790000Y-57841000D01*
G75*
G02*
X54865000Y-57766000I75000J0D01*
G01*
X56190000Y-57766000D01*
G75*
G02*
X56265000Y-57841000I0J-75000D01*
G01*
G37*
G36*
G01*
X56265000Y-57341000D02*
X56265000Y-57491000D01*
G75*
G02*
X56190000Y-57566000I-75000J0D01*
G01*
X54865000Y-57566000D01*
G75*
G02*
X54790000Y-57491000I0J75000D01*
G01*
X54790000Y-57341000D01*
G75*
G02*
X54865000Y-57266000I75000J0D01*
G01*
X56190000Y-57266000D01*
G75*
G02*
X56265000Y-57341000I0J-75000D01*
G01*
G37*
G36*
G01*
X56265000Y-56841000D02*
X56265000Y-56991000D01*
G75*
G02*
X56190000Y-57066000I-75000J0D01*
G01*
X54865000Y-57066000D01*
G75*
G02*
X54790000Y-56991000I0J75000D01*
G01*
X54790000Y-56841000D01*
G75*
G02*
X54865000Y-56766000I75000J0D01*
G01*
X56190000Y-56766000D01*
G75*
G02*
X56265000Y-56841000I0J-75000D01*
G01*
G37*
G36*
G01*
X56265000Y-56341000D02*
X56265000Y-56491000D01*
G75*
G02*
X56190000Y-56566000I-75000J0D01*
G01*
X54865000Y-56566000D01*
G75*
G02*
X54790000Y-56491000I0J75000D01*
G01*
X54790000Y-56341000D01*
G75*
G02*
X54865000Y-56266000I75000J0D01*
G01*
X56190000Y-56266000D01*
G75*
G02*
X56265000Y-56341000I0J-75000D01*
G01*
G37*
G36*
G01*
X56265000Y-55841000D02*
X56265000Y-55991000D01*
G75*
G02*
X56190000Y-56066000I-75000J0D01*
G01*
X54865000Y-56066000D01*
G75*
G02*
X54790000Y-55991000I0J75000D01*
G01*
X54790000Y-55841000D01*
G75*
G02*
X54865000Y-55766000I75000J0D01*
G01*
X56190000Y-55766000D01*
G75*
G02*
X56265000Y-55841000I0J-75000D01*
G01*
G37*
G36*
G01*
X56265000Y-55341000D02*
X56265000Y-55491000D01*
G75*
G02*
X56190000Y-55566000I-75000J0D01*
G01*
X54865000Y-55566000D01*
G75*
G02*
X54790000Y-55491000I0J75000D01*
G01*
X54790000Y-55341000D01*
G75*
G02*
X54865000Y-55266000I75000J0D01*
G01*
X56190000Y-55266000D01*
G75*
G02*
X56265000Y-55341000I0J-75000D01*
G01*
G37*
G36*
G01*
X57090000Y-53341000D02*
X57090000Y-54666000D01*
G75*
G02*
X57015000Y-54741000I-75000J0D01*
G01*
X56865000Y-54741000D01*
G75*
G02*
X56790000Y-54666000I0J75000D01*
G01*
X56790000Y-53341000D01*
G75*
G02*
X56865000Y-53266000I75000J0D01*
G01*
X57015000Y-53266000D01*
G75*
G02*
X57090000Y-53341000I0J-75000D01*
G01*
G37*
G36*
G01*
X57590000Y-53341000D02*
X57590000Y-54666000D01*
G75*
G02*
X57515000Y-54741000I-75000J0D01*
G01*
X57365000Y-54741000D01*
G75*
G02*
X57290000Y-54666000I0J75000D01*
G01*
X57290000Y-53341000D01*
G75*
G02*
X57365000Y-53266000I75000J0D01*
G01*
X57515000Y-53266000D01*
G75*
G02*
X57590000Y-53341000I0J-75000D01*
G01*
G37*
G36*
G01*
X58090000Y-53341000D02*
X58090000Y-54666000D01*
G75*
G02*
X58015000Y-54741000I-75000J0D01*
G01*
X57865000Y-54741000D01*
G75*
G02*
X57790000Y-54666000I0J75000D01*
G01*
X57790000Y-53341000D01*
G75*
G02*
X57865000Y-53266000I75000J0D01*
G01*
X58015000Y-53266000D01*
G75*
G02*
X58090000Y-53341000I0J-75000D01*
G01*
G37*
G36*
G01*
X58590000Y-53341000D02*
X58590000Y-54666000D01*
G75*
G02*
X58515000Y-54741000I-75000J0D01*
G01*
X58365000Y-54741000D01*
G75*
G02*
X58290000Y-54666000I0J75000D01*
G01*
X58290000Y-53341000D01*
G75*
G02*
X58365000Y-53266000I75000J0D01*
G01*
X58515000Y-53266000D01*
G75*
G02*
X58590000Y-53341000I0J-75000D01*
G01*
G37*
G36*
G01*
X59090000Y-53341000D02*
X59090000Y-54666000D01*
G75*
G02*
X59015000Y-54741000I-75000J0D01*
G01*
X58865000Y-54741000D01*
G75*
G02*
X58790000Y-54666000I0J75000D01*
G01*
X58790000Y-53341000D01*
G75*
G02*
X58865000Y-53266000I75000J0D01*
G01*
X59015000Y-53266000D01*
G75*
G02*
X59090000Y-53341000I0J-75000D01*
G01*
G37*
G36*
G01*
X59590000Y-53341000D02*
X59590000Y-54666000D01*
G75*
G02*
X59515000Y-54741000I-75000J0D01*
G01*
X59365000Y-54741000D01*
G75*
G02*
X59290000Y-54666000I0J75000D01*
G01*
X59290000Y-53341000D01*
G75*
G02*
X59365000Y-53266000I75000J0D01*
G01*
X59515000Y-53266000D01*
G75*
G02*
X59590000Y-53341000I0J-75000D01*
G01*
G37*
G36*
G01*
X60090000Y-53341000D02*
X60090000Y-54666000D01*
G75*
G02*
X60015000Y-54741000I-75000J0D01*
G01*
X59865000Y-54741000D01*
G75*
G02*
X59790000Y-54666000I0J75000D01*
G01*
X59790000Y-53341000D01*
G75*
G02*
X59865000Y-53266000I75000J0D01*
G01*
X60015000Y-53266000D01*
G75*
G02*
X60090000Y-53341000I0J-75000D01*
G01*
G37*
G36*
G01*
X60590000Y-53341000D02*
X60590000Y-54666000D01*
G75*
G02*
X60515000Y-54741000I-75000J0D01*
G01*
X60365000Y-54741000D01*
G75*
G02*
X60290000Y-54666000I0J75000D01*
G01*
X60290000Y-53341000D01*
G75*
G02*
X60365000Y-53266000I75000J0D01*
G01*
X60515000Y-53266000D01*
G75*
G02*
X60590000Y-53341000I0J-75000D01*
G01*
G37*
G36*
G01*
X61090000Y-53341000D02*
X61090000Y-54666000D01*
G75*
G02*
X61015000Y-54741000I-75000J0D01*
G01*
X60865000Y-54741000D01*
G75*
G02*
X60790000Y-54666000I0J75000D01*
G01*
X60790000Y-53341000D01*
G75*
G02*
X60865000Y-53266000I75000J0D01*
G01*
X61015000Y-53266000D01*
G75*
G02*
X61090000Y-53341000I0J-75000D01*
G01*
G37*
G36*
G01*
X61590000Y-53341000D02*
X61590000Y-54666000D01*
G75*
G02*
X61515000Y-54741000I-75000J0D01*
G01*
X61365000Y-54741000D01*
G75*
G02*
X61290000Y-54666000I0J75000D01*
G01*
X61290000Y-53341000D01*
G75*
G02*
X61365000Y-53266000I75000J0D01*
G01*
X61515000Y-53266000D01*
G75*
G02*
X61590000Y-53341000I0J-75000D01*
G01*
G37*
G36*
G01*
X62090000Y-53341000D02*
X62090000Y-54666000D01*
G75*
G02*
X62015000Y-54741000I-75000J0D01*
G01*
X61865000Y-54741000D01*
G75*
G02*
X61790000Y-54666000I0J75000D01*
G01*
X61790000Y-53341000D01*
G75*
G02*
X61865000Y-53266000I75000J0D01*
G01*
X62015000Y-53266000D01*
G75*
G02*
X62090000Y-53341000I0J-75000D01*
G01*
G37*
G36*
G01*
X62590000Y-53341000D02*
X62590000Y-54666000D01*
G75*
G02*
X62515000Y-54741000I-75000J0D01*
G01*
X62365000Y-54741000D01*
G75*
G02*
X62290000Y-54666000I0J75000D01*
G01*
X62290000Y-53341000D01*
G75*
G02*
X62365000Y-53266000I75000J0D01*
G01*
X62515000Y-53266000D01*
G75*
G02*
X62590000Y-53341000I0J-75000D01*
G01*
G37*
G36*
G01*
X64590000Y-55341000D02*
X64590000Y-55491000D01*
G75*
G02*
X64515000Y-55566000I-75000J0D01*
G01*
X63190000Y-55566000D01*
G75*
G02*
X63115000Y-55491000I0J75000D01*
G01*
X63115000Y-55341000D01*
G75*
G02*
X63190000Y-55266000I75000J0D01*
G01*
X64515000Y-55266000D01*
G75*
G02*
X64590000Y-55341000I0J-75000D01*
G01*
G37*
G36*
G01*
X64590000Y-55841000D02*
X64590000Y-55991000D01*
G75*
G02*
X64515000Y-56066000I-75000J0D01*
G01*
X63190000Y-56066000D01*
G75*
G02*
X63115000Y-55991000I0J75000D01*
G01*
X63115000Y-55841000D01*
G75*
G02*
X63190000Y-55766000I75000J0D01*
G01*
X64515000Y-55766000D01*
G75*
G02*
X64590000Y-55841000I0J-75000D01*
G01*
G37*
G36*
G01*
X64590000Y-56341000D02*
X64590000Y-56491000D01*
G75*
G02*
X64515000Y-56566000I-75000J0D01*
G01*
X63190000Y-56566000D01*
G75*
G02*
X63115000Y-56491000I0J75000D01*
G01*
X63115000Y-56341000D01*
G75*
G02*
X63190000Y-56266000I75000J0D01*
G01*
X64515000Y-56266000D01*
G75*
G02*
X64590000Y-56341000I0J-75000D01*
G01*
G37*
G36*
G01*
X64590000Y-56841000D02*
X64590000Y-56991000D01*
G75*
G02*
X64515000Y-57066000I-75000J0D01*
G01*
X63190000Y-57066000D01*
G75*
G02*
X63115000Y-56991000I0J75000D01*
G01*
X63115000Y-56841000D01*
G75*
G02*
X63190000Y-56766000I75000J0D01*
G01*
X64515000Y-56766000D01*
G75*
G02*
X64590000Y-56841000I0J-75000D01*
G01*
G37*
G36*
G01*
X64590000Y-57341000D02*
X64590000Y-57491000D01*
G75*
G02*
X64515000Y-57566000I-75000J0D01*
G01*
X63190000Y-57566000D01*
G75*
G02*
X63115000Y-57491000I0J75000D01*
G01*
X63115000Y-57341000D01*
G75*
G02*
X63190000Y-57266000I75000J0D01*
G01*
X64515000Y-57266000D01*
G75*
G02*
X64590000Y-57341000I0J-75000D01*
G01*
G37*
G36*
G01*
X64590000Y-57841000D02*
X64590000Y-57991000D01*
G75*
G02*
X64515000Y-58066000I-75000J0D01*
G01*
X63190000Y-58066000D01*
G75*
G02*
X63115000Y-57991000I0J75000D01*
G01*
X63115000Y-57841000D01*
G75*
G02*
X63190000Y-57766000I75000J0D01*
G01*
X64515000Y-57766000D01*
G75*
G02*
X64590000Y-57841000I0J-75000D01*
G01*
G37*
G36*
G01*
X64590000Y-58341000D02*
X64590000Y-58491000D01*
G75*
G02*
X64515000Y-58566000I-75000J0D01*
G01*
X63190000Y-58566000D01*
G75*
G02*
X63115000Y-58491000I0J75000D01*
G01*
X63115000Y-58341000D01*
G75*
G02*
X63190000Y-58266000I75000J0D01*
G01*
X64515000Y-58266000D01*
G75*
G02*
X64590000Y-58341000I0J-75000D01*
G01*
G37*
G36*
G01*
X64590000Y-58841000D02*
X64590000Y-58991000D01*
G75*
G02*
X64515000Y-59066000I-75000J0D01*
G01*
X63190000Y-59066000D01*
G75*
G02*
X63115000Y-58991000I0J75000D01*
G01*
X63115000Y-58841000D01*
G75*
G02*
X63190000Y-58766000I75000J0D01*
G01*
X64515000Y-58766000D01*
G75*
G02*
X64590000Y-58841000I0J-75000D01*
G01*
G37*
G36*
G01*
X64590000Y-59341000D02*
X64590000Y-59491000D01*
G75*
G02*
X64515000Y-59566000I-75000J0D01*
G01*
X63190000Y-59566000D01*
G75*
G02*
X63115000Y-59491000I0J75000D01*
G01*
X63115000Y-59341000D01*
G75*
G02*
X63190000Y-59266000I75000J0D01*
G01*
X64515000Y-59266000D01*
G75*
G02*
X64590000Y-59341000I0J-75000D01*
G01*
G37*
G36*
G01*
X64590000Y-59841000D02*
X64590000Y-59991000D01*
G75*
G02*
X64515000Y-60066000I-75000J0D01*
G01*
X63190000Y-60066000D01*
G75*
G02*
X63115000Y-59991000I0J75000D01*
G01*
X63115000Y-59841000D01*
G75*
G02*
X63190000Y-59766000I75000J0D01*
G01*
X64515000Y-59766000D01*
G75*
G02*
X64590000Y-59841000I0J-75000D01*
G01*
G37*
G36*
G01*
X64590000Y-60341000D02*
X64590000Y-60491000D01*
G75*
G02*
X64515000Y-60566000I-75000J0D01*
G01*
X63190000Y-60566000D01*
G75*
G02*
X63115000Y-60491000I0J75000D01*
G01*
X63115000Y-60341000D01*
G75*
G02*
X63190000Y-60266000I75000J0D01*
G01*
X64515000Y-60266000D01*
G75*
G02*
X64590000Y-60341000I0J-75000D01*
G01*
G37*
G36*
G01*
X64590000Y-60841000D02*
X64590000Y-60991000D01*
G75*
G02*
X64515000Y-61066000I-75000J0D01*
G01*
X63190000Y-61066000D01*
G75*
G02*
X63115000Y-60991000I0J75000D01*
G01*
X63115000Y-60841000D01*
G75*
G02*
X63190000Y-60766000I75000J0D01*
G01*
X64515000Y-60766000D01*
G75*
G02*
X64590000Y-60841000I0J-75000D01*
G01*
G37*
%TD*%
D22*
%TO.C,STLINK_CONN1*%
X82296000Y-52294000D03*
X79756000Y-52294000D03*
X82296000Y-54834000D03*
X79756000Y-54834000D03*
X82296000Y-57374000D03*
X79756000Y-57374000D03*
X82296000Y-59914000D03*
X79756000Y-59914000D03*
X82296000Y-62454000D03*
D23*
X79756000Y-62454000D03*
%TD*%
%TO.C,R13*%
G36*
G01*
X49892000Y-55429999D02*
X49892000Y-56330001D01*
G75*
G02*
X49642001Y-56580000I-249999J0D01*
G01*
X48941999Y-56580000D01*
G75*
G02*
X48692000Y-56330001I0J249999D01*
G01*
X48692000Y-55429999D01*
G75*
G02*
X48941999Y-55180000I249999J0D01*
G01*
X49642001Y-55180000D01*
G75*
G02*
X49892000Y-55429999I0J-249999D01*
G01*
G37*
G36*
G01*
X51892000Y-55429999D02*
X51892000Y-56330001D01*
G75*
G02*
X51642001Y-56580000I-249999J0D01*
G01*
X50941999Y-56580000D01*
G75*
G02*
X50692000Y-56330001I0J249999D01*
G01*
X50692000Y-55429999D01*
G75*
G02*
X50941999Y-55180000I249999J0D01*
G01*
X51642001Y-55180000D01*
G75*
G02*
X51892000Y-55429999I0J-249999D01*
G01*
G37*
%TD*%
%TO.C,R10*%
G36*
G01*
X49892000Y-59747999D02*
X49892000Y-60648001D01*
G75*
G02*
X49642001Y-60898000I-249999J0D01*
G01*
X48941999Y-60898000D01*
G75*
G02*
X48692000Y-60648001I0J249999D01*
G01*
X48692000Y-59747999D01*
G75*
G02*
X48941999Y-59498000I249999J0D01*
G01*
X49642001Y-59498000D01*
G75*
G02*
X49892000Y-59747999I0J-249999D01*
G01*
G37*
G36*
G01*
X51892000Y-59747999D02*
X51892000Y-60648001D01*
G75*
G02*
X51642001Y-60898000I-249999J0D01*
G01*
X50941999Y-60898000D01*
G75*
G02*
X50692000Y-60648001I0J249999D01*
G01*
X50692000Y-59747999D01*
G75*
G02*
X50941999Y-59498000I249999J0D01*
G01*
X51642001Y-59498000D01*
G75*
G02*
X51892000Y-59747999I0J-249999D01*
G01*
G37*
%TD*%
%TO.C,R9*%
G36*
G01*
X49892000Y-57715999D02*
X49892000Y-58616001D01*
G75*
G02*
X49642001Y-58866000I-249999J0D01*
G01*
X48941999Y-58866000D01*
G75*
G02*
X48692000Y-58616001I0J249999D01*
G01*
X48692000Y-57715999D01*
G75*
G02*
X48941999Y-57466000I249999J0D01*
G01*
X49642001Y-57466000D01*
G75*
G02*
X49892000Y-57715999I0J-249999D01*
G01*
G37*
G36*
G01*
X51892000Y-57715999D02*
X51892000Y-58616001D01*
G75*
G02*
X51642001Y-58866000I-249999J0D01*
G01*
X50941999Y-58866000D01*
G75*
G02*
X50692000Y-58616001I0J249999D01*
G01*
X50692000Y-57715999D01*
G75*
G02*
X50941999Y-57466000I249999J0D01*
G01*
X51642001Y-57466000D01*
G75*
G02*
X51892000Y-57715999I0J-249999D01*
G01*
G37*
%TD*%
%TO.C,R8*%
G36*
G01*
X75584000Y-63645201D02*
X75584000Y-62745199D01*
G75*
G02*
X75833999Y-62495200I249999J0D01*
G01*
X76534001Y-62495200D01*
G75*
G02*
X76784000Y-62745199I0J-249999D01*
G01*
X76784000Y-63645201D01*
G75*
G02*
X76534001Y-63895200I-249999J0D01*
G01*
X75833999Y-63895200D01*
G75*
G02*
X75584000Y-63645201I0J249999D01*
G01*
G37*
G36*
G01*
X73584000Y-63645201D02*
X73584000Y-62745199D01*
G75*
G02*
X73833999Y-62495200I249999J0D01*
G01*
X74534001Y-62495200D01*
G75*
G02*
X74784000Y-62745199I0J-249999D01*
G01*
X74784000Y-63645201D01*
G75*
G02*
X74534001Y-63895200I-249999J0D01*
G01*
X73833999Y-63895200D01*
G75*
G02*
X73584000Y-63645201I0J249999D01*
G01*
G37*
%TD*%
%TO.C,R7*%
G36*
G01*
X75584000Y-61156001D02*
X75584000Y-60255999D01*
G75*
G02*
X75833999Y-60006000I249999J0D01*
G01*
X76534001Y-60006000D01*
G75*
G02*
X76784000Y-60255999I0J-249999D01*
G01*
X76784000Y-61156001D01*
G75*
G02*
X76534001Y-61406000I-249999J0D01*
G01*
X75833999Y-61406000D01*
G75*
G02*
X75584000Y-61156001I0J249999D01*
G01*
G37*
G36*
G01*
X73584000Y-61156001D02*
X73584000Y-60255999D01*
G75*
G02*
X73833999Y-60006000I249999J0D01*
G01*
X74534001Y-60006000D01*
G75*
G02*
X74784000Y-60255999I0J-249999D01*
G01*
X74784000Y-61156001D01*
G75*
G02*
X74534001Y-61406000I-249999J0D01*
G01*
X73833999Y-61406000D01*
G75*
G02*
X73584000Y-61156001I0J249999D01*
G01*
G37*
%TD*%
%TO.C,R4*%
G36*
G01*
X71774000Y-58870001D02*
X71774000Y-57969999D01*
G75*
G02*
X72023999Y-57720000I249999J0D01*
G01*
X72724001Y-57720000D01*
G75*
G02*
X72974000Y-57969999I0J-249999D01*
G01*
X72974000Y-58870001D01*
G75*
G02*
X72724001Y-59120000I-249999J0D01*
G01*
X72023999Y-59120000D01*
G75*
G02*
X71774000Y-58870001I0J249999D01*
G01*
G37*
G36*
G01*
X69774000Y-58870001D02*
X69774000Y-57969999D01*
G75*
G02*
X70023999Y-57720000I249999J0D01*
G01*
X70724001Y-57720000D01*
G75*
G02*
X70974000Y-57969999I0J-249999D01*
G01*
X70974000Y-58870001D01*
G75*
G02*
X70724001Y-59120000I-249999J0D01*
G01*
X70023999Y-59120000D01*
G75*
G02*
X69774000Y-58870001I0J249999D01*
G01*
G37*
%TD*%
%TO.C,R3*%
G36*
G01*
X59528000Y-65589999D02*
X59528000Y-66490001D01*
G75*
G02*
X59278001Y-66740000I-249999J0D01*
G01*
X58577999Y-66740000D01*
G75*
G02*
X58328000Y-66490001I0J249999D01*
G01*
X58328000Y-65589999D01*
G75*
G02*
X58577999Y-65340000I249999J0D01*
G01*
X59278001Y-65340000D01*
G75*
G02*
X59528000Y-65589999I0J-249999D01*
G01*
G37*
G36*
G01*
X61528000Y-65589999D02*
X61528000Y-66490001D01*
G75*
G02*
X61278001Y-66740000I-249999J0D01*
G01*
X60577999Y-66740000D01*
G75*
G02*
X60328000Y-66490001I0J249999D01*
G01*
X60328000Y-65589999D01*
G75*
G02*
X60577999Y-65340000I249999J0D01*
G01*
X61278001Y-65340000D01*
G75*
G02*
X61528000Y-65589999I0J-249999D01*
G01*
G37*
%TD*%
%TO.C,R1*%
G36*
G01*
X70466000Y-62745199D02*
X70466000Y-63645201D01*
G75*
G02*
X70216001Y-63895200I-249999J0D01*
G01*
X69515999Y-63895200D01*
G75*
G02*
X69266000Y-63645201I0J249999D01*
G01*
X69266000Y-62745199D01*
G75*
G02*
X69515999Y-62495200I249999J0D01*
G01*
X70216001Y-62495200D01*
G75*
G02*
X70466000Y-62745199I0J-249999D01*
G01*
G37*
G36*
G01*
X72466000Y-62745199D02*
X72466000Y-63645201D01*
G75*
G02*
X72216001Y-63895200I-249999J0D01*
G01*
X71515999Y-63895200D01*
G75*
G02*
X71266000Y-63645201I0J249999D01*
G01*
X71266000Y-62745199D01*
G75*
G02*
X71515999Y-62495200I249999J0D01*
G01*
X72216001Y-62495200D01*
G75*
G02*
X72466000Y-62745199I0J-249999D01*
G01*
G37*
%TD*%
D22*
%TO.C,J4*%
X47752000Y-65786000D03*
D23*
X50292000Y-65786000D03*
%TD*%
D22*
%TO.C,J3*%
X50282000Y-49022000D03*
D23*
X47742000Y-49022000D03*
%TD*%
D22*
%TO.C,J2*%
X73690000Y-49276000D03*
X71150000Y-49276000D03*
D23*
X68610000Y-49276000D03*
%TD*%
D22*
%TO.C,J1*%
X68580000Y-66040000D03*
X71120000Y-66040000D03*
D23*
X73660000Y-66040000D03*
%TD*%
%TO.C,D7*%
G36*
G01*
X45904000Y-57899000D02*
X46420000Y-57899000D01*
G75*
G02*
X46462000Y-57941000I0J-42000D01*
G01*
X46462000Y-59217000D01*
G75*
G02*
X46420000Y-59259000I-42000J0D01*
G01*
X45904000Y-59259000D01*
G75*
G02*
X45862000Y-59217000I0J42000D01*
G01*
X45862000Y-57941000D01*
G75*
G02*
X45904000Y-57899000I42000J0D01*
G01*
G37*
G36*
G01*
X44954000Y-57899000D02*
X45470000Y-57899000D01*
G75*
G02*
X45512000Y-57941000I0J-42000D01*
G01*
X45512000Y-59217000D01*
G75*
G02*
X45470000Y-59259000I-42000J0D01*
G01*
X44954000Y-59259000D01*
G75*
G02*
X44912000Y-59217000I0J42000D01*
G01*
X44912000Y-57941000D01*
G75*
G02*
X44954000Y-57899000I42000J0D01*
G01*
G37*
G36*
G01*
X44004000Y-57899000D02*
X44520000Y-57899000D01*
G75*
G02*
X44562000Y-57941000I0J-42000D01*
G01*
X44562000Y-59217000D01*
G75*
G02*
X44520000Y-59259000I-42000J0D01*
G01*
X44004000Y-59259000D01*
G75*
G02*
X43962000Y-59217000I0J42000D01*
G01*
X43962000Y-57941000D01*
G75*
G02*
X44004000Y-57899000I42000J0D01*
G01*
G37*
G36*
G01*
X44004000Y-55549000D02*
X44520000Y-55549000D01*
G75*
G02*
X44562000Y-55591000I0J-42000D01*
G01*
X44562000Y-56867000D01*
G75*
G02*
X44520000Y-56909000I-42000J0D01*
G01*
X44004000Y-56909000D01*
G75*
G02*
X43962000Y-56867000I0J42000D01*
G01*
X43962000Y-55591000D01*
G75*
G02*
X44004000Y-55549000I42000J0D01*
G01*
G37*
G36*
G01*
X44954000Y-55549000D02*
X45470000Y-55549000D01*
G75*
G02*
X45512000Y-55591000I0J-42000D01*
G01*
X45512000Y-56867000D01*
G75*
G02*
X45470000Y-56909000I-42000J0D01*
G01*
X44954000Y-56909000D01*
G75*
G02*
X44912000Y-56867000I0J42000D01*
G01*
X44912000Y-55591000D01*
G75*
G02*
X44954000Y-55549000I42000J0D01*
G01*
G37*
G36*
G01*
X45904000Y-55549000D02*
X46420000Y-55549000D01*
G75*
G02*
X46462000Y-55591000I0J-42000D01*
G01*
X46462000Y-56867000D01*
G75*
G02*
X46420000Y-56909000I-42000J0D01*
G01*
X45904000Y-56909000D01*
G75*
G02*
X45862000Y-56867000I0J42000D01*
G01*
X45862000Y-55591000D01*
G75*
G02*
X45904000Y-55549000I42000J0D01*
G01*
G37*
%TD*%
%TO.C,D6*%
G36*
G01*
X59594000Y-48530500D02*
X59594000Y-49005500D01*
G75*
G02*
X59356500Y-49243000I-237500J0D01*
G01*
X58781500Y-49243000D01*
G75*
G02*
X58544000Y-49005500I0J237500D01*
G01*
X58544000Y-48530500D01*
G75*
G02*
X58781500Y-48293000I237500J0D01*
G01*
X59356500Y-48293000D01*
G75*
G02*
X59594000Y-48530500I0J-237500D01*
G01*
G37*
G36*
G01*
X61344000Y-48530500D02*
X61344000Y-49005500D01*
G75*
G02*
X61106500Y-49243000I-237500J0D01*
G01*
X60531500Y-49243000D01*
G75*
G02*
X60294000Y-49005500I0J237500D01*
G01*
X60294000Y-48530500D01*
G75*
G02*
X60531500Y-48293000I237500J0D01*
G01*
X61106500Y-48293000D01*
G75*
G02*
X61344000Y-48530500I0J-237500D01*
G01*
G37*
%TD*%
%TO.C,D5*%
G36*
G01*
X55863000Y-49132500D02*
X55863000Y-48657500D01*
G75*
G02*
X56100500Y-48420000I237500J0D01*
G01*
X56675500Y-48420000D01*
G75*
G02*
X56913000Y-48657500I0J-237500D01*
G01*
X56913000Y-49132500D01*
G75*
G02*
X56675500Y-49370000I-237500J0D01*
G01*
X56100500Y-49370000D01*
G75*
G02*
X55863000Y-49132500I0J237500D01*
G01*
G37*
G36*
G01*
X54113000Y-49132500D02*
X54113000Y-48657500D01*
G75*
G02*
X54350500Y-48420000I237500J0D01*
G01*
X54925500Y-48420000D01*
G75*
G02*
X55163000Y-48657500I0J-237500D01*
G01*
X55163000Y-49132500D01*
G75*
G02*
X54925500Y-49370000I-237500J0D01*
G01*
X54350500Y-49370000D01*
G75*
G02*
X54113000Y-49132500I0J237500D01*
G01*
G37*
%TD*%
%TO.C,C7*%
G36*
G01*
X54922000Y-65565000D02*
X54922000Y-66515000D01*
G75*
G02*
X54672000Y-66765000I-250000J0D01*
G01*
X53997000Y-66765000D01*
G75*
G02*
X53747000Y-66515000I0J250000D01*
G01*
X53747000Y-65565000D01*
G75*
G02*
X53997000Y-65315000I250000J0D01*
G01*
X54672000Y-65315000D01*
G75*
G02*
X54922000Y-65565000I0J-250000D01*
G01*
G37*
G36*
G01*
X56997000Y-65565000D02*
X56997000Y-66515000D01*
G75*
G02*
X56747000Y-66765000I-250000J0D01*
G01*
X56072000Y-66765000D01*
G75*
G02*
X55822000Y-66515000I0J250000D01*
G01*
X55822000Y-65565000D01*
G75*
G02*
X56072000Y-65315000I250000J0D01*
G01*
X56747000Y-65315000D01*
G75*
G02*
X56997000Y-65565000I0J-250000D01*
G01*
G37*
%TD*%
%TO.C,C4*%
G36*
G01*
X66998000Y-54069000D02*
X66998000Y-53119000D01*
G75*
G02*
X67248000Y-52869000I250000J0D01*
G01*
X67923000Y-52869000D01*
G75*
G02*
X68173000Y-53119000I0J-250000D01*
G01*
X68173000Y-54069000D01*
G75*
G02*
X67923000Y-54319000I-250000J0D01*
G01*
X67248000Y-54319000D01*
G75*
G02*
X66998000Y-54069000I0J250000D01*
G01*
G37*
G36*
G01*
X64923000Y-54069000D02*
X64923000Y-53119000D01*
G75*
G02*
X65173000Y-52869000I250000J0D01*
G01*
X65848000Y-52869000D01*
G75*
G02*
X66098000Y-53119000I0J-250000D01*
G01*
X66098000Y-54069000D01*
G75*
G02*
X65848000Y-54319000I-250000J0D01*
G01*
X65173000Y-54319000D01*
G75*
G02*
X64923000Y-54069000I0J250000D01*
G01*
G37*
%TD*%
%TO.C,C1*%
G36*
G01*
X66976500Y-63213000D02*
X66976500Y-62263000D01*
G75*
G02*
X67226500Y-62013000I250000J0D01*
G01*
X67901500Y-62013000D01*
G75*
G02*
X68151500Y-62263000I0J-250000D01*
G01*
X68151500Y-63213000D01*
G75*
G02*
X67901500Y-63463000I-250000J0D01*
G01*
X67226500Y-63463000D01*
G75*
G02*
X66976500Y-63213000I0J250000D01*
G01*
G37*
G36*
G01*
X64901500Y-63213000D02*
X64901500Y-62263000D01*
G75*
G02*
X65151500Y-62013000I250000J0D01*
G01*
X65826500Y-62013000D01*
G75*
G02*
X66076500Y-62263000I0J-250000D01*
G01*
X66076500Y-63213000D01*
G75*
G02*
X65826500Y-63463000I-250000J0D01*
G01*
X65151500Y-63463000D01*
G75*
G02*
X64901500Y-63213000I0J250000D01*
G01*
G37*
%TD*%
M02*
