%TF.GenerationSoftware,KiCad,Pcbnew,5.1.10*%
%TF.CreationDate,2021-10-01T14:20:23+03:00*%
%TF.ProjectId,Magma_STLink,4d61676d-615f-4535-944c-696e6b2e6b69,rev?*%
%TF.SameCoordinates,Original*%
%TF.FileFunction,Legend,Top*%
%TF.FilePolarity,Positive*%
%FSLAX46Y46*%
G04 Gerber Fmt 4.6, Leading zero omitted, Abs format (unit mm)*
G04 Created by KiCad (PCBNEW 5.1.10) date 2021-10-01 14:20:23*
%MOMM*%
%LPD*%
G01*
G04 APERTURE LIST*
%ADD10C,0.120000*%
%TA.AperFunction,Profile*%
%ADD11C,0.120000*%
%TD*%
%ADD12C,0.200000*%
%ADD13C,0.150000*%
%ADD14C,0.125000*%
%TA.AperFunction,Profile*%
%ADD15C,0.050000*%
%TD*%
%ADD16C,0.127000*%
%ADD17C,1.100000*%
%ADD18O,3.500000X1.900000*%
%ADD19R,2.500000X1.100000*%
%ADD20R,2.400000X1.700000*%
%ADD21O,1.700000X1.700000*%
%ADD22R,1.700000X1.700000*%
G04 APERTURE END LIST*
D10*
X64058800Y-62280800D02*
G75*
G03*
X64058800Y-62280800I-254000J0D01*
G01*
X76758800Y-56134000D02*
X76758800Y-56743600D01*
X78435200Y-56134000D02*
X76758800Y-56134000D01*
X76758800Y-58724800D02*
X76758800Y-58013600D01*
X78384400Y-58724800D02*
X76758800Y-58724800D01*
D11*
X44958000Y-64526800D02*
G75*
G03*
X44958000Y-64526800I-2500000J0D01*
G01*
X44958000Y-50302800D02*
G75*
G03*
X44958000Y-50302800I-2500000J0D01*
G01*
D12*
X45101657Y-52474761D02*
X45238561Y-52522380D01*
X45476657Y-52522380D01*
X45577847Y-52474761D01*
X45631419Y-52427142D01*
X45690942Y-52331904D01*
X45702847Y-52236666D01*
X45667133Y-52141428D01*
X45625466Y-52093809D01*
X45536180Y-52046190D01*
X45351657Y-51998571D01*
X45262371Y-51950952D01*
X45220704Y-51903333D01*
X45184990Y-51808095D01*
X45196895Y-51712857D01*
X45256419Y-51617619D01*
X45309990Y-51570000D01*
X45411180Y-51522380D01*
X45649276Y-51522380D01*
X45786180Y-51570000D01*
X46077847Y-51522380D02*
X46649276Y-51522380D01*
X46238561Y-52522380D02*
X46363561Y-51522380D01*
X47333800Y-52522380D02*
X46857609Y-52522380D01*
X46982609Y-51522380D01*
X47667133Y-52522380D02*
X47792133Y-51522380D01*
X48143323Y-52522380D02*
X48268323Y-51522380D01*
X48714752Y-52522380D01*
X48839752Y-51522380D01*
X49190942Y-52522380D02*
X49315942Y-51522380D01*
X49762371Y-52522380D02*
X49405228Y-51950952D01*
X49887371Y-51522380D02*
X49244514Y-52093809D01*
X50934990Y-51522380D02*
X51143323Y-52522380D01*
X51601657Y-51522380D01*
X51875466Y-51617619D02*
X51929038Y-51570000D01*
X52030228Y-51522380D01*
X52268323Y-51522380D01*
X52357609Y-51570000D01*
X52399276Y-51617619D01*
X52434990Y-51712857D01*
X52423085Y-51808095D01*
X52357609Y-51950952D01*
X51714752Y-52522380D01*
X52333800Y-52522380D01*
D13*
X74596666Y-56856380D02*
X75263333Y-57856380D01*
X75263333Y-56856380D02*
X74596666Y-57856380D01*
D14*
X75831047Y-57606380D02*
X75902476Y-57630190D01*
X76021523Y-57630190D01*
X76069142Y-57606380D01*
X76092952Y-57582571D01*
X76116761Y-57534952D01*
X76116761Y-57487333D01*
X76092952Y-57439714D01*
X76069142Y-57415904D01*
X76021523Y-57392095D01*
X75926285Y-57368285D01*
X75878666Y-57344476D01*
X75854857Y-57320666D01*
X75831047Y-57273047D01*
X75831047Y-57225428D01*
X75854857Y-57177809D01*
X75878666Y-57154000D01*
X75926285Y-57130190D01*
X76045333Y-57130190D01*
X76116761Y-57154000D01*
X76283428Y-57130190D02*
X76402476Y-57630190D01*
X76497714Y-57273047D01*
X76592952Y-57630190D01*
X76712000Y-57130190D01*
X77188190Y-57582571D02*
X77164380Y-57606380D01*
X77092952Y-57630190D01*
X77045333Y-57630190D01*
X76973904Y-57606380D01*
X76926285Y-57558761D01*
X76902476Y-57511142D01*
X76878666Y-57415904D01*
X76878666Y-57344476D01*
X76902476Y-57249238D01*
X76926285Y-57201619D01*
X76973904Y-57154000D01*
X77045333Y-57130190D01*
X77092952Y-57130190D01*
X77164380Y-57154000D01*
X77188190Y-57177809D01*
X77640571Y-57630190D02*
X77402476Y-57630190D01*
X77402476Y-57130190D01*
X77807238Y-57630190D02*
X77807238Y-57130190D01*
X78092952Y-57630190D02*
X77878666Y-57344476D01*
X78092952Y-57130190D02*
X77807238Y-57415904D01*
X78731371Y-65097790D02*
X78731371Y-64597790D01*
X79017085Y-65097790D01*
X79017085Y-64597790D01*
X79540895Y-65097790D02*
X79374228Y-64859695D01*
X79255180Y-65097790D02*
X79255180Y-64597790D01*
X79445657Y-64597790D01*
X79493276Y-64621600D01*
X79517085Y-64645409D01*
X79540895Y-64693028D01*
X79540895Y-64764457D01*
X79517085Y-64812076D01*
X79493276Y-64835885D01*
X79445657Y-64859695D01*
X79255180Y-64859695D01*
X79731371Y-65073980D02*
X79802800Y-65097790D01*
X79921847Y-65097790D01*
X79969466Y-65073980D01*
X79993276Y-65050171D01*
X80017085Y-65002552D01*
X80017085Y-64954933D01*
X79993276Y-64907314D01*
X79969466Y-64883504D01*
X79921847Y-64859695D01*
X79826609Y-64835885D01*
X79778990Y-64812076D01*
X79755180Y-64788266D01*
X79731371Y-64740647D01*
X79731371Y-64693028D01*
X79755180Y-64645409D01*
X79778990Y-64621600D01*
X79826609Y-64597790D01*
X79945657Y-64597790D01*
X80017085Y-64621600D01*
X80159942Y-64597790D02*
X80445657Y-64597790D01*
X80302800Y-65097790D02*
X80302800Y-64597790D01*
X81338076Y-65073980D02*
X81409504Y-65097790D01*
X81528552Y-65097790D01*
X81576171Y-65073980D01*
X81599980Y-65050171D01*
X81623790Y-65002552D01*
X81623790Y-64954933D01*
X81599980Y-64907314D01*
X81576171Y-64883504D01*
X81528552Y-64859695D01*
X81433314Y-64835885D01*
X81385695Y-64812076D01*
X81361885Y-64788266D01*
X81338076Y-64740647D01*
X81338076Y-64693028D01*
X81361885Y-64645409D01*
X81385695Y-64621600D01*
X81433314Y-64597790D01*
X81552361Y-64597790D01*
X81623790Y-64621600D01*
X81790457Y-64597790D02*
X81909504Y-65097790D01*
X82004742Y-64740647D01*
X82099980Y-65097790D01*
X82219028Y-64597790D01*
X82409504Y-65097790D02*
X82409504Y-64597790D01*
X82528552Y-64597790D01*
X82599980Y-64621600D01*
X82647600Y-64669219D01*
X82671409Y-64716838D01*
X82695219Y-64812076D01*
X82695219Y-64883504D01*
X82671409Y-64978742D01*
X82647600Y-65026361D01*
X82599980Y-65073980D01*
X82528552Y-65097790D01*
X82409504Y-65097790D01*
X82909504Y-65097790D02*
X82909504Y-64597790D01*
X83242838Y-64597790D02*
X83338076Y-64597790D01*
X83385695Y-64621600D01*
X83433314Y-64669219D01*
X83457123Y-64764457D01*
X83457123Y-64931123D01*
X83433314Y-65026361D01*
X83385695Y-65073980D01*
X83338076Y-65097790D01*
X83242838Y-65097790D01*
X83195219Y-65073980D01*
X83147600Y-65026361D01*
X83123790Y-64931123D01*
X83123790Y-64764457D01*
X83147600Y-64669219D01*
X83195219Y-64621600D01*
X83242838Y-64597790D01*
D13*
X75215904Y-54316380D02*
X75834952Y-54316380D01*
X75501619Y-54697333D01*
X75644476Y-54697333D01*
X75739714Y-54744952D01*
X75787333Y-54792571D01*
X75834952Y-54887809D01*
X75834952Y-55125904D01*
X75787333Y-55221142D01*
X75739714Y-55268761D01*
X75644476Y-55316380D01*
X75358761Y-55316380D01*
X75263523Y-55268761D01*
X75215904Y-55221142D01*
X76120666Y-54316380D02*
X76454000Y-55316380D01*
X76787333Y-54316380D01*
X77025428Y-54316380D02*
X77644476Y-54316380D01*
X77311142Y-54697333D01*
X77454000Y-54697333D01*
X77549238Y-54744952D01*
X77596857Y-54792571D01*
X77644476Y-54887809D01*
X77644476Y-55125904D01*
X77596857Y-55221142D01*
X77549238Y-55268761D01*
X77454000Y-55316380D01*
X77168285Y-55316380D01*
X77073047Y-55268761D01*
X77025428Y-55221142D01*
D15*
X85598000Y-52324000D02*
X85598000Y-62484000D01*
X80264000Y-46990000D02*
G75*
G02*
X85598000Y-52324000I0J-5334000D01*
G01*
X85598000Y-62484000D02*
G75*
G02*
X80264000Y-67818000I-5334000J0D01*
G01*
X43180000Y-67818000D02*
X39116000Y-67818000D01*
X34290000Y-51816000D02*
X34290000Y-62992000D01*
X39116000Y-67818000D02*
G75*
G02*
X34290000Y-62992000I0J4826000D01*
G01*
X34290000Y-51816000D02*
G75*
G02*
X39116000Y-46990000I4826000J0D01*
G01*
X43180000Y-46990000D02*
X39116000Y-46990000D01*
X43180000Y-67818000D02*
X80264000Y-67818000D01*
X43180000Y-46990000D02*
X80264000Y-46990000D01*
D10*
%TO.C,J5*%
X38500000Y-61804000D02*
X39255000Y-61804000D01*
X35330000Y-51259000D02*
X34280000Y-51259000D01*
X35330000Y-63549000D02*
X34280000Y-63549000D01*
X38500000Y-61804000D02*
X38500000Y-53004000D01*
%TO.C,Y1*%
X65600000Y-60666000D02*
X65600000Y-55666000D01*
X69020000Y-60666000D02*
X69020000Y-55666000D01*
%TO.C,U2*%
X56530000Y-54556000D02*
X56080000Y-54556000D01*
X56080000Y-54556000D02*
X56080000Y-55006000D01*
X62850000Y-54556000D02*
X63300000Y-54556000D01*
X63300000Y-54556000D02*
X63300000Y-55006000D01*
X56530000Y-61776000D02*
X56080000Y-61776000D01*
X56080000Y-61776000D02*
X56080000Y-61326000D01*
X62850000Y-61776000D02*
X63300000Y-61776000D01*
X63300000Y-61776000D02*
X63300000Y-61326000D01*
X63300000Y-61326000D02*
X64590000Y-61326000D01*
%TO.C,STLINK_CONN1*%
X83626000Y-63784000D02*
X81026000Y-63784000D01*
X83626000Y-63784000D02*
X83626000Y-50964000D01*
X83626000Y-50964000D02*
X78426000Y-50964000D01*
X78426000Y-61184000D02*
X78426000Y-50964000D01*
X81026000Y-61184000D02*
X78426000Y-61184000D01*
X81026000Y-63784000D02*
X81026000Y-61184000D01*
X78426000Y-63784000D02*
X78426000Y-62454000D01*
X79756000Y-63784000D02*
X78426000Y-63784000D01*
%TO.C,R13*%
X50519064Y-56615000D02*
X50064936Y-56615000D01*
X50519064Y-55145000D02*
X50064936Y-55145000D01*
%TO.C,R10*%
X50519064Y-60933000D02*
X50064936Y-60933000D01*
X50519064Y-59463000D02*
X50064936Y-59463000D01*
%TO.C,R9*%
X50519064Y-58901000D02*
X50064936Y-58901000D01*
X50519064Y-57431000D02*
X50064936Y-57431000D01*
%TO.C,R8*%
X74956936Y-62460200D02*
X75411064Y-62460200D01*
X74956936Y-63930200D02*
X75411064Y-63930200D01*
%TO.C,R7*%
X74956936Y-59971000D02*
X75411064Y-59971000D01*
X74956936Y-61441000D02*
X75411064Y-61441000D01*
%TO.C,R4*%
X71146936Y-57685000D02*
X71601064Y-57685000D01*
X71146936Y-59155000D02*
X71601064Y-59155000D01*
%TO.C,R3*%
X60155064Y-66775000D02*
X59700936Y-66775000D01*
X60155064Y-65305000D02*
X59700936Y-65305000D01*
%TO.C,R1*%
X71093064Y-63930200D02*
X70638936Y-63930200D01*
X71093064Y-62460200D02*
X70638936Y-62460200D01*
%TO.C,J4*%
X46422000Y-64456000D02*
X46422000Y-67116000D01*
X49022000Y-64456000D02*
X46422000Y-64456000D01*
X49022000Y-67116000D02*
X46422000Y-67116000D01*
X49022000Y-64456000D02*
X49022000Y-67116000D01*
X50292000Y-64456000D02*
X51622000Y-64456000D01*
X51622000Y-64456000D02*
X51622000Y-65786000D01*
%TO.C,J3*%
X51612000Y-50352000D02*
X51612000Y-47692000D01*
X49012000Y-50352000D02*
X51612000Y-50352000D01*
X49012000Y-47692000D02*
X51612000Y-47692000D01*
X49012000Y-50352000D02*
X49012000Y-47692000D01*
X47742000Y-50352000D02*
X46412000Y-50352000D01*
X46412000Y-50352000D02*
X46412000Y-49022000D01*
%TO.C,J2*%
X75020000Y-50606000D02*
X75020000Y-47946000D01*
X69880000Y-50606000D02*
X75020000Y-50606000D01*
X69880000Y-47946000D02*
X75020000Y-47946000D01*
X69880000Y-50606000D02*
X69880000Y-47946000D01*
X68610000Y-50606000D02*
X67280000Y-50606000D01*
X67280000Y-50606000D02*
X67280000Y-49276000D01*
%TO.C,J1*%
X67250000Y-64710000D02*
X67250000Y-67370000D01*
X72390000Y-64710000D02*
X67250000Y-64710000D01*
X72390000Y-67370000D02*
X67250000Y-67370000D01*
X72390000Y-64710000D02*
X72390000Y-67370000D01*
X73660000Y-64710000D02*
X74990000Y-64710000D01*
X74990000Y-64710000D02*
X74990000Y-66040000D01*
D16*
%TO.C,D7*%
X46776000Y-56591500D02*
X46776000Y-58216500D01*
X43648000Y-56591500D02*
X43648000Y-58216500D01*
D12*
X46312000Y-55004000D02*
G75*
G03*
X46312000Y-55004000I-100000J0D01*
G01*
D10*
%TO.C,D6*%
X59144000Y-49503000D02*
X61604000Y-49503000D01*
X61604000Y-49503000D02*
X61604000Y-48033000D01*
X61604000Y-48033000D02*
X59144000Y-48033000D01*
%TO.C,D5*%
X56313000Y-48160000D02*
X53853000Y-48160000D01*
X53853000Y-48160000D02*
X53853000Y-49630000D01*
X53853000Y-49630000D02*
X56313000Y-49630000D01*
%TO.C,C7*%
X55633252Y-66775000D02*
X55110748Y-66775000D01*
X55633252Y-65305000D02*
X55110748Y-65305000D01*
%TO.C,C4*%
X66286748Y-52859000D02*
X66809252Y-52859000D01*
X66286748Y-54329000D02*
X66809252Y-54329000D01*
%TO.C,C1*%
X66265248Y-62003000D02*
X66787752Y-62003000D01*
X66265248Y-63473000D02*
X66787752Y-63473000D01*
%TD*%
%TO.C,J5*%
D13*
X37512666Y-64984380D02*
X37512666Y-65698666D01*
X37465047Y-65841523D01*
X37369809Y-65936761D01*
X37226952Y-65984380D01*
X37131714Y-65984380D01*
X38465047Y-64984380D02*
X37988857Y-64984380D01*
X37941238Y-65460571D01*
X37988857Y-65412952D01*
X38084095Y-65365333D01*
X38322190Y-65365333D01*
X38417428Y-65412952D01*
X38465047Y-65460571D01*
X38512666Y-65555809D01*
X38512666Y-65793904D01*
X38465047Y-65889142D01*
X38417428Y-65936761D01*
X38322190Y-65984380D01*
X38084095Y-65984380D01*
X37988857Y-65936761D01*
X37941238Y-65889142D01*
%TO.C,Y1*%
X69780209Y-55094190D02*
X69780209Y-55570380D01*
X69446876Y-54570380D02*
X69780209Y-55094190D01*
X70113542Y-54570380D01*
X70970685Y-55570380D02*
X70399257Y-55570380D01*
X70684971Y-55570380D02*
X70684971Y-54570380D01*
X70589733Y-54713238D01*
X70494495Y-54808476D01*
X70399257Y-54856095D01*
%TO.C,U2*%
X54102095Y-53046380D02*
X54102095Y-53855904D01*
X54149714Y-53951142D01*
X54197333Y-53998761D01*
X54292571Y-54046380D01*
X54483047Y-54046380D01*
X54578285Y-53998761D01*
X54625904Y-53951142D01*
X54673523Y-53855904D01*
X54673523Y-53046380D01*
X55102095Y-53141619D02*
X55149714Y-53094000D01*
X55244952Y-53046380D01*
X55483047Y-53046380D01*
X55578285Y-53094000D01*
X55625904Y-53141619D01*
X55673523Y-53236857D01*
X55673523Y-53332095D01*
X55625904Y-53474952D01*
X55054476Y-54046380D01*
X55673523Y-54046380D01*
%TO.C,R13*%
X49547542Y-54757580D02*
X49214209Y-54281390D01*
X48976114Y-54757580D02*
X48976114Y-53757580D01*
X49357066Y-53757580D01*
X49452304Y-53805200D01*
X49499923Y-53852819D01*
X49547542Y-53948057D01*
X49547542Y-54090914D01*
X49499923Y-54186152D01*
X49452304Y-54233771D01*
X49357066Y-54281390D01*
X48976114Y-54281390D01*
X50499923Y-54757580D02*
X49928495Y-54757580D01*
X50214209Y-54757580D02*
X50214209Y-53757580D01*
X50118971Y-53900438D01*
X50023733Y-53995676D01*
X49928495Y-54043295D01*
X50833257Y-53757580D02*
X51452304Y-53757580D01*
X51118971Y-54138533D01*
X51261828Y-54138533D01*
X51357066Y-54186152D01*
X51404685Y-54233771D01*
X51452304Y-54329009D01*
X51452304Y-54567104D01*
X51404685Y-54662342D01*
X51357066Y-54709961D01*
X51261828Y-54757580D01*
X50976114Y-54757580D01*
X50880876Y-54709961D01*
X50833257Y-54662342D01*
%TO.C,R10*%
X49649142Y-62300380D02*
X49315809Y-61824190D01*
X49077714Y-62300380D02*
X49077714Y-61300380D01*
X49458666Y-61300380D01*
X49553904Y-61348000D01*
X49601523Y-61395619D01*
X49649142Y-61490857D01*
X49649142Y-61633714D01*
X49601523Y-61728952D01*
X49553904Y-61776571D01*
X49458666Y-61824190D01*
X49077714Y-61824190D01*
X50601523Y-62300380D02*
X50030095Y-62300380D01*
X50315809Y-62300380D02*
X50315809Y-61300380D01*
X50220571Y-61443238D01*
X50125333Y-61538476D01*
X50030095Y-61586095D01*
X51220571Y-61300380D02*
X51315809Y-61300380D01*
X51411047Y-61348000D01*
X51458666Y-61395619D01*
X51506285Y-61490857D01*
X51553904Y-61681333D01*
X51553904Y-61919428D01*
X51506285Y-62109904D01*
X51458666Y-62205142D01*
X51411047Y-62252761D01*
X51315809Y-62300380D01*
X51220571Y-62300380D01*
X51125333Y-62252761D01*
X51077714Y-62205142D01*
X51030095Y-62109904D01*
X50982476Y-61919428D01*
X50982476Y-61681333D01*
X51030095Y-61490857D01*
X51077714Y-61395619D01*
X51125333Y-61348000D01*
X51220571Y-61300380D01*
%TO.C,R9*%
X52919333Y-58567580D02*
X52586000Y-58091390D01*
X52347904Y-58567580D02*
X52347904Y-57567580D01*
X52728857Y-57567580D01*
X52824095Y-57615200D01*
X52871714Y-57662819D01*
X52919333Y-57758057D01*
X52919333Y-57900914D01*
X52871714Y-57996152D01*
X52824095Y-58043771D01*
X52728857Y-58091390D01*
X52347904Y-58091390D01*
X53395523Y-58567580D02*
X53586000Y-58567580D01*
X53681238Y-58519961D01*
X53728857Y-58472342D01*
X53824095Y-58329485D01*
X53871714Y-58139009D01*
X53871714Y-57758057D01*
X53824095Y-57662819D01*
X53776476Y-57615200D01*
X53681238Y-57567580D01*
X53490761Y-57567580D01*
X53395523Y-57615200D01*
X53347904Y-57662819D01*
X53300285Y-57758057D01*
X53300285Y-57996152D01*
X53347904Y-58091390D01*
X53395523Y-58139009D01*
X53490761Y-58186628D01*
X53681238Y-58186628D01*
X53776476Y-58139009D01*
X53824095Y-58091390D01*
X53871714Y-57996152D01*
%TO.C,R8*%
X76744533Y-65323980D02*
X76411200Y-64847790D01*
X76173104Y-65323980D02*
X76173104Y-64323980D01*
X76554057Y-64323980D01*
X76649295Y-64371600D01*
X76696914Y-64419219D01*
X76744533Y-64514457D01*
X76744533Y-64657314D01*
X76696914Y-64752552D01*
X76649295Y-64800171D01*
X76554057Y-64847790D01*
X76173104Y-64847790D01*
X77315961Y-64752552D02*
X77220723Y-64704933D01*
X77173104Y-64657314D01*
X77125485Y-64562076D01*
X77125485Y-64514457D01*
X77173104Y-64419219D01*
X77220723Y-64371600D01*
X77315961Y-64323980D01*
X77506438Y-64323980D01*
X77601676Y-64371600D01*
X77649295Y-64419219D01*
X77696914Y-64514457D01*
X77696914Y-64562076D01*
X77649295Y-64657314D01*
X77601676Y-64704933D01*
X77506438Y-64752552D01*
X77315961Y-64752552D01*
X77220723Y-64800171D01*
X77173104Y-64847790D01*
X77125485Y-64943028D01*
X77125485Y-65133504D01*
X77173104Y-65228742D01*
X77220723Y-65276361D01*
X77315961Y-65323980D01*
X77506438Y-65323980D01*
X77601676Y-65276361D01*
X77649295Y-65228742D01*
X77696914Y-65133504D01*
X77696914Y-64943028D01*
X77649295Y-64847790D01*
X77601676Y-64800171D01*
X77506438Y-64752552D01*
%TO.C,R7*%
X72274133Y-61107580D02*
X71940800Y-60631390D01*
X71702704Y-61107580D02*
X71702704Y-60107580D01*
X72083657Y-60107580D01*
X72178895Y-60155200D01*
X72226514Y-60202819D01*
X72274133Y-60298057D01*
X72274133Y-60440914D01*
X72226514Y-60536152D01*
X72178895Y-60583771D01*
X72083657Y-60631390D01*
X71702704Y-60631390D01*
X72607466Y-60107580D02*
X73274133Y-60107580D01*
X72845561Y-61107580D01*
%TO.C,R4*%
X71207333Y-57222380D02*
X70874000Y-56746190D01*
X70635904Y-57222380D02*
X70635904Y-56222380D01*
X71016857Y-56222380D01*
X71112095Y-56270000D01*
X71159714Y-56317619D01*
X71207333Y-56412857D01*
X71207333Y-56555714D01*
X71159714Y-56650952D01*
X71112095Y-56698571D01*
X71016857Y-56746190D01*
X70635904Y-56746190D01*
X72064476Y-56555714D02*
X72064476Y-57222380D01*
X71826380Y-56174761D02*
X71588285Y-56889047D01*
X72207333Y-56889047D01*
%TO.C,R3*%
X59777333Y-64714380D02*
X59444000Y-64238190D01*
X59205904Y-64714380D02*
X59205904Y-63714380D01*
X59586857Y-63714380D01*
X59682095Y-63762000D01*
X59729714Y-63809619D01*
X59777333Y-63904857D01*
X59777333Y-64047714D01*
X59729714Y-64142952D01*
X59682095Y-64190571D01*
X59586857Y-64238190D01*
X59205904Y-64238190D01*
X60110666Y-63714380D02*
X60729714Y-63714380D01*
X60396380Y-64095333D01*
X60539238Y-64095333D01*
X60634476Y-64142952D01*
X60682095Y-64190571D01*
X60729714Y-64285809D01*
X60729714Y-64523904D01*
X60682095Y-64619142D01*
X60634476Y-64666761D01*
X60539238Y-64714380D01*
X60253523Y-64714380D01*
X60158285Y-64666761D01*
X60110666Y-64619142D01*
%TO.C,R1*%
X69988133Y-62072780D02*
X69654800Y-61596590D01*
X69416704Y-62072780D02*
X69416704Y-61072780D01*
X69797657Y-61072780D01*
X69892895Y-61120400D01*
X69940514Y-61168019D01*
X69988133Y-61263257D01*
X69988133Y-61406114D01*
X69940514Y-61501352D01*
X69892895Y-61548971D01*
X69797657Y-61596590D01*
X69416704Y-61596590D01*
X70940514Y-62072780D02*
X70369085Y-62072780D01*
X70654800Y-62072780D02*
X70654800Y-61072780D01*
X70559561Y-61215638D01*
X70464323Y-61310876D01*
X70369085Y-61358495D01*
%TO.C,J4*%
X45132666Y-65238380D02*
X45132666Y-65952666D01*
X45085047Y-66095523D01*
X44989809Y-66190761D01*
X44846952Y-66238380D01*
X44751714Y-66238380D01*
X46037428Y-65571714D02*
X46037428Y-66238380D01*
X45799333Y-65190761D02*
X45561238Y-65905047D01*
X46180285Y-65905047D01*
%TO.C,J3*%
X44675466Y-48372780D02*
X44675466Y-49087066D01*
X44627847Y-49229923D01*
X44532609Y-49325161D01*
X44389752Y-49372780D01*
X44294514Y-49372780D01*
X45056419Y-48372780D02*
X45675466Y-48372780D01*
X45342133Y-48753733D01*
X45484990Y-48753733D01*
X45580228Y-48801352D01*
X45627847Y-48848971D01*
X45675466Y-48944209D01*
X45675466Y-49182304D01*
X45627847Y-49277542D01*
X45580228Y-49325161D01*
X45484990Y-49372780D01*
X45199276Y-49372780D01*
X45104038Y-49325161D01*
X45056419Y-49277542D01*
%TO.C,J2*%
X65946666Y-48728380D02*
X65946666Y-49442666D01*
X65899047Y-49585523D01*
X65803809Y-49680761D01*
X65660952Y-49728380D01*
X65565714Y-49728380D01*
X66375238Y-48823619D02*
X66422857Y-48776000D01*
X66518095Y-48728380D01*
X66756190Y-48728380D01*
X66851428Y-48776000D01*
X66899047Y-48823619D01*
X66946666Y-48918857D01*
X66946666Y-49014095D01*
X66899047Y-49156952D01*
X66327619Y-49728380D01*
X66946666Y-49728380D01*
%TO.C,J1*%
X75612666Y-66508380D02*
X75612666Y-67222666D01*
X75565047Y-67365523D01*
X75469809Y-67460761D01*
X75326952Y-67508380D01*
X75231714Y-67508380D01*
X76612666Y-67508380D02*
X76041238Y-67508380D01*
X76326952Y-67508380D02*
X76326952Y-66508380D01*
X76231714Y-66651238D01*
X76136476Y-66746476D01*
X76041238Y-66794095D01*
%TO.C,D7*%
X43876019Y-60436723D02*
X43876019Y-59796723D01*
X44028400Y-59796723D01*
X44119828Y-59827200D01*
X44180780Y-59888152D01*
X44211257Y-59949104D01*
X44241733Y-60071009D01*
X44241733Y-60162438D01*
X44211257Y-60284342D01*
X44180780Y-60345295D01*
X44119828Y-60406247D01*
X44028400Y-60436723D01*
X43876019Y-60436723D01*
X44455066Y-59796723D02*
X44881733Y-59796723D01*
X44607447Y-60436723D01*
%TO.C,D6*%
X59459904Y-51252380D02*
X59459904Y-50252380D01*
X59698000Y-50252380D01*
X59840857Y-50300000D01*
X59936095Y-50395238D01*
X59983714Y-50490476D01*
X60031333Y-50680952D01*
X60031333Y-50823809D01*
X59983714Y-51014285D01*
X59936095Y-51109523D01*
X59840857Y-51204761D01*
X59698000Y-51252380D01*
X59459904Y-51252380D01*
X60888476Y-50252380D02*
X60698000Y-50252380D01*
X60602761Y-50300000D01*
X60555142Y-50347619D01*
X60459904Y-50490476D01*
X60412285Y-50680952D01*
X60412285Y-51061904D01*
X60459904Y-51157142D01*
X60507523Y-51204761D01*
X60602761Y-51252380D01*
X60793238Y-51252380D01*
X60888476Y-51204761D01*
X60936095Y-51157142D01*
X60983714Y-51061904D01*
X60983714Y-50823809D01*
X60936095Y-50728571D01*
X60888476Y-50680952D01*
X60793238Y-50633333D01*
X60602761Y-50633333D01*
X60507523Y-50680952D01*
X60459904Y-50728571D01*
X60412285Y-50823809D01*
%TO.C,D5*%
X53871904Y-51252380D02*
X53871904Y-50252380D01*
X54110000Y-50252380D01*
X54252857Y-50300000D01*
X54348095Y-50395238D01*
X54395714Y-50490476D01*
X54443333Y-50680952D01*
X54443333Y-50823809D01*
X54395714Y-51014285D01*
X54348095Y-51109523D01*
X54252857Y-51204761D01*
X54110000Y-51252380D01*
X53871904Y-51252380D01*
X55348095Y-50252380D02*
X54871904Y-50252380D01*
X54824285Y-50728571D01*
X54871904Y-50680952D01*
X54967142Y-50633333D01*
X55205238Y-50633333D01*
X55300476Y-50680952D01*
X55348095Y-50728571D01*
X55395714Y-50823809D01*
X55395714Y-51061904D01*
X55348095Y-51157142D01*
X55300476Y-51204761D01*
X55205238Y-51252380D01*
X54967142Y-51252380D01*
X54871904Y-51204761D01*
X54824285Y-51157142D01*
%TO.C,C7*%
X55205333Y-64619142D02*
X55157714Y-64666761D01*
X55014857Y-64714380D01*
X54919619Y-64714380D01*
X54776761Y-64666761D01*
X54681523Y-64571523D01*
X54633904Y-64476285D01*
X54586285Y-64285809D01*
X54586285Y-64142952D01*
X54633904Y-63952476D01*
X54681523Y-63857238D01*
X54776761Y-63762000D01*
X54919619Y-63714380D01*
X55014857Y-63714380D01*
X55157714Y-63762000D01*
X55205333Y-63809619D01*
X55538666Y-63714380D02*
X56205333Y-63714380D01*
X55776761Y-64714380D01*
%TO.C,C4*%
X66381333Y-52271142D02*
X66333714Y-52318761D01*
X66190857Y-52366380D01*
X66095619Y-52366380D01*
X65952761Y-52318761D01*
X65857523Y-52223523D01*
X65809904Y-52128285D01*
X65762285Y-51937809D01*
X65762285Y-51794952D01*
X65809904Y-51604476D01*
X65857523Y-51509238D01*
X65952761Y-51414000D01*
X66095619Y-51366380D01*
X66190857Y-51366380D01*
X66333714Y-51414000D01*
X66381333Y-51461619D01*
X67238476Y-51699714D02*
X67238476Y-52366380D01*
X67000380Y-51318761D02*
X66762285Y-52033047D01*
X67381333Y-52033047D01*
%TO.C,C1*%
X65619333Y-64873142D02*
X65571714Y-64920761D01*
X65428857Y-64968380D01*
X65333619Y-64968380D01*
X65190761Y-64920761D01*
X65095523Y-64825523D01*
X65047904Y-64730285D01*
X65000285Y-64539809D01*
X65000285Y-64396952D01*
X65047904Y-64206476D01*
X65095523Y-64111238D01*
X65190761Y-64016000D01*
X65333619Y-63968380D01*
X65428857Y-63968380D01*
X65571714Y-64016000D01*
X65619333Y-64063619D01*
X66571714Y-64968380D02*
X66000285Y-64968380D01*
X66286000Y-64968380D02*
X66286000Y-63968380D01*
X66190761Y-64111238D01*
X66095523Y-64206476D01*
X66000285Y-64254095D01*
%TD*%
%LPC*%
D17*
%TO.C,J5*%
X37380000Y-55104000D03*
X37380000Y-59704000D03*
D18*
X37380000Y-51704000D03*
X37380000Y-63104000D03*
D19*
X40130000Y-53904000D03*
X40130000Y-60904000D03*
X40130000Y-56404000D03*
X40130000Y-58404000D03*
%TD*%
D20*
%TO.C,Y1*%
X67310000Y-56316000D03*
X67310000Y-60016000D03*
%TD*%
%TO.C,U2*%
G36*
G01*
X62590000Y-61666000D02*
X62590000Y-62991000D01*
G75*
G02*
X62515000Y-63066000I-75000J0D01*
G01*
X62365000Y-63066000D01*
G75*
G02*
X62290000Y-62991000I0J75000D01*
G01*
X62290000Y-61666000D01*
G75*
G02*
X62365000Y-61591000I75000J0D01*
G01*
X62515000Y-61591000D01*
G75*
G02*
X62590000Y-61666000I0J-75000D01*
G01*
G37*
G36*
G01*
X62090000Y-61666000D02*
X62090000Y-62991000D01*
G75*
G02*
X62015000Y-63066000I-75000J0D01*
G01*
X61865000Y-63066000D01*
G75*
G02*
X61790000Y-62991000I0J75000D01*
G01*
X61790000Y-61666000D01*
G75*
G02*
X61865000Y-61591000I75000J0D01*
G01*
X62015000Y-61591000D01*
G75*
G02*
X62090000Y-61666000I0J-75000D01*
G01*
G37*
G36*
G01*
X61590000Y-61666000D02*
X61590000Y-62991000D01*
G75*
G02*
X61515000Y-63066000I-75000J0D01*
G01*
X61365000Y-63066000D01*
G75*
G02*
X61290000Y-62991000I0J75000D01*
G01*
X61290000Y-61666000D01*
G75*
G02*
X61365000Y-61591000I75000J0D01*
G01*
X61515000Y-61591000D01*
G75*
G02*
X61590000Y-61666000I0J-75000D01*
G01*
G37*
G36*
G01*
X61090000Y-61666000D02*
X61090000Y-62991000D01*
G75*
G02*
X61015000Y-63066000I-75000J0D01*
G01*
X60865000Y-63066000D01*
G75*
G02*
X60790000Y-62991000I0J75000D01*
G01*
X60790000Y-61666000D01*
G75*
G02*
X60865000Y-61591000I75000J0D01*
G01*
X61015000Y-61591000D01*
G75*
G02*
X61090000Y-61666000I0J-75000D01*
G01*
G37*
G36*
G01*
X60590000Y-61666000D02*
X60590000Y-62991000D01*
G75*
G02*
X60515000Y-63066000I-75000J0D01*
G01*
X60365000Y-63066000D01*
G75*
G02*
X60290000Y-62991000I0J75000D01*
G01*
X60290000Y-61666000D01*
G75*
G02*
X60365000Y-61591000I75000J0D01*
G01*
X60515000Y-61591000D01*
G75*
G02*
X60590000Y-61666000I0J-75000D01*
G01*
G37*
G36*
G01*
X60090000Y-61666000D02*
X60090000Y-62991000D01*
G75*
G02*
X60015000Y-63066000I-75000J0D01*
G01*
X59865000Y-63066000D01*
G75*
G02*
X59790000Y-62991000I0J75000D01*
G01*
X59790000Y-61666000D01*
G75*
G02*
X59865000Y-61591000I75000J0D01*
G01*
X60015000Y-61591000D01*
G75*
G02*
X60090000Y-61666000I0J-75000D01*
G01*
G37*
G36*
G01*
X59590000Y-61666000D02*
X59590000Y-62991000D01*
G75*
G02*
X59515000Y-63066000I-75000J0D01*
G01*
X59365000Y-63066000D01*
G75*
G02*
X59290000Y-62991000I0J75000D01*
G01*
X59290000Y-61666000D01*
G75*
G02*
X59365000Y-61591000I75000J0D01*
G01*
X59515000Y-61591000D01*
G75*
G02*
X59590000Y-61666000I0J-75000D01*
G01*
G37*
G36*
G01*
X59090000Y-61666000D02*
X59090000Y-62991000D01*
G75*
G02*
X59015000Y-63066000I-75000J0D01*
G01*
X58865000Y-63066000D01*
G75*
G02*
X58790000Y-62991000I0J75000D01*
G01*
X58790000Y-61666000D01*
G75*
G02*
X58865000Y-61591000I75000J0D01*
G01*
X59015000Y-61591000D01*
G75*
G02*
X59090000Y-61666000I0J-75000D01*
G01*
G37*
G36*
G01*
X58590000Y-61666000D02*
X58590000Y-62991000D01*
G75*
G02*
X58515000Y-63066000I-75000J0D01*
G01*
X58365000Y-63066000D01*
G75*
G02*
X58290000Y-62991000I0J75000D01*
G01*
X58290000Y-61666000D01*
G75*
G02*
X58365000Y-61591000I75000J0D01*
G01*
X58515000Y-61591000D01*
G75*
G02*
X58590000Y-61666000I0J-75000D01*
G01*
G37*
G36*
G01*
X58090000Y-61666000D02*
X58090000Y-62991000D01*
G75*
G02*
X58015000Y-63066000I-75000J0D01*
G01*
X57865000Y-63066000D01*
G75*
G02*
X57790000Y-62991000I0J75000D01*
G01*
X57790000Y-61666000D01*
G75*
G02*
X57865000Y-61591000I75000J0D01*
G01*
X58015000Y-61591000D01*
G75*
G02*
X58090000Y-61666000I0J-75000D01*
G01*
G37*
G36*
G01*
X57590000Y-61666000D02*
X57590000Y-62991000D01*
G75*
G02*
X57515000Y-63066000I-75000J0D01*
G01*
X57365000Y-63066000D01*
G75*
G02*
X57290000Y-62991000I0J75000D01*
G01*
X57290000Y-61666000D01*
G75*
G02*
X57365000Y-61591000I75000J0D01*
G01*
X57515000Y-61591000D01*
G75*
G02*
X57590000Y-61666000I0J-75000D01*
G01*
G37*
G36*
G01*
X57090000Y-61666000D02*
X57090000Y-62991000D01*
G75*
G02*
X57015000Y-63066000I-75000J0D01*
G01*
X56865000Y-63066000D01*
G75*
G02*
X56790000Y-62991000I0J75000D01*
G01*
X56790000Y-61666000D01*
G75*
G02*
X56865000Y-61591000I75000J0D01*
G01*
X57015000Y-61591000D01*
G75*
G02*
X57090000Y-61666000I0J-75000D01*
G01*
G37*
G36*
G01*
X56265000Y-60841000D02*
X56265000Y-60991000D01*
G75*
G02*
X56190000Y-61066000I-75000J0D01*
G01*
X54865000Y-61066000D01*
G75*
G02*
X54790000Y-60991000I0J75000D01*
G01*
X54790000Y-60841000D01*
G75*
G02*
X54865000Y-60766000I75000J0D01*
G01*
X56190000Y-60766000D01*
G75*
G02*
X56265000Y-60841000I0J-75000D01*
G01*
G37*
G36*
G01*
X56265000Y-60341000D02*
X56265000Y-60491000D01*
G75*
G02*
X56190000Y-60566000I-75000J0D01*
G01*
X54865000Y-60566000D01*
G75*
G02*
X54790000Y-60491000I0J75000D01*
G01*
X54790000Y-60341000D01*
G75*
G02*
X54865000Y-60266000I75000J0D01*
G01*
X56190000Y-60266000D01*
G75*
G02*
X56265000Y-60341000I0J-75000D01*
G01*
G37*
G36*
G01*
X56265000Y-59841000D02*
X56265000Y-59991000D01*
G75*
G02*
X56190000Y-60066000I-75000J0D01*
G01*
X54865000Y-60066000D01*
G75*
G02*
X54790000Y-59991000I0J75000D01*
G01*
X54790000Y-59841000D01*
G75*
G02*
X54865000Y-59766000I75000J0D01*
G01*
X56190000Y-59766000D01*
G75*
G02*
X56265000Y-59841000I0J-75000D01*
G01*
G37*
G36*
G01*
X56265000Y-59341000D02*
X56265000Y-59491000D01*
G75*
G02*
X56190000Y-59566000I-75000J0D01*
G01*
X54865000Y-59566000D01*
G75*
G02*
X54790000Y-59491000I0J75000D01*
G01*
X54790000Y-59341000D01*
G75*
G02*
X54865000Y-59266000I75000J0D01*
G01*
X56190000Y-59266000D01*
G75*
G02*
X56265000Y-59341000I0J-75000D01*
G01*
G37*
G36*
G01*
X56265000Y-58841000D02*
X56265000Y-58991000D01*
G75*
G02*
X56190000Y-59066000I-75000J0D01*
G01*
X54865000Y-59066000D01*
G75*
G02*
X54790000Y-58991000I0J75000D01*
G01*
X54790000Y-58841000D01*
G75*
G02*
X54865000Y-58766000I75000J0D01*
G01*
X56190000Y-58766000D01*
G75*
G02*
X56265000Y-58841000I0J-75000D01*
G01*
G37*
G36*
G01*
X56265000Y-58341000D02*
X56265000Y-58491000D01*
G75*
G02*
X56190000Y-58566000I-75000J0D01*
G01*
X54865000Y-58566000D01*
G75*
G02*
X54790000Y-58491000I0J75000D01*
G01*
X54790000Y-58341000D01*
G75*
G02*
X54865000Y-58266000I75000J0D01*
G01*
X56190000Y-58266000D01*
G75*
G02*
X56265000Y-58341000I0J-75000D01*
G01*
G37*
G36*
G01*
X56265000Y-57841000D02*
X56265000Y-57991000D01*
G75*
G02*
X56190000Y-58066000I-75000J0D01*
G01*
X54865000Y-58066000D01*
G75*
G02*
X54790000Y-57991000I0J75000D01*
G01*
X54790000Y-57841000D01*
G75*
G02*
X54865000Y-57766000I75000J0D01*
G01*
X56190000Y-57766000D01*
G75*
G02*
X56265000Y-57841000I0J-75000D01*
G01*
G37*
G36*
G01*
X56265000Y-57341000D02*
X56265000Y-57491000D01*
G75*
G02*
X56190000Y-57566000I-75000J0D01*
G01*
X54865000Y-57566000D01*
G75*
G02*
X54790000Y-57491000I0J75000D01*
G01*
X54790000Y-57341000D01*
G75*
G02*
X54865000Y-57266000I75000J0D01*
G01*
X56190000Y-57266000D01*
G75*
G02*
X56265000Y-57341000I0J-75000D01*
G01*
G37*
G36*
G01*
X56265000Y-56841000D02*
X56265000Y-56991000D01*
G75*
G02*
X56190000Y-57066000I-75000J0D01*
G01*
X54865000Y-57066000D01*
G75*
G02*
X54790000Y-56991000I0J75000D01*
G01*
X54790000Y-56841000D01*
G75*
G02*
X54865000Y-56766000I75000J0D01*
G01*
X56190000Y-56766000D01*
G75*
G02*
X56265000Y-56841000I0J-75000D01*
G01*
G37*
G36*
G01*
X56265000Y-56341000D02*
X56265000Y-56491000D01*
G75*
G02*
X56190000Y-56566000I-75000J0D01*
G01*
X54865000Y-56566000D01*
G75*
G02*
X54790000Y-56491000I0J75000D01*
G01*
X54790000Y-56341000D01*
G75*
G02*
X54865000Y-56266000I75000J0D01*
G01*
X56190000Y-56266000D01*
G75*
G02*
X56265000Y-56341000I0J-75000D01*
G01*
G37*
G36*
G01*
X56265000Y-55841000D02*
X56265000Y-55991000D01*
G75*
G02*
X56190000Y-56066000I-75000J0D01*
G01*
X54865000Y-56066000D01*
G75*
G02*
X54790000Y-55991000I0J75000D01*
G01*
X54790000Y-55841000D01*
G75*
G02*
X54865000Y-55766000I75000J0D01*
G01*
X56190000Y-55766000D01*
G75*
G02*
X56265000Y-55841000I0J-75000D01*
G01*
G37*
G36*
G01*
X56265000Y-55341000D02*
X56265000Y-55491000D01*
G75*
G02*
X56190000Y-55566000I-75000J0D01*
G01*
X54865000Y-55566000D01*
G75*
G02*
X54790000Y-55491000I0J75000D01*
G01*
X54790000Y-55341000D01*
G75*
G02*
X54865000Y-55266000I75000J0D01*
G01*
X56190000Y-55266000D01*
G75*
G02*
X56265000Y-55341000I0J-75000D01*
G01*
G37*
G36*
G01*
X57090000Y-53341000D02*
X57090000Y-54666000D01*
G75*
G02*
X57015000Y-54741000I-75000J0D01*
G01*
X56865000Y-54741000D01*
G75*
G02*
X56790000Y-54666000I0J75000D01*
G01*
X56790000Y-53341000D01*
G75*
G02*
X56865000Y-53266000I75000J0D01*
G01*
X57015000Y-53266000D01*
G75*
G02*
X57090000Y-53341000I0J-75000D01*
G01*
G37*
G36*
G01*
X57590000Y-53341000D02*
X57590000Y-54666000D01*
G75*
G02*
X57515000Y-54741000I-75000J0D01*
G01*
X57365000Y-54741000D01*
G75*
G02*
X57290000Y-54666000I0J75000D01*
G01*
X57290000Y-53341000D01*
G75*
G02*
X57365000Y-53266000I75000J0D01*
G01*
X57515000Y-53266000D01*
G75*
G02*
X57590000Y-53341000I0J-75000D01*
G01*
G37*
G36*
G01*
X58090000Y-53341000D02*
X58090000Y-54666000D01*
G75*
G02*
X58015000Y-54741000I-75000J0D01*
G01*
X57865000Y-54741000D01*
G75*
G02*
X57790000Y-54666000I0J75000D01*
G01*
X57790000Y-53341000D01*
G75*
G02*
X57865000Y-53266000I75000J0D01*
G01*
X58015000Y-53266000D01*
G75*
G02*
X58090000Y-53341000I0J-75000D01*
G01*
G37*
G36*
G01*
X58590000Y-53341000D02*
X58590000Y-54666000D01*
G75*
G02*
X58515000Y-54741000I-75000J0D01*
G01*
X58365000Y-54741000D01*
G75*
G02*
X58290000Y-54666000I0J75000D01*
G01*
X58290000Y-53341000D01*
G75*
G02*
X58365000Y-53266000I75000J0D01*
G01*
X58515000Y-53266000D01*
G75*
G02*
X58590000Y-53341000I0J-75000D01*
G01*
G37*
G36*
G01*
X59090000Y-53341000D02*
X59090000Y-54666000D01*
G75*
G02*
X59015000Y-54741000I-75000J0D01*
G01*
X58865000Y-54741000D01*
G75*
G02*
X58790000Y-54666000I0J75000D01*
G01*
X58790000Y-53341000D01*
G75*
G02*
X58865000Y-53266000I75000J0D01*
G01*
X59015000Y-53266000D01*
G75*
G02*
X59090000Y-53341000I0J-75000D01*
G01*
G37*
G36*
G01*
X59590000Y-53341000D02*
X59590000Y-54666000D01*
G75*
G02*
X59515000Y-54741000I-75000J0D01*
G01*
X59365000Y-54741000D01*
G75*
G02*
X59290000Y-54666000I0J75000D01*
G01*
X59290000Y-53341000D01*
G75*
G02*
X59365000Y-53266000I75000J0D01*
G01*
X59515000Y-53266000D01*
G75*
G02*
X59590000Y-53341000I0J-75000D01*
G01*
G37*
G36*
G01*
X60090000Y-53341000D02*
X60090000Y-54666000D01*
G75*
G02*
X60015000Y-54741000I-75000J0D01*
G01*
X59865000Y-54741000D01*
G75*
G02*
X59790000Y-54666000I0J75000D01*
G01*
X59790000Y-53341000D01*
G75*
G02*
X59865000Y-53266000I75000J0D01*
G01*
X60015000Y-53266000D01*
G75*
G02*
X60090000Y-53341000I0J-75000D01*
G01*
G37*
G36*
G01*
X60590000Y-53341000D02*
X60590000Y-54666000D01*
G75*
G02*
X60515000Y-54741000I-75000J0D01*
G01*
X60365000Y-54741000D01*
G75*
G02*
X60290000Y-54666000I0J75000D01*
G01*
X60290000Y-53341000D01*
G75*
G02*
X60365000Y-53266000I75000J0D01*
G01*
X60515000Y-53266000D01*
G75*
G02*
X60590000Y-53341000I0J-75000D01*
G01*
G37*
G36*
G01*
X61090000Y-53341000D02*
X61090000Y-54666000D01*
G75*
G02*
X61015000Y-54741000I-75000J0D01*
G01*
X60865000Y-54741000D01*
G75*
G02*
X60790000Y-54666000I0J75000D01*
G01*
X60790000Y-53341000D01*
G75*
G02*
X60865000Y-53266000I75000J0D01*
G01*
X61015000Y-53266000D01*
G75*
G02*
X61090000Y-53341000I0J-75000D01*
G01*
G37*
G36*
G01*
X61590000Y-53341000D02*
X61590000Y-54666000D01*
G75*
G02*
X61515000Y-54741000I-75000J0D01*
G01*
X61365000Y-54741000D01*
G75*
G02*
X61290000Y-54666000I0J75000D01*
G01*
X61290000Y-53341000D01*
G75*
G02*
X61365000Y-53266000I75000J0D01*
G01*
X61515000Y-53266000D01*
G75*
G02*
X61590000Y-53341000I0J-75000D01*
G01*
G37*
G36*
G01*
X62090000Y-53341000D02*
X62090000Y-54666000D01*
G75*
G02*
X62015000Y-54741000I-75000J0D01*
G01*
X61865000Y-54741000D01*
G75*
G02*
X61790000Y-54666000I0J75000D01*
G01*
X61790000Y-53341000D01*
G75*
G02*
X61865000Y-53266000I75000J0D01*
G01*
X62015000Y-53266000D01*
G75*
G02*
X62090000Y-53341000I0J-75000D01*
G01*
G37*
G36*
G01*
X62590000Y-53341000D02*
X62590000Y-54666000D01*
G75*
G02*
X62515000Y-54741000I-75000J0D01*
G01*
X62365000Y-54741000D01*
G75*
G02*
X62290000Y-54666000I0J75000D01*
G01*
X62290000Y-53341000D01*
G75*
G02*
X62365000Y-53266000I75000J0D01*
G01*
X62515000Y-53266000D01*
G75*
G02*
X62590000Y-53341000I0J-75000D01*
G01*
G37*
G36*
G01*
X64590000Y-55341000D02*
X64590000Y-55491000D01*
G75*
G02*
X64515000Y-55566000I-75000J0D01*
G01*
X63190000Y-55566000D01*
G75*
G02*
X63115000Y-55491000I0J75000D01*
G01*
X63115000Y-55341000D01*
G75*
G02*
X63190000Y-55266000I75000J0D01*
G01*
X64515000Y-55266000D01*
G75*
G02*
X64590000Y-55341000I0J-75000D01*
G01*
G37*
G36*
G01*
X64590000Y-55841000D02*
X64590000Y-55991000D01*
G75*
G02*
X64515000Y-56066000I-75000J0D01*
G01*
X63190000Y-56066000D01*
G75*
G02*
X63115000Y-55991000I0J75000D01*
G01*
X63115000Y-55841000D01*
G75*
G02*
X63190000Y-55766000I75000J0D01*
G01*
X64515000Y-55766000D01*
G75*
G02*
X64590000Y-55841000I0J-75000D01*
G01*
G37*
G36*
G01*
X64590000Y-56341000D02*
X64590000Y-56491000D01*
G75*
G02*
X64515000Y-56566000I-75000J0D01*
G01*
X63190000Y-56566000D01*
G75*
G02*
X63115000Y-56491000I0J75000D01*
G01*
X63115000Y-56341000D01*
G75*
G02*
X63190000Y-56266000I75000J0D01*
G01*
X64515000Y-56266000D01*
G75*
G02*
X64590000Y-56341000I0J-75000D01*
G01*
G37*
G36*
G01*
X64590000Y-56841000D02*
X64590000Y-56991000D01*
G75*
G02*
X64515000Y-57066000I-75000J0D01*
G01*
X63190000Y-57066000D01*
G75*
G02*
X63115000Y-56991000I0J75000D01*
G01*
X63115000Y-56841000D01*
G75*
G02*
X63190000Y-56766000I75000J0D01*
G01*
X64515000Y-56766000D01*
G75*
G02*
X64590000Y-56841000I0J-75000D01*
G01*
G37*
G36*
G01*
X64590000Y-57341000D02*
X64590000Y-57491000D01*
G75*
G02*
X64515000Y-57566000I-75000J0D01*
G01*
X63190000Y-57566000D01*
G75*
G02*
X63115000Y-57491000I0J75000D01*
G01*
X63115000Y-57341000D01*
G75*
G02*
X63190000Y-57266000I75000J0D01*
G01*
X64515000Y-57266000D01*
G75*
G02*
X64590000Y-57341000I0J-75000D01*
G01*
G37*
G36*
G01*
X64590000Y-57841000D02*
X64590000Y-57991000D01*
G75*
G02*
X64515000Y-58066000I-75000J0D01*
G01*
X63190000Y-58066000D01*
G75*
G02*
X63115000Y-57991000I0J75000D01*
G01*
X63115000Y-57841000D01*
G75*
G02*
X63190000Y-57766000I75000J0D01*
G01*
X64515000Y-57766000D01*
G75*
G02*
X64590000Y-57841000I0J-75000D01*
G01*
G37*
G36*
G01*
X64590000Y-58341000D02*
X64590000Y-58491000D01*
G75*
G02*
X64515000Y-58566000I-75000J0D01*
G01*
X63190000Y-58566000D01*
G75*
G02*
X63115000Y-58491000I0J75000D01*
G01*
X63115000Y-58341000D01*
G75*
G02*
X63190000Y-58266000I75000J0D01*
G01*
X64515000Y-58266000D01*
G75*
G02*
X64590000Y-58341000I0J-75000D01*
G01*
G37*
G36*
G01*
X64590000Y-58841000D02*
X64590000Y-58991000D01*
G75*
G02*
X64515000Y-59066000I-75000J0D01*
G01*
X63190000Y-59066000D01*
G75*
G02*
X63115000Y-58991000I0J75000D01*
G01*
X63115000Y-58841000D01*
G75*
G02*
X63190000Y-58766000I75000J0D01*
G01*
X64515000Y-58766000D01*
G75*
G02*
X64590000Y-58841000I0J-75000D01*
G01*
G37*
G36*
G01*
X64590000Y-59341000D02*
X64590000Y-59491000D01*
G75*
G02*
X64515000Y-59566000I-75000J0D01*
G01*
X63190000Y-59566000D01*
G75*
G02*
X63115000Y-59491000I0J75000D01*
G01*
X63115000Y-59341000D01*
G75*
G02*
X63190000Y-59266000I75000J0D01*
G01*
X64515000Y-59266000D01*
G75*
G02*
X64590000Y-59341000I0J-75000D01*
G01*
G37*
G36*
G01*
X64590000Y-59841000D02*
X64590000Y-59991000D01*
G75*
G02*
X64515000Y-60066000I-75000J0D01*
G01*
X63190000Y-60066000D01*
G75*
G02*
X63115000Y-59991000I0J75000D01*
G01*
X63115000Y-59841000D01*
G75*
G02*
X63190000Y-59766000I75000J0D01*
G01*
X64515000Y-59766000D01*
G75*
G02*
X64590000Y-59841000I0J-75000D01*
G01*
G37*
G36*
G01*
X64590000Y-60341000D02*
X64590000Y-60491000D01*
G75*
G02*
X64515000Y-60566000I-75000J0D01*
G01*
X63190000Y-60566000D01*
G75*
G02*
X63115000Y-60491000I0J75000D01*
G01*
X63115000Y-60341000D01*
G75*
G02*
X63190000Y-60266000I75000J0D01*
G01*
X64515000Y-60266000D01*
G75*
G02*
X64590000Y-60341000I0J-75000D01*
G01*
G37*
G36*
G01*
X64590000Y-60841000D02*
X64590000Y-60991000D01*
G75*
G02*
X64515000Y-61066000I-75000J0D01*
G01*
X63190000Y-61066000D01*
G75*
G02*
X63115000Y-60991000I0J75000D01*
G01*
X63115000Y-60841000D01*
G75*
G02*
X63190000Y-60766000I75000J0D01*
G01*
X64515000Y-60766000D01*
G75*
G02*
X64590000Y-60841000I0J-75000D01*
G01*
G37*
%TD*%
D21*
%TO.C,STLINK_CONN1*%
X82296000Y-52294000D03*
X79756000Y-52294000D03*
X82296000Y-54834000D03*
X79756000Y-54834000D03*
X82296000Y-57374000D03*
X79756000Y-57374000D03*
X82296000Y-59914000D03*
X79756000Y-59914000D03*
X82296000Y-62454000D03*
D22*
X79756000Y-62454000D03*
%TD*%
%TO.C,R13*%
G36*
G01*
X49892000Y-55429999D02*
X49892000Y-56330001D01*
G75*
G02*
X49642001Y-56580000I-249999J0D01*
G01*
X48941999Y-56580000D01*
G75*
G02*
X48692000Y-56330001I0J249999D01*
G01*
X48692000Y-55429999D01*
G75*
G02*
X48941999Y-55180000I249999J0D01*
G01*
X49642001Y-55180000D01*
G75*
G02*
X49892000Y-55429999I0J-249999D01*
G01*
G37*
G36*
G01*
X51892000Y-55429999D02*
X51892000Y-56330001D01*
G75*
G02*
X51642001Y-56580000I-249999J0D01*
G01*
X50941999Y-56580000D01*
G75*
G02*
X50692000Y-56330001I0J249999D01*
G01*
X50692000Y-55429999D01*
G75*
G02*
X50941999Y-55180000I249999J0D01*
G01*
X51642001Y-55180000D01*
G75*
G02*
X51892000Y-55429999I0J-249999D01*
G01*
G37*
%TD*%
%TO.C,R10*%
G36*
G01*
X49892000Y-59747999D02*
X49892000Y-60648001D01*
G75*
G02*
X49642001Y-60898000I-249999J0D01*
G01*
X48941999Y-60898000D01*
G75*
G02*
X48692000Y-60648001I0J249999D01*
G01*
X48692000Y-59747999D01*
G75*
G02*
X48941999Y-59498000I249999J0D01*
G01*
X49642001Y-59498000D01*
G75*
G02*
X49892000Y-59747999I0J-249999D01*
G01*
G37*
G36*
G01*
X51892000Y-59747999D02*
X51892000Y-60648001D01*
G75*
G02*
X51642001Y-60898000I-249999J0D01*
G01*
X50941999Y-60898000D01*
G75*
G02*
X50692000Y-60648001I0J249999D01*
G01*
X50692000Y-59747999D01*
G75*
G02*
X50941999Y-59498000I249999J0D01*
G01*
X51642001Y-59498000D01*
G75*
G02*
X51892000Y-59747999I0J-249999D01*
G01*
G37*
%TD*%
%TO.C,R9*%
G36*
G01*
X49892000Y-57715999D02*
X49892000Y-58616001D01*
G75*
G02*
X49642001Y-58866000I-249999J0D01*
G01*
X48941999Y-58866000D01*
G75*
G02*
X48692000Y-58616001I0J249999D01*
G01*
X48692000Y-57715999D01*
G75*
G02*
X48941999Y-57466000I249999J0D01*
G01*
X49642001Y-57466000D01*
G75*
G02*
X49892000Y-57715999I0J-249999D01*
G01*
G37*
G36*
G01*
X51892000Y-57715999D02*
X51892000Y-58616001D01*
G75*
G02*
X51642001Y-58866000I-249999J0D01*
G01*
X50941999Y-58866000D01*
G75*
G02*
X50692000Y-58616001I0J249999D01*
G01*
X50692000Y-57715999D01*
G75*
G02*
X50941999Y-57466000I249999J0D01*
G01*
X51642001Y-57466000D01*
G75*
G02*
X51892000Y-57715999I0J-249999D01*
G01*
G37*
%TD*%
%TO.C,R8*%
G36*
G01*
X75584000Y-63645201D02*
X75584000Y-62745199D01*
G75*
G02*
X75833999Y-62495200I249999J0D01*
G01*
X76534001Y-62495200D01*
G75*
G02*
X76784000Y-62745199I0J-249999D01*
G01*
X76784000Y-63645201D01*
G75*
G02*
X76534001Y-63895200I-249999J0D01*
G01*
X75833999Y-63895200D01*
G75*
G02*
X75584000Y-63645201I0J249999D01*
G01*
G37*
G36*
G01*
X73584000Y-63645201D02*
X73584000Y-62745199D01*
G75*
G02*
X73833999Y-62495200I249999J0D01*
G01*
X74534001Y-62495200D01*
G75*
G02*
X74784000Y-62745199I0J-249999D01*
G01*
X74784000Y-63645201D01*
G75*
G02*
X74534001Y-63895200I-249999J0D01*
G01*
X73833999Y-63895200D01*
G75*
G02*
X73584000Y-63645201I0J249999D01*
G01*
G37*
%TD*%
%TO.C,R7*%
G36*
G01*
X75584000Y-61156001D02*
X75584000Y-60255999D01*
G75*
G02*
X75833999Y-60006000I249999J0D01*
G01*
X76534001Y-60006000D01*
G75*
G02*
X76784000Y-60255999I0J-249999D01*
G01*
X76784000Y-61156001D01*
G75*
G02*
X76534001Y-61406000I-249999J0D01*
G01*
X75833999Y-61406000D01*
G75*
G02*
X75584000Y-61156001I0J249999D01*
G01*
G37*
G36*
G01*
X73584000Y-61156001D02*
X73584000Y-60255999D01*
G75*
G02*
X73833999Y-60006000I249999J0D01*
G01*
X74534001Y-60006000D01*
G75*
G02*
X74784000Y-60255999I0J-249999D01*
G01*
X74784000Y-61156001D01*
G75*
G02*
X74534001Y-61406000I-249999J0D01*
G01*
X73833999Y-61406000D01*
G75*
G02*
X73584000Y-61156001I0J249999D01*
G01*
G37*
%TD*%
%TO.C,R4*%
G36*
G01*
X71774000Y-58870001D02*
X71774000Y-57969999D01*
G75*
G02*
X72023999Y-57720000I249999J0D01*
G01*
X72724001Y-57720000D01*
G75*
G02*
X72974000Y-57969999I0J-249999D01*
G01*
X72974000Y-58870001D01*
G75*
G02*
X72724001Y-59120000I-249999J0D01*
G01*
X72023999Y-59120000D01*
G75*
G02*
X71774000Y-58870001I0J249999D01*
G01*
G37*
G36*
G01*
X69774000Y-58870001D02*
X69774000Y-57969999D01*
G75*
G02*
X70023999Y-57720000I249999J0D01*
G01*
X70724001Y-57720000D01*
G75*
G02*
X70974000Y-57969999I0J-249999D01*
G01*
X70974000Y-58870001D01*
G75*
G02*
X70724001Y-59120000I-249999J0D01*
G01*
X70023999Y-59120000D01*
G75*
G02*
X69774000Y-58870001I0J249999D01*
G01*
G37*
%TD*%
%TO.C,R3*%
G36*
G01*
X59528000Y-65589999D02*
X59528000Y-66490001D01*
G75*
G02*
X59278001Y-66740000I-249999J0D01*
G01*
X58577999Y-66740000D01*
G75*
G02*
X58328000Y-66490001I0J249999D01*
G01*
X58328000Y-65589999D01*
G75*
G02*
X58577999Y-65340000I249999J0D01*
G01*
X59278001Y-65340000D01*
G75*
G02*
X59528000Y-65589999I0J-249999D01*
G01*
G37*
G36*
G01*
X61528000Y-65589999D02*
X61528000Y-66490001D01*
G75*
G02*
X61278001Y-66740000I-249999J0D01*
G01*
X60577999Y-66740000D01*
G75*
G02*
X60328000Y-66490001I0J249999D01*
G01*
X60328000Y-65589999D01*
G75*
G02*
X60577999Y-65340000I249999J0D01*
G01*
X61278001Y-65340000D01*
G75*
G02*
X61528000Y-65589999I0J-249999D01*
G01*
G37*
%TD*%
%TO.C,R1*%
G36*
G01*
X70466000Y-62745199D02*
X70466000Y-63645201D01*
G75*
G02*
X70216001Y-63895200I-249999J0D01*
G01*
X69515999Y-63895200D01*
G75*
G02*
X69266000Y-63645201I0J249999D01*
G01*
X69266000Y-62745199D01*
G75*
G02*
X69515999Y-62495200I249999J0D01*
G01*
X70216001Y-62495200D01*
G75*
G02*
X70466000Y-62745199I0J-249999D01*
G01*
G37*
G36*
G01*
X72466000Y-62745199D02*
X72466000Y-63645201D01*
G75*
G02*
X72216001Y-63895200I-249999J0D01*
G01*
X71515999Y-63895200D01*
G75*
G02*
X71266000Y-63645201I0J249999D01*
G01*
X71266000Y-62745199D01*
G75*
G02*
X71515999Y-62495200I249999J0D01*
G01*
X72216001Y-62495200D01*
G75*
G02*
X72466000Y-62745199I0J-249999D01*
G01*
G37*
%TD*%
D21*
%TO.C,J4*%
X47752000Y-65786000D03*
D22*
X50292000Y-65786000D03*
%TD*%
D21*
%TO.C,J3*%
X50282000Y-49022000D03*
D22*
X47742000Y-49022000D03*
%TD*%
D21*
%TO.C,J2*%
X73690000Y-49276000D03*
X71150000Y-49276000D03*
D22*
X68610000Y-49276000D03*
%TD*%
D21*
%TO.C,J1*%
X68580000Y-66040000D03*
X71120000Y-66040000D03*
D22*
X73660000Y-66040000D03*
%TD*%
%TO.C,D7*%
G36*
G01*
X45904000Y-57899000D02*
X46420000Y-57899000D01*
G75*
G02*
X46462000Y-57941000I0J-42000D01*
G01*
X46462000Y-59217000D01*
G75*
G02*
X46420000Y-59259000I-42000J0D01*
G01*
X45904000Y-59259000D01*
G75*
G02*
X45862000Y-59217000I0J42000D01*
G01*
X45862000Y-57941000D01*
G75*
G02*
X45904000Y-57899000I42000J0D01*
G01*
G37*
G36*
G01*
X44954000Y-57899000D02*
X45470000Y-57899000D01*
G75*
G02*
X45512000Y-57941000I0J-42000D01*
G01*
X45512000Y-59217000D01*
G75*
G02*
X45470000Y-59259000I-42000J0D01*
G01*
X44954000Y-59259000D01*
G75*
G02*
X44912000Y-59217000I0J42000D01*
G01*
X44912000Y-57941000D01*
G75*
G02*
X44954000Y-57899000I42000J0D01*
G01*
G37*
G36*
G01*
X44004000Y-57899000D02*
X44520000Y-57899000D01*
G75*
G02*
X44562000Y-57941000I0J-42000D01*
G01*
X44562000Y-59217000D01*
G75*
G02*
X44520000Y-59259000I-42000J0D01*
G01*
X44004000Y-59259000D01*
G75*
G02*
X43962000Y-59217000I0J42000D01*
G01*
X43962000Y-57941000D01*
G75*
G02*
X44004000Y-57899000I42000J0D01*
G01*
G37*
G36*
G01*
X44004000Y-55549000D02*
X44520000Y-55549000D01*
G75*
G02*
X44562000Y-55591000I0J-42000D01*
G01*
X44562000Y-56867000D01*
G75*
G02*
X44520000Y-56909000I-42000J0D01*
G01*
X44004000Y-56909000D01*
G75*
G02*
X43962000Y-56867000I0J42000D01*
G01*
X43962000Y-55591000D01*
G75*
G02*
X44004000Y-55549000I42000J0D01*
G01*
G37*
G36*
G01*
X44954000Y-55549000D02*
X45470000Y-55549000D01*
G75*
G02*
X45512000Y-55591000I0J-42000D01*
G01*
X45512000Y-56867000D01*
G75*
G02*
X45470000Y-56909000I-42000J0D01*
G01*
X44954000Y-56909000D01*
G75*
G02*
X44912000Y-56867000I0J42000D01*
G01*
X44912000Y-55591000D01*
G75*
G02*
X44954000Y-55549000I42000J0D01*
G01*
G37*
G36*
G01*
X45904000Y-55549000D02*
X46420000Y-55549000D01*
G75*
G02*
X46462000Y-55591000I0J-42000D01*
G01*
X46462000Y-56867000D01*
G75*
G02*
X46420000Y-56909000I-42000J0D01*
G01*
X45904000Y-56909000D01*
G75*
G02*
X45862000Y-56867000I0J42000D01*
G01*
X45862000Y-55591000D01*
G75*
G02*
X45904000Y-55549000I42000J0D01*
G01*
G37*
%TD*%
%TO.C,D6*%
G36*
G01*
X59594000Y-48530500D02*
X59594000Y-49005500D01*
G75*
G02*
X59356500Y-49243000I-237500J0D01*
G01*
X58781500Y-49243000D01*
G75*
G02*
X58544000Y-49005500I0J237500D01*
G01*
X58544000Y-48530500D01*
G75*
G02*
X58781500Y-48293000I237500J0D01*
G01*
X59356500Y-48293000D01*
G75*
G02*
X59594000Y-48530500I0J-237500D01*
G01*
G37*
G36*
G01*
X61344000Y-48530500D02*
X61344000Y-49005500D01*
G75*
G02*
X61106500Y-49243000I-237500J0D01*
G01*
X60531500Y-49243000D01*
G75*
G02*
X60294000Y-49005500I0J237500D01*
G01*
X60294000Y-48530500D01*
G75*
G02*
X60531500Y-48293000I237500J0D01*
G01*
X61106500Y-48293000D01*
G75*
G02*
X61344000Y-48530500I0J-237500D01*
G01*
G37*
%TD*%
%TO.C,D5*%
G36*
G01*
X55863000Y-49132500D02*
X55863000Y-48657500D01*
G75*
G02*
X56100500Y-48420000I237500J0D01*
G01*
X56675500Y-48420000D01*
G75*
G02*
X56913000Y-48657500I0J-237500D01*
G01*
X56913000Y-49132500D01*
G75*
G02*
X56675500Y-49370000I-237500J0D01*
G01*
X56100500Y-49370000D01*
G75*
G02*
X55863000Y-49132500I0J237500D01*
G01*
G37*
G36*
G01*
X54113000Y-49132500D02*
X54113000Y-48657500D01*
G75*
G02*
X54350500Y-48420000I237500J0D01*
G01*
X54925500Y-48420000D01*
G75*
G02*
X55163000Y-48657500I0J-237500D01*
G01*
X55163000Y-49132500D01*
G75*
G02*
X54925500Y-49370000I-237500J0D01*
G01*
X54350500Y-49370000D01*
G75*
G02*
X54113000Y-49132500I0J237500D01*
G01*
G37*
%TD*%
%TO.C,C7*%
G36*
G01*
X54922000Y-65565000D02*
X54922000Y-66515000D01*
G75*
G02*
X54672000Y-66765000I-250000J0D01*
G01*
X53997000Y-66765000D01*
G75*
G02*
X53747000Y-66515000I0J250000D01*
G01*
X53747000Y-65565000D01*
G75*
G02*
X53997000Y-65315000I250000J0D01*
G01*
X54672000Y-65315000D01*
G75*
G02*
X54922000Y-65565000I0J-250000D01*
G01*
G37*
G36*
G01*
X56997000Y-65565000D02*
X56997000Y-66515000D01*
G75*
G02*
X56747000Y-66765000I-250000J0D01*
G01*
X56072000Y-66765000D01*
G75*
G02*
X55822000Y-66515000I0J250000D01*
G01*
X55822000Y-65565000D01*
G75*
G02*
X56072000Y-65315000I250000J0D01*
G01*
X56747000Y-65315000D01*
G75*
G02*
X56997000Y-65565000I0J-250000D01*
G01*
G37*
%TD*%
%TO.C,C4*%
G36*
G01*
X66998000Y-54069000D02*
X66998000Y-53119000D01*
G75*
G02*
X67248000Y-52869000I250000J0D01*
G01*
X67923000Y-52869000D01*
G75*
G02*
X68173000Y-53119000I0J-250000D01*
G01*
X68173000Y-54069000D01*
G75*
G02*
X67923000Y-54319000I-250000J0D01*
G01*
X67248000Y-54319000D01*
G75*
G02*
X66998000Y-54069000I0J250000D01*
G01*
G37*
G36*
G01*
X64923000Y-54069000D02*
X64923000Y-53119000D01*
G75*
G02*
X65173000Y-52869000I250000J0D01*
G01*
X65848000Y-52869000D01*
G75*
G02*
X66098000Y-53119000I0J-250000D01*
G01*
X66098000Y-54069000D01*
G75*
G02*
X65848000Y-54319000I-250000J0D01*
G01*
X65173000Y-54319000D01*
G75*
G02*
X64923000Y-54069000I0J250000D01*
G01*
G37*
%TD*%
%TO.C,C1*%
G36*
G01*
X66976500Y-63213000D02*
X66976500Y-62263000D01*
G75*
G02*
X67226500Y-62013000I250000J0D01*
G01*
X67901500Y-62013000D01*
G75*
G02*
X68151500Y-62263000I0J-250000D01*
G01*
X68151500Y-63213000D01*
G75*
G02*
X67901500Y-63463000I-250000J0D01*
G01*
X67226500Y-63463000D01*
G75*
G02*
X66976500Y-63213000I0J250000D01*
G01*
G37*
G36*
G01*
X64901500Y-63213000D02*
X64901500Y-62263000D01*
G75*
G02*
X65151500Y-62013000I250000J0D01*
G01*
X65826500Y-62013000D01*
G75*
G02*
X66076500Y-62263000I0J-250000D01*
G01*
X66076500Y-63213000D01*
G75*
G02*
X65826500Y-63463000I-250000J0D01*
G01*
X65151500Y-63463000D01*
G75*
G02*
X64901500Y-63213000I0J250000D01*
G01*
G37*
%TD*%
M02*
