M48
METRIC,TZ
T1C0.400
T2C0.900
T3C1.000
%
G90
G05
T1
X45629Y-54979
X45974Y-62738
X47244Y-53188
X52680Y-60198
X52934Y-58674
X54372Y-63053
X54610Y-50292
X56388Y-48895
X56896Y-60198
X57658Y-64770
X57912Y-49784
X57912Y-56148
X58679Y-58610
X58928Y-64516
X60944Y-48768
X61214Y-58166
X61722Y-52578
X61976Y-56896
X61976Y-59182
X61976Y-63754
X61976Y-64770
X63516Y-66040
X63754Y-53340
X63754Y-61722
X68834Y-54632
X69736Y-60134
X71882Y-60706
X73152Y-54610
X74184Y-60706
X74930Y-54610
X76962Y-54610
T3
X47742Y-49022
X47752Y-65786
X50282Y-49022
X50292Y-65786
X68580Y-66040
X68610Y-49276
X71120Y-66040
X71150Y-49276
X73660Y-66040
X73690Y-49276
X79756Y-52294
X79756Y-54834
X79756Y-57374
X79756Y-59914
X79756Y-62454
X82296Y-52294
X82296Y-54834
X82296Y-57374
X82296Y-59914
X82296Y-62454
T2
G00X38180Y-51704
M15
G01X36580Y-51704
M16
G05
G00X38180Y-63104
M15
G01X36580Y-63104
M16
G05
T0
M30
