%TF.GenerationSoftware,KiCad,Pcbnew,5.1.10*%
%TF.CreationDate,2021-10-08T14:45:48+03:00*%
%TF.ProjectId,Magma_STLink,4d61676d-615f-4535-944c-696e6b2e6b69,rev?*%
%TF.SameCoordinates,Original*%
%TF.FileFunction,Soldermask,Bot*%
%TF.FilePolarity,Negative*%
%FSLAX46Y46*%
G04 Gerber Fmt 4.6, Leading zero omitted, Abs format (unit mm)*
G04 Created by KiCad (PCBNEW 5.1.10) date 2021-10-08 14:45:48*
%MOMM*%
%LPD*%
G01*
G04 APERTURE LIST*
%TA.AperFunction,Profile*%
%ADD10C,0.120000*%
%TD*%
%TA.AperFunction,Profile*%
%ADD11C,0.050000*%
%TD*%
%ADD12C,1.100000*%
%ADD13O,3.500000X1.900000*%
%ADD14R,2.000000X1.500000*%
%ADD15R,2.000000X3.800000*%
%ADD16O,1.700000X1.700000*%
%ADD17R,1.700000X1.700000*%
%ADD18R,1.000000X1.000000*%
G04 APERTURE END LIST*
D10*
X44958000Y-64526800D02*
G75*
G03*
X44958000Y-64526800I-2500000J0D01*
G01*
X44958000Y-50302800D02*
G75*
G03*
X44958000Y-50302800I-2500000J0D01*
G01*
D11*
X85598000Y-52324000D02*
X85598000Y-62484000D01*
X80264000Y-46990000D02*
G75*
G02*
X85598000Y-52324000I0J-5334000D01*
G01*
X85598000Y-62484000D02*
G75*
G02*
X80264000Y-67818000I-5334000J0D01*
G01*
X43180000Y-67818000D02*
X39116000Y-67818000D01*
X34290000Y-51816000D02*
X34290000Y-62992000D01*
X39116000Y-67818000D02*
G75*
G02*
X34290000Y-62992000I0J4826000D01*
G01*
X34290000Y-51816000D02*
G75*
G02*
X39116000Y-46990000I4826000J0D01*
G01*
X43180000Y-46990000D02*
X39116000Y-46990000D01*
X43180000Y-67818000D02*
X80264000Y-67818000D01*
X43180000Y-46990000D02*
X80264000Y-46990000D01*
%TO.C,R14*%
G36*
G01*
X54972000Y-62541999D02*
X54972000Y-63442001D01*
G75*
G02*
X54722001Y-63692000I-249999J0D01*
G01*
X54021999Y-63692000D01*
G75*
G02*
X53772000Y-63442001I0J249999D01*
G01*
X53772000Y-62541999D01*
G75*
G02*
X54021999Y-62292000I249999J0D01*
G01*
X54722001Y-62292000D01*
G75*
G02*
X54972000Y-62541999I0J-249999D01*
G01*
G37*
G36*
G01*
X56972000Y-62541999D02*
X56972000Y-63442001D01*
G75*
G02*
X56722001Y-63692000I-249999J0D01*
G01*
X56021999Y-63692000D01*
G75*
G02*
X55772000Y-63442001I0J249999D01*
G01*
X55772000Y-62541999D01*
G75*
G02*
X56021999Y-62292000I249999J0D01*
G01*
X56722001Y-62292000D01*
G75*
G02*
X56972000Y-62541999I0J-249999D01*
G01*
G37*
%TD*%
D12*
%TO.C,J5*%
X37380000Y-55104000D03*
X37380000Y-59704000D03*
D13*
X37380000Y-51704000D03*
X37380000Y-63104000D03*
%TD*%
D14*
%TO.C,U1*%
X57912000Y-58448000D03*
X57912000Y-53848000D03*
X57912000Y-56148000D03*
D15*
X64212000Y-56148000D03*
%TD*%
D16*
%TO.C,STLINK_CONN1*%
X82296000Y-52294000D03*
X79756000Y-52294000D03*
X82296000Y-54834000D03*
X79756000Y-54834000D03*
X82296000Y-57374000D03*
X79756000Y-57374000D03*
X82296000Y-59914000D03*
X79756000Y-59914000D03*
X82296000Y-62454000D03*
D17*
X79756000Y-62454000D03*
%TD*%
%TO.C,R12*%
G36*
G01*
X59544000Y-48317999D02*
X59544000Y-49218001D01*
G75*
G02*
X59294001Y-49468000I-249999J0D01*
G01*
X58593999Y-49468000D01*
G75*
G02*
X58344000Y-49218001I0J249999D01*
G01*
X58344000Y-48317999D01*
G75*
G02*
X58593999Y-48068000I249999J0D01*
G01*
X59294001Y-48068000D01*
G75*
G02*
X59544000Y-48317999I0J-249999D01*
G01*
G37*
G36*
G01*
X61544000Y-48317999D02*
X61544000Y-49218001D01*
G75*
G02*
X61294001Y-49468000I-249999J0D01*
G01*
X60593999Y-49468000D01*
G75*
G02*
X60344000Y-49218001I0J249999D01*
G01*
X60344000Y-48317999D01*
G75*
G02*
X60593999Y-48068000I249999J0D01*
G01*
X61294001Y-48068000D01*
G75*
G02*
X61544000Y-48317999I0J-249999D01*
G01*
G37*
%TD*%
%TO.C,R11*%
G36*
G01*
X55226000Y-48317999D02*
X55226000Y-49218001D01*
G75*
G02*
X54976001Y-49468000I-249999J0D01*
G01*
X54275999Y-49468000D01*
G75*
G02*
X54026000Y-49218001I0J249999D01*
G01*
X54026000Y-48317999D01*
G75*
G02*
X54275999Y-48068000I249999J0D01*
G01*
X54976001Y-48068000D01*
G75*
G02*
X55226000Y-48317999I0J-249999D01*
G01*
G37*
G36*
G01*
X57226000Y-48317999D02*
X57226000Y-49218001D01*
G75*
G02*
X56976001Y-49468000I-249999J0D01*
G01*
X56275999Y-49468000D01*
G75*
G02*
X56026000Y-49218001I0J249999D01*
G01*
X56026000Y-48317999D01*
G75*
G02*
X56275999Y-48068000I249999J0D01*
G01*
X56976001Y-48068000D01*
G75*
G02*
X57226000Y-48317999I0J-249999D01*
G01*
G37*
%TD*%
%TO.C,R6*%
G36*
G01*
X59544000Y-65589999D02*
X59544000Y-66490001D01*
G75*
G02*
X59294001Y-66740000I-249999J0D01*
G01*
X58593999Y-66740000D01*
G75*
G02*
X58344000Y-66490001I0J249999D01*
G01*
X58344000Y-65589999D01*
G75*
G02*
X58593999Y-65340000I249999J0D01*
G01*
X59294001Y-65340000D01*
G75*
G02*
X59544000Y-65589999I0J-249999D01*
G01*
G37*
G36*
G01*
X61544000Y-65589999D02*
X61544000Y-66490001D01*
G75*
G02*
X61294001Y-66740000I-249999J0D01*
G01*
X60593999Y-66740000D01*
G75*
G02*
X60344000Y-66490001I0J249999D01*
G01*
X60344000Y-65589999D01*
G75*
G02*
X60593999Y-65340000I249999J0D01*
G01*
X61294001Y-65340000D01*
G75*
G02*
X61544000Y-65589999I0J-249999D01*
G01*
G37*
%TD*%
%TO.C,R5*%
G36*
G01*
X64916000Y-66490001D02*
X64916000Y-65589999D01*
G75*
G02*
X65165999Y-65340000I249999J0D01*
G01*
X65866001Y-65340000D01*
G75*
G02*
X66116000Y-65589999I0J-249999D01*
G01*
X66116000Y-66490001D01*
G75*
G02*
X65866001Y-66740000I-249999J0D01*
G01*
X65165999Y-66740000D01*
G75*
G02*
X64916000Y-66490001I0J249999D01*
G01*
G37*
G36*
G01*
X62916000Y-66490001D02*
X62916000Y-65589999D01*
G75*
G02*
X63165999Y-65340000I249999J0D01*
G01*
X63866001Y-65340000D01*
G75*
G02*
X64116000Y-65589999I0J-249999D01*
G01*
X64116000Y-66490001D01*
G75*
G02*
X63866001Y-66740000I-249999J0D01*
G01*
X63165999Y-66740000D01*
G75*
G02*
X62916000Y-66490001I0J249999D01*
G01*
G37*
%TD*%
%TO.C,R2*%
G36*
G01*
X64370000Y-48825999D02*
X64370000Y-49726001D01*
G75*
G02*
X64120001Y-49976000I-249999J0D01*
G01*
X63419999Y-49976000D01*
G75*
G02*
X63170000Y-49726001I0J249999D01*
G01*
X63170000Y-48825999D01*
G75*
G02*
X63419999Y-48576000I249999J0D01*
G01*
X64120001Y-48576000D01*
G75*
G02*
X64370000Y-48825999I0J-249999D01*
G01*
G37*
G36*
G01*
X66370000Y-48825999D02*
X66370000Y-49726001D01*
G75*
G02*
X66120001Y-49976000I-249999J0D01*
G01*
X65419999Y-49976000D01*
G75*
G02*
X65170000Y-49726001I0J249999D01*
G01*
X65170000Y-48825999D01*
G75*
G02*
X65419999Y-48576000I249999J0D01*
G01*
X66120001Y-48576000D01*
G75*
G02*
X66370000Y-48825999I0J-249999D01*
G01*
G37*
%TD*%
D16*
%TO.C,J4*%
X47752000Y-65786000D03*
D17*
X50292000Y-65786000D03*
%TD*%
D16*
%TO.C,J3*%
X50282000Y-49022000D03*
D17*
X47742000Y-49022000D03*
%TD*%
D16*
%TO.C,J2*%
X73690000Y-49276000D03*
X71150000Y-49276000D03*
D17*
X68610000Y-49276000D03*
%TD*%
D16*
%TO.C,J1*%
X68580000Y-66040000D03*
X71120000Y-66040000D03*
D17*
X73660000Y-66040000D03*
%TD*%
%TO.C,F1*%
G36*
G01*
X49835000Y-63934001D02*
X49835000Y-61033999D01*
G75*
G02*
X50084999Y-60784000I249999J0D01*
G01*
X50885001Y-60784000D01*
G75*
G02*
X51135000Y-61033999I0J-249999D01*
G01*
X51135000Y-63934001D01*
G75*
G02*
X50885001Y-64184000I-249999J0D01*
G01*
X50084999Y-64184000D01*
G75*
G02*
X49835000Y-63934001I0J249999D01*
G01*
G37*
G36*
G01*
X45385000Y-63934001D02*
X45385000Y-61033999D01*
G75*
G02*
X45634999Y-60784000I249999J0D01*
G01*
X46435001Y-60784000D01*
G75*
G02*
X46685000Y-61033999I0J-249999D01*
G01*
X46685000Y-63934001D01*
G75*
G02*
X46435001Y-64184000I-249999J0D01*
G01*
X45634999Y-64184000D01*
G75*
G02*
X45385000Y-63934001I0J249999D01*
G01*
G37*
%TD*%
D18*
%TO.C,D4*%
X74168000Y-62633600D03*
X74168000Y-60133600D03*
%TD*%
%TO.C,D3*%
X69736400Y-62633600D03*
X69736400Y-60133600D03*
%TD*%
%TO.C,D2*%
X71882000Y-62633600D03*
X71882000Y-60133600D03*
%TD*%
%TO.C,D1*%
X76454000Y-62633600D03*
X76454000Y-60133600D03*
%TD*%
%TO.C,C13*%
G36*
G01*
X74455000Y-54044000D02*
X75405000Y-54044000D01*
G75*
G02*
X75655000Y-54294000I0J-250000D01*
G01*
X75655000Y-54969000D01*
G75*
G02*
X75405000Y-55219000I-250000J0D01*
G01*
X74455000Y-55219000D01*
G75*
G02*
X74205000Y-54969000I0J250000D01*
G01*
X74205000Y-54294000D01*
G75*
G02*
X74455000Y-54044000I250000J0D01*
G01*
G37*
G36*
G01*
X74455000Y-51969000D02*
X75405000Y-51969000D01*
G75*
G02*
X75655000Y-52219000I0J-250000D01*
G01*
X75655000Y-52894000D01*
G75*
G02*
X75405000Y-53144000I-250000J0D01*
G01*
X74455000Y-53144000D01*
G75*
G02*
X74205000Y-52894000I0J250000D01*
G01*
X74205000Y-52219000D01*
G75*
G02*
X74455000Y-51969000I250000J0D01*
G01*
G37*
%TD*%
%TO.C,C12*%
G36*
G01*
X72423000Y-54044000D02*
X73373000Y-54044000D01*
G75*
G02*
X73623000Y-54294000I0J-250000D01*
G01*
X73623000Y-54969000D01*
G75*
G02*
X73373000Y-55219000I-250000J0D01*
G01*
X72423000Y-55219000D01*
G75*
G02*
X72173000Y-54969000I0J250000D01*
G01*
X72173000Y-54294000D01*
G75*
G02*
X72423000Y-54044000I250000J0D01*
G01*
G37*
G36*
G01*
X72423000Y-51969000D02*
X73373000Y-51969000D01*
G75*
G02*
X73623000Y-52219000I0J-250000D01*
G01*
X73623000Y-52894000D01*
G75*
G02*
X73373000Y-53144000I-250000J0D01*
G01*
X72423000Y-53144000D01*
G75*
G02*
X72173000Y-52894000I0J250000D01*
G01*
X72173000Y-52219000D01*
G75*
G02*
X72423000Y-51969000I250000J0D01*
G01*
G37*
%TD*%
%TO.C,C11*%
G36*
G01*
X66327000Y-54044000D02*
X67277000Y-54044000D01*
G75*
G02*
X67527000Y-54294000I0J-250000D01*
G01*
X67527000Y-54969000D01*
G75*
G02*
X67277000Y-55219000I-250000J0D01*
G01*
X66327000Y-55219000D01*
G75*
G02*
X66077000Y-54969000I0J250000D01*
G01*
X66077000Y-54294000D01*
G75*
G02*
X66327000Y-54044000I250000J0D01*
G01*
G37*
G36*
G01*
X66327000Y-51969000D02*
X67277000Y-51969000D01*
G75*
G02*
X67527000Y-52219000I0J-250000D01*
G01*
X67527000Y-52894000D01*
G75*
G02*
X67277000Y-53144000I-250000J0D01*
G01*
X66327000Y-53144000D01*
G75*
G02*
X66077000Y-52894000I0J250000D01*
G01*
X66077000Y-52219000D01*
G75*
G02*
X66327000Y-51969000I250000J0D01*
G01*
G37*
%TD*%
%TO.C,C10*%
G36*
G01*
X76487000Y-54044000D02*
X77437000Y-54044000D01*
G75*
G02*
X77687000Y-54294000I0J-250000D01*
G01*
X77687000Y-54969000D01*
G75*
G02*
X77437000Y-55219000I-250000J0D01*
G01*
X76487000Y-55219000D01*
G75*
G02*
X76237000Y-54969000I0J250000D01*
G01*
X76237000Y-54294000D01*
G75*
G02*
X76487000Y-54044000I250000J0D01*
G01*
G37*
G36*
G01*
X76487000Y-51969000D02*
X77437000Y-51969000D01*
G75*
G02*
X77687000Y-52219000I0J-250000D01*
G01*
X77687000Y-52894000D01*
G75*
G02*
X77437000Y-53144000I-250000J0D01*
G01*
X76487000Y-53144000D01*
G75*
G02*
X76237000Y-52894000I0J250000D01*
G01*
X76237000Y-52219000D01*
G75*
G02*
X76487000Y-51969000I250000J0D01*
G01*
G37*
%TD*%
%TO.C,C9*%
G36*
G01*
X54922000Y-65565000D02*
X54922000Y-66515000D01*
G75*
G02*
X54672000Y-66765000I-250000J0D01*
G01*
X53997000Y-66765000D01*
G75*
G02*
X53747000Y-66515000I0J250000D01*
G01*
X53747000Y-65565000D01*
G75*
G02*
X53997000Y-65315000I250000J0D01*
G01*
X54672000Y-65315000D01*
G75*
G02*
X54922000Y-65565000I0J-250000D01*
G01*
G37*
G36*
G01*
X56997000Y-65565000D02*
X56997000Y-66515000D01*
G75*
G02*
X56747000Y-66765000I-250000J0D01*
G01*
X56072000Y-66765000D01*
G75*
G02*
X55822000Y-66515000I0J250000D01*
G01*
X55822000Y-65565000D01*
G75*
G02*
X56072000Y-65315000I250000J0D01*
G01*
X56747000Y-65315000D01*
G75*
G02*
X56997000Y-65565000I0J-250000D01*
G01*
G37*
%TD*%
%TO.C,C8*%
G36*
G01*
X68359000Y-54044000D02*
X69309000Y-54044000D01*
G75*
G02*
X69559000Y-54294000I0J-250000D01*
G01*
X69559000Y-54969000D01*
G75*
G02*
X69309000Y-55219000I-250000J0D01*
G01*
X68359000Y-55219000D01*
G75*
G02*
X68109000Y-54969000I0J250000D01*
G01*
X68109000Y-54294000D01*
G75*
G02*
X68359000Y-54044000I250000J0D01*
G01*
G37*
G36*
G01*
X68359000Y-51969000D02*
X69309000Y-51969000D01*
G75*
G02*
X69559000Y-52219000I0J-250000D01*
G01*
X69559000Y-52894000D01*
G75*
G02*
X69309000Y-53144000I-250000J0D01*
G01*
X68359000Y-53144000D01*
G75*
G02*
X68109000Y-52894000I0J250000D01*
G01*
X68109000Y-52219000D01*
G75*
G02*
X68359000Y-51969000I250000J0D01*
G01*
G37*
%TD*%
%TO.C,C6*%
G36*
G01*
X70391000Y-54044000D02*
X71341000Y-54044000D01*
G75*
G02*
X71591000Y-54294000I0J-250000D01*
G01*
X71591000Y-54969000D01*
G75*
G02*
X71341000Y-55219000I-250000J0D01*
G01*
X70391000Y-55219000D01*
G75*
G02*
X70141000Y-54969000I0J250000D01*
G01*
X70141000Y-54294000D01*
G75*
G02*
X70391000Y-54044000I250000J0D01*
G01*
G37*
G36*
G01*
X70391000Y-51969000D02*
X71341000Y-51969000D01*
G75*
G02*
X71591000Y-52219000I0J-250000D01*
G01*
X71591000Y-52894000D01*
G75*
G02*
X71341000Y-53144000I-250000J0D01*
G01*
X70391000Y-53144000D01*
G75*
G02*
X70141000Y-52894000I0J250000D01*
G01*
X70141000Y-52219000D01*
G75*
G02*
X70391000Y-51969000I250000J0D01*
G01*
G37*
%TD*%
%TO.C,C5*%
G36*
G01*
X54643000Y-58616000D02*
X55593000Y-58616000D01*
G75*
G02*
X55843000Y-58866000I0J-250000D01*
G01*
X55843000Y-59541000D01*
G75*
G02*
X55593000Y-59791000I-250000J0D01*
G01*
X54643000Y-59791000D01*
G75*
G02*
X54393000Y-59541000I0J250000D01*
G01*
X54393000Y-58866000D01*
G75*
G02*
X54643000Y-58616000I250000J0D01*
G01*
G37*
G36*
G01*
X54643000Y-56541000D02*
X55593000Y-56541000D01*
G75*
G02*
X55843000Y-56791000I0J-250000D01*
G01*
X55843000Y-57466000D01*
G75*
G02*
X55593000Y-57716000I-250000J0D01*
G01*
X54643000Y-57716000D01*
G75*
G02*
X54393000Y-57466000I0J250000D01*
G01*
X54393000Y-56791000D01*
G75*
G02*
X54643000Y-56541000I250000J0D01*
G01*
G37*
%TD*%
%TO.C,C3*%
G36*
G01*
X46703000Y-55938000D02*
X45753000Y-55938000D01*
G75*
G02*
X45503000Y-55688000I0J250000D01*
G01*
X45503000Y-55013000D01*
G75*
G02*
X45753000Y-54763000I250000J0D01*
G01*
X46703000Y-54763000D01*
G75*
G02*
X46953000Y-55013000I0J-250000D01*
G01*
X46953000Y-55688000D01*
G75*
G02*
X46703000Y-55938000I-250000J0D01*
G01*
G37*
G36*
G01*
X46703000Y-58013000D02*
X45753000Y-58013000D01*
G75*
G02*
X45503000Y-57763000I0J250000D01*
G01*
X45503000Y-57088000D01*
G75*
G02*
X45753000Y-56838000I250000J0D01*
G01*
X46703000Y-56838000D01*
G75*
G02*
X46953000Y-57088000I0J-250000D01*
G01*
X46953000Y-57763000D01*
G75*
G02*
X46703000Y-58013000I-250000J0D01*
G01*
G37*
%TD*%
%TO.C,C2*%
G36*
G01*
X50767000Y-55938000D02*
X49817000Y-55938000D01*
G75*
G02*
X49567000Y-55688000I0J250000D01*
G01*
X49567000Y-55013000D01*
G75*
G02*
X49817000Y-54763000I250000J0D01*
G01*
X50767000Y-54763000D01*
G75*
G02*
X51017000Y-55013000I0J-250000D01*
G01*
X51017000Y-55688000D01*
G75*
G02*
X50767000Y-55938000I-250000J0D01*
G01*
G37*
G36*
G01*
X50767000Y-58013000D02*
X49817000Y-58013000D01*
G75*
G02*
X49567000Y-57763000I0J250000D01*
G01*
X49567000Y-57088000D01*
G75*
G02*
X49817000Y-56838000I250000J0D01*
G01*
X50767000Y-56838000D01*
G75*
G02*
X51017000Y-57088000I0J-250000D01*
G01*
X51017000Y-57763000D01*
G75*
G02*
X50767000Y-58013000I-250000J0D01*
G01*
G37*
%TD*%
M02*
