<svg height="266.746783" viewBox="0 0 13.882864 9.84885" width="374.88737" xmlns="http://www.w3.org/2000/svg" xmlns:xlink="http://www.w3.org/1999/xlink"><clipPath id="a"><path d="m514.153 48.724h38.603v27.168h-38.603z"/></clipPath><clipPath id="b"><path d="m518.495 75.5525h33.92v-12.6036h-33.92z"/></clipPath><clipPath id="c"><path d="m518.495 62.949h33.919v12.604h-33.919z"/></clipPath><linearGradient id="d"><stop offset="0" stop-color="#5da1c2"/><stop offset=".386505" stop-color="#3882b9"/><stop offset=".993866" stop-color="#234964"/><stop offset="1" stop-color="#234964"/></linearGradient><radialGradient id="e" cx="0" cy="0" gradientTransform="matrix(-18.021488 -12.828243 -12.643636 17.762147 540.63649 74.206114)" gradientUnits="userSpaceOnUse" r="1" spreadMethod="pad" xlink:href="#d"/><linearGradient id="f"><stop offset="0" stop-color="#5da1c2"/><stop offset=".136459" stop-color="#1e4965"/><stop offset=".361282" stop-color="#3882b9"/><stop offset=".445206" stop-color="#5da1c2"/><stop offset=".540161" stop-color="#3882b9"/><stop offset=".64389" stop-color="#1e4965"/><stop offset=".710846" stop-color="#306187"/><stop offset="1" stop-color="#306187"/></linearGradient><linearGradient id="g" gradientTransform="matrix(-.5807224 -13.454826 -13.454826 .5807224 533.97677 69.263261)" gradientUnits="userSpaceOnUse" spreadMethod="pad" x1="0" x2="1" xlink:href="#f" y1="0" y2="0"/><radialGradient id="h" cx="0" cy="0" gradientTransform="matrix(-18.020771 -12.827732 -12.64313 17.76144 540.57983 74.206195)" gradientUnits="userSpaceOnUse" r="1" spreadMethod="pad" xlink:href="#d"/><linearGradient id="i" gradientTransform="matrix(-8.6542234 -15.882794 -15.882794 8.6542234 548.22799 69.707334)" gradientUnits="userSpaceOnUse" spreadMethod="pad" x1="0" x2="1" y1="0" y2="0"><stop offset="0" stop-color="#5da1c2"/><stop offset=".230087" stop-color="#1e4965"/><stop offset=".361282" stop-color="#3882b9"/><stop offset=".445206" stop-color="#5da1c2"/><stop offset=".540161" stop-color="#3882b9"/><stop offset=".64389" stop-color="#1e4965"/><stop offset=".710846" stop-color="#306187"/><stop offset="1" stop-color="#306187"/></linearGradient><radialGradient id="j" cx="0" cy="0" gradientTransform="matrix(-19.202389 -13.668844 -13.47214 18.926054 538.76804 74.207416)" gradientUnits="userSpaceOnUse" r="1" spreadMethod="pad" xlink:href="#d"/><linearGradient id="k" gradientTransform="matrix(-.6360994 -21.642665 -21.642665 .6360994 534.65147 75.92868)" gradientUnits="userSpaceOnUse" spreadMethod="pad" x1="0" x2="1" xlink:href="#f" y1="0" y2="0"/><clipPath id="l"><path d="m514.153 48.724h38.603v27.168h-38.603z"/></clipPath><g clip-path="url(#l)" transform="matrix(.35277777 0 0 -.35277777 -181.249457 26.905302)"><path d="m0 0-26.132-.003v-.002c-2.058 0-3.917-1.209-4.739-3.084l-6.607-15.908c-.033-.077-.051-.158-.051-.241 0-.335.276-.608.615-.608l26.345.002.277.019c1.904.174 3.56 1.364 4.301 3.133l6.558 15.849c.032.073.047.152.047.234 0 .336-.275.609-.614.609" fill="#fff" transform="translate(552.142 75.8922)"/><g fill="#0f1f47"><path d="m0 0c-.317.456-.824.507-1.031.507-.912 0-1.457-.721-1.457-1.418 0-.801.64-1.427 1.457-1.427.205 0 .71.05 1.031.503v-.443h.382v2.711h-.382zm-1.031-1.991c-.613 0-1.075.458-1.075 1.065 0 .713.541 1.085 1.075 1.085.579 0 1.051-.484 1.051-1.08 0-.6-.462-1.07-1.051-1.07" transform="translate(526.9684 52.0495)"/><path d="m0 0c0-.475-.129-.644-.273-.787-.141-.141-.321-.21-.553-.21-.257 0-.46.083-.605.247-.126.156-.187.383-.187.691v1.492h-.381v-1.497c0-.383.08-.677.239-.872.122-.153.405-.408.934-.408.53 0 .769.304.846.44v-.374h.362v2.711h-.382z" transform="translate(530.0918 51.0505)"/><path d="m0 0c-.327.465-.82.517-1.021.517-.682 0-1.418-.549-1.418-1.437 0-.87.736-1.408 1.418-1.408.337 0 .801.138 1.021.516v-.179c0-.721-.511-.977-.948-.977-.649 0-.904.463-.984.662l-.005.013h-.401l.007-.026c.271-.925 1.131-.997 1.388-.997.073 0 .726.014 1.076.502.248.333.248.697.248.989v2.268h-.381zm-1.021-1.981c-.572 0-1.036.48-1.036 1.071 0 .595.464 1.08 1.036 1.08.573 0 1.041-.485 1.041-1.08 0-.432-.331-1.071-1.041-1.071" transform="translate(533.3408 52.0399)"/><path d="m0 0c-.239 0-.689-.104-.899-.49-.211.386-.661.49-.9.49-.244 0-.551-.105-.708-.33v.262h-.382v-2.714h.382v1.569c0 .278.048.42.119.548.121.204.33.317.589.317s.469-.113.589-.317c.072-.128.12-.27.12-.548v-1.569h.381v1.569c0 .277.048.42.12.548.121.204.33.317.589.317s.468-.113.589-.317c.072-.128.12-.271.12-.548v-1.569h.381v1.609c0 .926-.685 1.173-1.09 1.173" transform="translate(537.1886 52.5527)"/><path d="m0 0c-.776-.015-1.408-.655-1.408-1.428 0-.781.634-1.417 1.413-1.417.599 0 1.136.382 1.334.951l.009.027h-.403l-.005-.013c-.102-.279-.41-.607-.94-.617-.51 0-.979.43-1.015.928h2.432l.001.018c.018.32-.052.608-.207.857-.191.332-.609.689-1.211.694m-1.012-1.222c.1.574.585.874 1.017.874.416 0 .909-.274 1.022-.874z" transform="translate(540.1345 52.555)"/><path d="m0 0c-.4 0-.68-.196-.811-.381v.313h-.382v-2.714h.382v1.491c-.005.308.082.563.243.719.214.208.489.224.568.224s.354-.016.568-.224c.16-.154.248-.41.248-.719v-1.491h.382v1.491c0 .411-.117.742-.338.958-.231.23-.496.333-.86.333" transform="translate(543.2586 52.5527)"/><path d="m0 0h-.382v-.946h-.562v-.348h.562v-2.366h.382v2.366h.64v.348h-.64z" transform="translate(545.8206 53.43)"/><path d="m0 0c-.776-.014-1.407-.655-1.407-1.427 0-.782.633-1.418 1.412-1.418.599 0 1.135.382 1.334.952l.009.026h-.403l-.005-.013c-.103-.278-.41-.607-.94-.617-.51 0-.98.431-1.015.928h2.432l.001.018c.018.32-.052.608-.208.857-.19.332-.608.689-1.21.694m-1.013-1.222c.101.574.586.875 1.018.875.416 0 .909-.274 1.022-.875z" transform="translate(548.0875 52.5558)"/><path d="m0 0v-1.374c-.343.463-.874.499-1.031.499-.912 0-1.457-.721-1.457-1.418 0-.8.64-1.427 1.457-1.427.328 0 .769.135 1.031.504v-.441h.382v3.657zm-1.031-3.373c-.613 0-1.075.458-1.075 1.066 0 .712.541 1.085 1.075 1.085.579 0 1.051-.485 1.051-1.081 0-.6-.462-1.07-1.051-1.07" transform="translate(552.3721 53.4288)"/></g><path d="m516.576 53.523h-.364v-.546h.364z" fill="#50ade5"/><path d="m0 0h-.792v-.343h.43v-2.972h-.46v-.342h1.247v.342h-.425z" fill="#50ade5" transform="translate(514.9742 53.4288)"/><path d="m0 0h-.792v-.343h.43v-2.027h-.44v-.343h1.232v.343h-.43z" fill="#50ade5" transform="translate(516.6622 52.4842)"/><path d="m0 0c-.237-.212-.246-.457-.256-.753v-.019h-.43v-.353h.435v-2.016h-.435v-.342h1.237v.342h-.44v2.016h.44v.353h-.44l.001.058c.004.196.008.365.173.488.088.072.201.112.346.123l.018.002v.327l-.021-.001c-.285-.018-.478-.088-.628-.225" fill="#50ade5" transform="translate(518.1571 53.2551)"/><path d="m0 0c-.753 0-1.365-.628-1.365-1.4 0-.756.621-1.371 1.385-1.371.546 0 1.042.32 1.264.815l.013.028h-.392l-.006-.01c-.182-.317-.506-.498-.889-.498-.528 0-.965.403-1.005.921h2.39v.12c0 .782-.613 1.395-1.395 1.395m-.993-1.206c.07.48.508.867.988.867.529 0 .966-.363 1.048-.867z" fill="#50ade5" transform="translate(520.5762 52.4845)"/><path d="m0 0c.259 0 .47.21.47.469 0 .26-.211.47-.47.47-.26 0-.47-.21-.47-.47 0-.259.21-.469.47-.469" fill="#50ade5" transform="translate(523.2094 49.6996)"/></g><path d="m526.01 75.551c.001 0 .002-.001.002-.001-1.983 0-3.685-1.187-4.426-2.876l-5.159-12.426c-.013-.033-.021-.067-.021-.105 0-.148.122-.269.273-.269l11.799.001c.839 0 1.204.807.55 1.452l-4.333 4.054c-2.277 2.233-1.301 7.41 3.429 7.41h23.098c.12 0 .222.076.259.182l.914 2.209c.013.03.02.065.02.101 0 .15-.122.27-.273.27z" fill="url(#k)" transform="matrix(.35277777 0 0 -.35277777 -181.249457 26.905302)"/><path d="m526.638 75.196.001-.001h-.606c-1.794 0-3.396-1.048-4.103-2.672l-5.081-12.239h11.629c.233 0 .41.089.474.239.066.161-.007.371-.19.552l-4.341 4.062c-1.287 1.261-1.658 3.404-.901 5.21.76 1.811 2.437 2.851 4.604 2.851h23.02l.829 1.999-.001.001z" fill="url(#j)" transform="matrix(.35277777 0 0 -.35277777 -181.249457 26.905302)"/><path d="m545.103 69.224c-.3 0-.556-.18-.664-.439l-4.97-12.009c-.02-.038-.032-.081-.032-.126 0-.147.124-.268.274-.268l1.656-.001-.001.002c2.011 0 3.746 1.218 4.47 2.946s.003-.002.006-.004l3.95 9.535c.012.031.019.065.019.099 0 .15-.123.27-.273.27z" fill="url(#i)" transform="matrix(.35277777 0 0 -.35277777 -181.249457 26.905302)"/><path d="m545.103 68.868c-.135 0-.254-.079-.305-.202l-4.94-11.933h.884l-.001.004h.604c1.78 0 3.37 1.031 4.085 2.634l3.937 9.501h-.001z" fill="url(#h)" transform="matrix(.35277777 0 0 -.35277777 -181.249457 26.905302)"/><path d="m527.969 69.229c-.682 0-1.279-.839-.556-1.504l4.155-3.866s1.682-1.551 1.321-3.77c-.318-1.953-1.651-3.149-2.615-3.579l-.003-.001c-.023-.012-.038-.035-.038-.06 0-.037.03-.068.069-.068h4.846c.3 0 .557.18.664.439l4.989 12.043c.012.031.018.063.018.096 0 .15-.122.27-.274.27z" fill="url(#g)" transform="matrix(.35277777 0 0 -.35277777 -181.249457 26.905302)"/><path d="m527.969 68.872c-.196 0-.398-.136-.47-.318-.086-.218.049-.404.18-.524l4.153-3.866c.075-.069 1.829-1.717 1.44-4.11-.236-1.45-1.029-2.602-1.907-3.321h3.758c.135 0 .255.08.306.201l4.946 11.938z" fill="url(#e)" transform="matrix(.35277777 0 0 -.35277777 -181.249457 26.905302)"/><g clip-path="url(#a)" transform="matrix(.35277777 0 0 -.35277777 -181.249457 26.905302)"><g clip-path="url(#b)" opacity=".100006"><g clip-path="url(#c)" fill="#fff"><path d="m0 0c0-.033-.006-.065-.02-.098l-2.333-5.633c-1.735-.182-3.541-.28-5.396-.28-.266 0-.531.004-.795.007-.351.576-.708.904-.708.904l-4.156 3.867c-.723.664-.124 1.503.557 1.503h12.576c.151 0 .275-.12.275-.27" transform="translate(540.8203 68.9595)"/><path d="m0 0c0-.036-.007-.068-.02-.101l-1.387-3.35c-1.803-.693-3.829-1.269-6.022-1.695l2.059 4.97c.108.26.363.439.664.439l4.434.007c.151 0 .272-.12.272-.27" transform="translate(549.8102 68.9595)"/><path d="m0 0c0-.036-.007-.071-.02-.101l-.912-2.208c-.039-.108-.141-.182-.262-.182h-23.098c-4.729 0-5.704-5.178-3.429-7.41l2.205-2.062c-3.089.378-5.936 1.034-8.403 1.909l3.089 7.445c.742 1.692 2.444 2.876 4.427 2.876v.003h26.132c.15 0 .271-.12.271-.27" transform="translate(552.4147 75.2824)"/></g></g></g></svg>