%TF.GenerationSoftware,KiCad,Pcbnew,5.1.10*%
%TF.CreationDate,2021-10-01T14:20:23+03:00*%
%TF.ProjectId,Magma_STLink,4d61676d-615f-4535-944c-696e6b2e6b69,rev?*%
%TF.SameCoordinates,Original*%
%TF.FileFunction,Soldermask,Top*%
%TF.FilePolarity,Negative*%
%FSLAX46Y46*%
G04 Gerber Fmt 4.6, Leading zero omitted, Abs format (unit mm)*
G04 Created by KiCad (PCBNEW 5.1.10) date 2021-10-01 14:20:23*
%MOMM*%
%LPD*%
G01*
G04 APERTURE LIST*
%TA.AperFunction,Profile*%
%ADD10C,0.120000*%
%TD*%
%TA.AperFunction,Profile*%
%ADD11C,0.050000*%
%TD*%
%ADD12C,1.100000*%
%ADD13O,3.500000X1.900000*%
%ADD14R,2.500000X1.100000*%
%ADD15R,2.400000X1.700000*%
%ADD16O,1.700000X1.700000*%
%ADD17R,1.700000X1.700000*%
G04 APERTURE END LIST*
D10*
X44958000Y-64526800D02*
G75*
G03*
X44958000Y-64526800I-2500000J0D01*
G01*
X44958000Y-50302800D02*
G75*
G03*
X44958000Y-50302800I-2500000J0D01*
G01*
D11*
X85598000Y-52324000D02*
X85598000Y-62484000D01*
X80264000Y-46990000D02*
G75*
G02*
X85598000Y-52324000I0J-5334000D01*
G01*
X85598000Y-62484000D02*
G75*
G02*
X80264000Y-67818000I-5334000J0D01*
G01*
X43180000Y-67818000D02*
X39116000Y-67818000D01*
X34290000Y-51816000D02*
X34290000Y-62992000D01*
X39116000Y-67818000D02*
G75*
G02*
X34290000Y-62992000I0J4826000D01*
G01*
X34290000Y-51816000D02*
G75*
G02*
X39116000Y-46990000I4826000J0D01*
G01*
X43180000Y-46990000D02*
X39116000Y-46990000D01*
X43180000Y-67818000D02*
X80264000Y-67818000D01*
X43180000Y-46990000D02*
X80264000Y-46990000D01*
D12*
%TO.C,J5*%
X37380000Y-55104000D03*
X37380000Y-59704000D03*
D13*
X37380000Y-51704000D03*
X37380000Y-63104000D03*
D14*
X40130000Y-53904000D03*
X40130000Y-60904000D03*
X40130000Y-56404000D03*
X40130000Y-58404000D03*
%TD*%
D15*
%TO.C,Y1*%
X67310000Y-56316000D03*
X67310000Y-60016000D03*
%TD*%
%TO.C,U2*%
G36*
G01*
X62590000Y-61666000D02*
X62590000Y-62991000D01*
G75*
G02*
X62515000Y-63066000I-75000J0D01*
G01*
X62365000Y-63066000D01*
G75*
G02*
X62290000Y-62991000I0J75000D01*
G01*
X62290000Y-61666000D01*
G75*
G02*
X62365000Y-61591000I75000J0D01*
G01*
X62515000Y-61591000D01*
G75*
G02*
X62590000Y-61666000I0J-75000D01*
G01*
G37*
G36*
G01*
X62090000Y-61666000D02*
X62090000Y-62991000D01*
G75*
G02*
X62015000Y-63066000I-75000J0D01*
G01*
X61865000Y-63066000D01*
G75*
G02*
X61790000Y-62991000I0J75000D01*
G01*
X61790000Y-61666000D01*
G75*
G02*
X61865000Y-61591000I75000J0D01*
G01*
X62015000Y-61591000D01*
G75*
G02*
X62090000Y-61666000I0J-75000D01*
G01*
G37*
G36*
G01*
X61590000Y-61666000D02*
X61590000Y-62991000D01*
G75*
G02*
X61515000Y-63066000I-75000J0D01*
G01*
X61365000Y-63066000D01*
G75*
G02*
X61290000Y-62991000I0J75000D01*
G01*
X61290000Y-61666000D01*
G75*
G02*
X61365000Y-61591000I75000J0D01*
G01*
X61515000Y-61591000D01*
G75*
G02*
X61590000Y-61666000I0J-75000D01*
G01*
G37*
G36*
G01*
X61090000Y-61666000D02*
X61090000Y-62991000D01*
G75*
G02*
X61015000Y-63066000I-75000J0D01*
G01*
X60865000Y-63066000D01*
G75*
G02*
X60790000Y-62991000I0J75000D01*
G01*
X60790000Y-61666000D01*
G75*
G02*
X60865000Y-61591000I75000J0D01*
G01*
X61015000Y-61591000D01*
G75*
G02*
X61090000Y-61666000I0J-75000D01*
G01*
G37*
G36*
G01*
X60590000Y-61666000D02*
X60590000Y-62991000D01*
G75*
G02*
X60515000Y-63066000I-75000J0D01*
G01*
X60365000Y-63066000D01*
G75*
G02*
X60290000Y-62991000I0J75000D01*
G01*
X60290000Y-61666000D01*
G75*
G02*
X60365000Y-61591000I75000J0D01*
G01*
X60515000Y-61591000D01*
G75*
G02*
X60590000Y-61666000I0J-75000D01*
G01*
G37*
G36*
G01*
X60090000Y-61666000D02*
X60090000Y-62991000D01*
G75*
G02*
X60015000Y-63066000I-75000J0D01*
G01*
X59865000Y-63066000D01*
G75*
G02*
X59790000Y-62991000I0J75000D01*
G01*
X59790000Y-61666000D01*
G75*
G02*
X59865000Y-61591000I75000J0D01*
G01*
X60015000Y-61591000D01*
G75*
G02*
X60090000Y-61666000I0J-75000D01*
G01*
G37*
G36*
G01*
X59590000Y-61666000D02*
X59590000Y-62991000D01*
G75*
G02*
X59515000Y-63066000I-75000J0D01*
G01*
X59365000Y-63066000D01*
G75*
G02*
X59290000Y-62991000I0J75000D01*
G01*
X59290000Y-61666000D01*
G75*
G02*
X59365000Y-61591000I75000J0D01*
G01*
X59515000Y-61591000D01*
G75*
G02*
X59590000Y-61666000I0J-75000D01*
G01*
G37*
G36*
G01*
X59090000Y-61666000D02*
X59090000Y-62991000D01*
G75*
G02*
X59015000Y-63066000I-75000J0D01*
G01*
X58865000Y-63066000D01*
G75*
G02*
X58790000Y-62991000I0J75000D01*
G01*
X58790000Y-61666000D01*
G75*
G02*
X58865000Y-61591000I75000J0D01*
G01*
X59015000Y-61591000D01*
G75*
G02*
X59090000Y-61666000I0J-75000D01*
G01*
G37*
G36*
G01*
X58590000Y-61666000D02*
X58590000Y-62991000D01*
G75*
G02*
X58515000Y-63066000I-75000J0D01*
G01*
X58365000Y-63066000D01*
G75*
G02*
X58290000Y-62991000I0J75000D01*
G01*
X58290000Y-61666000D01*
G75*
G02*
X58365000Y-61591000I75000J0D01*
G01*
X58515000Y-61591000D01*
G75*
G02*
X58590000Y-61666000I0J-75000D01*
G01*
G37*
G36*
G01*
X58090000Y-61666000D02*
X58090000Y-62991000D01*
G75*
G02*
X58015000Y-63066000I-75000J0D01*
G01*
X57865000Y-63066000D01*
G75*
G02*
X57790000Y-62991000I0J75000D01*
G01*
X57790000Y-61666000D01*
G75*
G02*
X57865000Y-61591000I75000J0D01*
G01*
X58015000Y-61591000D01*
G75*
G02*
X58090000Y-61666000I0J-75000D01*
G01*
G37*
G36*
G01*
X57590000Y-61666000D02*
X57590000Y-62991000D01*
G75*
G02*
X57515000Y-63066000I-75000J0D01*
G01*
X57365000Y-63066000D01*
G75*
G02*
X57290000Y-62991000I0J75000D01*
G01*
X57290000Y-61666000D01*
G75*
G02*
X57365000Y-61591000I75000J0D01*
G01*
X57515000Y-61591000D01*
G75*
G02*
X57590000Y-61666000I0J-75000D01*
G01*
G37*
G36*
G01*
X57090000Y-61666000D02*
X57090000Y-62991000D01*
G75*
G02*
X57015000Y-63066000I-75000J0D01*
G01*
X56865000Y-63066000D01*
G75*
G02*
X56790000Y-62991000I0J75000D01*
G01*
X56790000Y-61666000D01*
G75*
G02*
X56865000Y-61591000I75000J0D01*
G01*
X57015000Y-61591000D01*
G75*
G02*
X57090000Y-61666000I0J-75000D01*
G01*
G37*
G36*
G01*
X56265000Y-60841000D02*
X56265000Y-60991000D01*
G75*
G02*
X56190000Y-61066000I-75000J0D01*
G01*
X54865000Y-61066000D01*
G75*
G02*
X54790000Y-60991000I0J75000D01*
G01*
X54790000Y-60841000D01*
G75*
G02*
X54865000Y-60766000I75000J0D01*
G01*
X56190000Y-60766000D01*
G75*
G02*
X56265000Y-60841000I0J-75000D01*
G01*
G37*
G36*
G01*
X56265000Y-60341000D02*
X56265000Y-60491000D01*
G75*
G02*
X56190000Y-60566000I-75000J0D01*
G01*
X54865000Y-60566000D01*
G75*
G02*
X54790000Y-60491000I0J75000D01*
G01*
X54790000Y-60341000D01*
G75*
G02*
X54865000Y-60266000I75000J0D01*
G01*
X56190000Y-60266000D01*
G75*
G02*
X56265000Y-60341000I0J-75000D01*
G01*
G37*
G36*
G01*
X56265000Y-59841000D02*
X56265000Y-59991000D01*
G75*
G02*
X56190000Y-60066000I-75000J0D01*
G01*
X54865000Y-60066000D01*
G75*
G02*
X54790000Y-59991000I0J75000D01*
G01*
X54790000Y-59841000D01*
G75*
G02*
X54865000Y-59766000I75000J0D01*
G01*
X56190000Y-59766000D01*
G75*
G02*
X56265000Y-59841000I0J-75000D01*
G01*
G37*
G36*
G01*
X56265000Y-59341000D02*
X56265000Y-59491000D01*
G75*
G02*
X56190000Y-59566000I-75000J0D01*
G01*
X54865000Y-59566000D01*
G75*
G02*
X54790000Y-59491000I0J75000D01*
G01*
X54790000Y-59341000D01*
G75*
G02*
X54865000Y-59266000I75000J0D01*
G01*
X56190000Y-59266000D01*
G75*
G02*
X56265000Y-59341000I0J-75000D01*
G01*
G37*
G36*
G01*
X56265000Y-58841000D02*
X56265000Y-58991000D01*
G75*
G02*
X56190000Y-59066000I-75000J0D01*
G01*
X54865000Y-59066000D01*
G75*
G02*
X54790000Y-58991000I0J75000D01*
G01*
X54790000Y-58841000D01*
G75*
G02*
X54865000Y-58766000I75000J0D01*
G01*
X56190000Y-58766000D01*
G75*
G02*
X56265000Y-58841000I0J-75000D01*
G01*
G37*
G36*
G01*
X56265000Y-58341000D02*
X56265000Y-58491000D01*
G75*
G02*
X56190000Y-58566000I-75000J0D01*
G01*
X54865000Y-58566000D01*
G75*
G02*
X54790000Y-58491000I0J75000D01*
G01*
X54790000Y-58341000D01*
G75*
G02*
X54865000Y-58266000I75000J0D01*
G01*
X56190000Y-58266000D01*
G75*
G02*
X56265000Y-58341000I0J-75000D01*
G01*
G37*
G36*
G01*
X56265000Y-57841000D02*
X56265000Y-57991000D01*
G75*
G02*
X56190000Y-58066000I-75000J0D01*
G01*
X54865000Y-58066000D01*
G75*
G02*
X54790000Y-57991000I0J75000D01*
G01*
X54790000Y-57841000D01*
G75*
G02*
X54865000Y-57766000I75000J0D01*
G01*
X56190000Y-57766000D01*
G75*
G02*
X56265000Y-57841000I0J-75000D01*
G01*
G37*
G36*
G01*
X56265000Y-57341000D02*
X56265000Y-57491000D01*
G75*
G02*
X56190000Y-57566000I-75000J0D01*
G01*
X54865000Y-57566000D01*
G75*
G02*
X54790000Y-57491000I0J75000D01*
G01*
X54790000Y-57341000D01*
G75*
G02*
X54865000Y-57266000I75000J0D01*
G01*
X56190000Y-57266000D01*
G75*
G02*
X56265000Y-57341000I0J-75000D01*
G01*
G37*
G36*
G01*
X56265000Y-56841000D02*
X56265000Y-56991000D01*
G75*
G02*
X56190000Y-57066000I-75000J0D01*
G01*
X54865000Y-57066000D01*
G75*
G02*
X54790000Y-56991000I0J75000D01*
G01*
X54790000Y-56841000D01*
G75*
G02*
X54865000Y-56766000I75000J0D01*
G01*
X56190000Y-56766000D01*
G75*
G02*
X56265000Y-56841000I0J-75000D01*
G01*
G37*
G36*
G01*
X56265000Y-56341000D02*
X56265000Y-56491000D01*
G75*
G02*
X56190000Y-56566000I-75000J0D01*
G01*
X54865000Y-56566000D01*
G75*
G02*
X54790000Y-56491000I0J75000D01*
G01*
X54790000Y-56341000D01*
G75*
G02*
X54865000Y-56266000I75000J0D01*
G01*
X56190000Y-56266000D01*
G75*
G02*
X56265000Y-56341000I0J-75000D01*
G01*
G37*
G36*
G01*
X56265000Y-55841000D02*
X56265000Y-55991000D01*
G75*
G02*
X56190000Y-56066000I-75000J0D01*
G01*
X54865000Y-56066000D01*
G75*
G02*
X54790000Y-55991000I0J75000D01*
G01*
X54790000Y-55841000D01*
G75*
G02*
X54865000Y-55766000I75000J0D01*
G01*
X56190000Y-55766000D01*
G75*
G02*
X56265000Y-55841000I0J-75000D01*
G01*
G37*
G36*
G01*
X56265000Y-55341000D02*
X56265000Y-55491000D01*
G75*
G02*
X56190000Y-55566000I-75000J0D01*
G01*
X54865000Y-55566000D01*
G75*
G02*
X54790000Y-55491000I0J75000D01*
G01*
X54790000Y-55341000D01*
G75*
G02*
X54865000Y-55266000I75000J0D01*
G01*
X56190000Y-55266000D01*
G75*
G02*
X56265000Y-55341000I0J-75000D01*
G01*
G37*
G36*
G01*
X57090000Y-53341000D02*
X57090000Y-54666000D01*
G75*
G02*
X57015000Y-54741000I-75000J0D01*
G01*
X56865000Y-54741000D01*
G75*
G02*
X56790000Y-54666000I0J75000D01*
G01*
X56790000Y-53341000D01*
G75*
G02*
X56865000Y-53266000I75000J0D01*
G01*
X57015000Y-53266000D01*
G75*
G02*
X57090000Y-53341000I0J-75000D01*
G01*
G37*
G36*
G01*
X57590000Y-53341000D02*
X57590000Y-54666000D01*
G75*
G02*
X57515000Y-54741000I-75000J0D01*
G01*
X57365000Y-54741000D01*
G75*
G02*
X57290000Y-54666000I0J75000D01*
G01*
X57290000Y-53341000D01*
G75*
G02*
X57365000Y-53266000I75000J0D01*
G01*
X57515000Y-53266000D01*
G75*
G02*
X57590000Y-53341000I0J-75000D01*
G01*
G37*
G36*
G01*
X58090000Y-53341000D02*
X58090000Y-54666000D01*
G75*
G02*
X58015000Y-54741000I-75000J0D01*
G01*
X57865000Y-54741000D01*
G75*
G02*
X57790000Y-54666000I0J75000D01*
G01*
X57790000Y-53341000D01*
G75*
G02*
X57865000Y-53266000I75000J0D01*
G01*
X58015000Y-53266000D01*
G75*
G02*
X58090000Y-53341000I0J-75000D01*
G01*
G37*
G36*
G01*
X58590000Y-53341000D02*
X58590000Y-54666000D01*
G75*
G02*
X58515000Y-54741000I-75000J0D01*
G01*
X58365000Y-54741000D01*
G75*
G02*
X58290000Y-54666000I0J75000D01*
G01*
X58290000Y-53341000D01*
G75*
G02*
X58365000Y-53266000I75000J0D01*
G01*
X58515000Y-53266000D01*
G75*
G02*
X58590000Y-53341000I0J-75000D01*
G01*
G37*
G36*
G01*
X59090000Y-53341000D02*
X59090000Y-54666000D01*
G75*
G02*
X59015000Y-54741000I-75000J0D01*
G01*
X58865000Y-54741000D01*
G75*
G02*
X58790000Y-54666000I0J75000D01*
G01*
X58790000Y-53341000D01*
G75*
G02*
X58865000Y-53266000I75000J0D01*
G01*
X59015000Y-53266000D01*
G75*
G02*
X59090000Y-53341000I0J-75000D01*
G01*
G37*
G36*
G01*
X59590000Y-53341000D02*
X59590000Y-54666000D01*
G75*
G02*
X59515000Y-54741000I-75000J0D01*
G01*
X59365000Y-54741000D01*
G75*
G02*
X59290000Y-54666000I0J75000D01*
G01*
X59290000Y-53341000D01*
G75*
G02*
X59365000Y-53266000I75000J0D01*
G01*
X59515000Y-53266000D01*
G75*
G02*
X59590000Y-53341000I0J-75000D01*
G01*
G37*
G36*
G01*
X60090000Y-53341000D02*
X60090000Y-54666000D01*
G75*
G02*
X60015000Y-54741000I-75000J0D01*
G01*
X59865000Y-54741000D01*
G75*
G02*
X59790000Y-54666000I0J75000D01*
G01*
X59790000Y-53341000D01*
G75*
G02*
X59865000Y-53266000I75000J0D01*
G01*
X60015000Y-53266000D01*
G75*
G02*
X60090000Y-53341000I0J-75000D01*
G01*
G37*
G36*
G01*
X60590000Y-53341000D02*
X60590000Y-54666000D01*
G75*
G02*
X60515000Y-54741000I-75000J0D01*
G01*
X60365000Y-54741000D01*
G75*
G02*
X60290000Y-54666000I0J75000D01*
G01*
X60290000Y-53341000D01*
G75*
G02*
X60365000Y-53266000I75000J0D01*
G01*
X60515000Y-53266000D01*
G75*
G02*
X60590000Y-53341000I0J-75000D01*
G01*
G37*
G36*
G01*
X61090000Y-53341000D02*
X61090000Y-54666000D01*
G75*
G02*
X61015000Y-54741000I-75000J0D01*
G01*
X60865000Y-54741000D01*
G75*
G02*
X60790000Y-54666000I0J75000D01*
G01*
X60790000Y-53341000D01*
G75*
G02*
X60865000Y-53266000I75000J0D01*
G01*
X61015000Y-53266000D01*
G75*
G02*
X61090000Y-53341000I0J-75000D01*
G01*
G37*
G36*
G01*
X61590000Y-53341000D02*
X61590000Y-54666000D01*
G75*
G02*
X61515000Y-54741000I-75000J0D01*
G01*
X61365000Y-54741000D01*
G75*
G02*
X61290000Y-54666000I0J75000D01*
G01*
X61290000Y-53341000D01*
G75*
G02*
X61365000Y-53266000I75000J0D01*
G01*
X61515000Y-53266000D01*
G75*
G02*
X61590000Y-53341000I0J-75000D01*
G01*
G37*
G36*
G01*
X62090000Y-53341000D02*
X62090000Y-54666000D01*
G75*
G02*
X62015000Y-54741000I-75000J0D01*
G01*
X61865000Y-54741000D01*
G75*
G02*
X61790000Y-54666000I0J75000D01*
G01*
X61790000Y-53341000D01*
G75*
G02*
X61865000Y-53266000I75000J0D01*
G01*
X62015000Y-53266000D01*
G75*
G02*
X62090000Y-53341000I0J-75000D01*
G01*
G37*
G36*
G01*
X62590000Y-53341000D02*
X62590000Y-54666000D01*
G75*
G02*
X62515000Y-54741000I-75000J0D01*
G01*
X62365000Y-54741000D01*
G75*
G02*
X62290000Y-54666000I0J75000D01*
G01*
X62290000Y-53341000D01*
G75*
G02*
X62365000Y-53266000I75000J0D01*
G01*
X62515000Y-53266000D01*
G75*
G02*
X62590000Y-53341000I0J-75000D01*
G01*
G37*
G36*
G01*
X64590000Y-55341000D02*
X64590000Y-55491000D01*
G75*
G02*
X64515000Y-55566000I-75000J0D01*
G01*
X63190000Y-55566000D01*
G75*
G02*
X63115000Y-55491000I0J75000D01*
G01*
X63115000Y-55341000D01*
G75*
G02*
X63190000Y-55266000I75000J0D01*
G01*
X64515000Y-55266000D01*
G75*
G02*
X64590000Y-55341000I0J-75000D01*
G01*
G37*
G36*
G01*
X64590000Y-55841000D02*
X64590000Y-55991000D01*
G75*
G02*
X64515000Y-56066000I-75000J0D01*
G01*
X63190000Y-56066000D01*
G75*
G02*
X63115000Y-55991000I0J75000D01*
G01*
X63115000Y-55841000D01*
G75*
G02*
X63190000Y-55766000I75000J0D01*
G01*
X64515000Y-55766000D01*
G75*
G02*
X64590000Y-55841000I0J-75000D01*
G01*
G37*
G36*
G01*
X64590000Y-56341000D02*
X64590000Y-56491000D01*
G75*
G02*
X64515000Y-56566000I-75000J0D01*
G01*
X63190000Y-56566000D01*
G75*
G02*
X63115000Y-56491000I0J75000D01*
G01*
X63115000Y-56341000D01*
G75*
G02*
X63190000Y-56266000I75000J0D01*
G01*
X64515000Y-56266000D01*
G75*
G02*
X64590000Y-56341000I0J-75000D01*
G01*
G37*
G36*
G01*
X64590000Y-56841000D02*
X64590000Y-56991000D01*
G75*
G02*
X64515000Y-57066000I-75000J0D01*
G01*
X63190000Y-57066000D01*
G75*
G02*
X63115000Y-56991000I0J75000D01*
G01*
X63115000Y-56841000D01*
G75*
G02*
X63190000Y-56766000I75000J0D01*
G01*
X64515000Y-56766000D01*
G75*
G02*
X64590000Y-56841000I0J-75000D01*
G01*
G37*
G36*
G01*
X64590000Y-57341000D02*
X64590000Y-57491000D01*
G75*
G02*
X64515000Y-57566000I-75000J0D01*
G01*
X63190000Y-57566000D01*
G75*
G02*
X63115000Y-57491000I0J75000D01*
G01*
X63115000Y-57341000D01*
G75*
G02*
X63190000Y-57266000I75000J0D01*
G01*
X64515000Y-57266000D01*
G75*
G02*
X64590000Y-57341000I0J-75000D01*
G01*
G37*
G36*
G01*
X64590000Y-57841000D02*
X64590000Y-57991000D01*
G75*
G02*
X64515000Y-58066000I-75000J0D01*
G01*
X63190000Y-58066000D01*
G75*
G02*
X63115000Y-57991000I0J75000D01*
G01*
X63115000Y-57841000D01*
G75*
G02*
X63190000Y-57766000I75000J0D01*
G01*
X64515000Y-57766000D01*
G75*
G02*
X64590000Y-57841000I0J-75000D01*
G01*
G37*
G36*
G01*
X64590000Y-58341000D02*
X64590000Y-58491000D01*
G75*
G02*
X64515000Y-58566000I-75000J0D01*
G01*
X63190000Y-58566000D01*
G75*
G02*
X63115000Y-58491000I0J75000D01*
G01*
X63115000Y-58341000D01*
G75*
G02*
X63190000Y-58266000I75000J0D01*
G01*
X64515000Y-58266000D01*
G75*
G02*
X64590000Y-58341000I0J-75000D01*
G01*
G37*
G36*
G01*
X64590000Y-58841000D02*
X64590000Y-58991000D01*
G75*
G02*
X64515000Y-59066000I-75000J0D01*
G01*
X63190000Y-59066000D01*
G75*
G02*
X63115000Y-58991000I0J75000D01*
G01*
X63115000Y-58841000D01*
G75*
G02*
X63190000Y-58766000I75000J0D01*
G01*
X64515000Y-58766000D01*
G75*
G02*
X64590000Y-58841000I0J-75000D01*
G01*
G37*
G36*
G01*
X64590000Y-59341000D02*
X64590000Y-59491000D01*
G75*
G02*
X64515000Y-59566000I-75000J0D01*
G01*
X63190000Y-59566000D01*
G75*
G02*
X63115000Y-59491000I0J75000D01*
G01*
X63115000Y-59341000D01*
G75*
G02*
X63190000Y-59266000I75000J0D01*
G01*
X64515000Y-59266000D01*
G75*
G02*
X64590000Y-59341000I0J-75000D01*
G01*
G37*
G36*
G01*
X64590000Y-59841000D02*
X64590000Y-59991000D01*
G75*
G02*
X64515000Y-60066000I-75000J0D01*
G01*
X63190000Y-60066000D01*
G75*
G02*
X63115000Y-59991000I0J75000D01*
G01*
X63115000Y-59841000D01*
G75*
G02*
X63190000Y-59766000I75000J0D01*
G01*
X64515000Y-59766000D01*
G75*
G02*
X64590000Y-59841000I0J-75000D01*
G01*
G37*
G36*
G01*
X64590000Y-60341000D02*
X64590000Y-60491000D01*
G75*
G02*
X64515000Y-60566000I-75000J0D01*
G01*
X63190000Y-60566000D01*
G75*
G02*
X63115000Y-60491000I0J75000D01*
G01*
X63115000Y-60341000D01*
G75*
G02*
X63190000Y-60266000I75000J0D01*
G01*
X64515000Y-60266000D01*
G75*
G02*
X64590000Y-60341000I0J-75000D01*
G01*
G37*
G36*
G01*
X64590000Y-60841000D02*
X64590000Y-60991000D01*
G75*
G02*
X64515000Y-61066000I-75000J0D01*
G01*
X63190000Y-61066000D01*
G75*
G02*
X63115000Y-60991000I0J75000D01*
G01*
X63115000Y-60841000D01*
G75*
G02*
X63190000Y-60766000I75000J0D01*
G01*
X64515000Y-60766000D01*
G75*
G02*
X64590000Y-60841000I0J-75000D01*
G01*
G37*
%TD*%
D16*
%TO.C,STLINK_CONN1*%
X82296000Y-52294000D03*
X79756000Y-52294000D03*
X82296000Y-54834000D03*
X79756000Y-54834000D03*
X82296000Y-57374000D03*
X79756000Y-57374000D03*
X82296000Y-59914000D03*
X79756000Y-59914000D03*
X82296000Y-62454000D03*
D17*
X79756000Y-62454000D03*
%TD*%
%TO.C,R13*%
G36*
G01*
X49892000Y-55429999D02*
X49892000Y-56330001D01*
G75*
G02*
X49642001Y-56580000I-249999J0D01*
G01*
X48941999Y-56580000D01*
G75*
G02*
X48692000Y-56330001I0J249999D01*
G01*
X48692000Y-55429999D01*
G75*
G02*
X48941999Y-55180000I249999J0D01*
G01*
X49642001Y-55180000D01*
G75*
G02*
X49892000Y-55429999I0J-249999D01*
G01*
G37*
G36*
G01*
X51892000Y-55429999D02*
X51892000Y-56330001D01*
G75*
G02*
X51642001Y-56580000I-249999J0D01*
G01*
X50941999Y-56580000D01*
G75*
G02*
X50692000Y-56330001I0J249999D01*
G01*
X50692000Y-55429999D01*
G75*
G02*
X50941999Y-55180000I249999J0D01*
G01*
X51642001Y-55180000D01*
G75*
G02*
X51892000Y-55429999I0J-249999D01*
G01*
G37*
%TD*%
%TO.C,R10*%
G36*
G01*
X49892000Y-59747999D02*
X49892000Y-60648001D01*
G75*
G02*
X49642001Y-60898000I-249999J0D01*
G01*
X48941999Y-60898000D01*
G75*
G02*
X48692000Y-60648001I0J249999D01*
G01*
X48692000Y-59747999D01*
G75*
G02*
X48941999Y-59498000I249999J0D01*
G01*
X49642001Y-59498000D01*
G75*
G02*
X49892000Y-59747999I0J-249999D01*
G01*
G37*
G36*
G01*
X51892000Y-59747999D02*
X51892000Y-60648001D01*
G75*
G02*
X51642001Y-60898000I-249999J0D01*
G01*
X50941999Y-60898000D01*
G75*
G02*
X50692000Y-60648001I0J249999D01*
G01*
X50692000Y-59747999D01*
G75*
G02*
X50941999Y-59498000I249999J0D01*
G01*
X51642001Y-59498000D01*
G75*
G02*
X51892000Y-59747999I0J-249999D01*
G01*
G37*
%TD*%
%TO.C,R9*%
G36*
G01*
X49892000Y-57715999D02*
X49892000Y-58616001D01*
G75*
G02*
X49642001Y-58866000I-249999J0D01*
G01*
X48941999Y-58866000D01*
G75*
G02*
X48692000Y-58616001I0J249999D01*
G01*
X48692000Y-57715999D01*
G75*
G02*
X48941999Y-57466000I249999J0D01*
G01*
X49642001Y-57466000D01*
G75*
G02*
X49892000Y-57715999I0J-249999D01*
G01*
G37*
G36*
G01*
X51892000Y-57715999D02*
X51892000Y-58616001D01*
G75*
G02*
X51642001Y-58866000I-249999J0D01*
G01*
X50941999Y-58866000D01*
G75*
G02*
X50692000Y-58616001I0J249999D01*
G01*
X50692000Y-57715999D01*
G75*
G02*
X50941999Y-57466000I249999J0D01*
G01*
X51642001Y-57466000D01*
G75*
G02*
X51892000Y-57715999I0J-249999D01*
G01*
G37*
%TD*%
%TO.C,R8*%
G36*
G01*
X75584000Y-63645201D02*
X75584000Y-62745199D01*
G75*
G02*
X75833999Y-62495200I249999J0D01*
G01*
X76534001Y-62495200D01*
G75*
G02*
X76784000Y-62745199I0J-249999D01*
G01*
X76784000Y-63645201D01*
G75*
G02*
X76534001Y-63895200I-249999J0D01*
G01*
X75833999Y-63895200D01*
G75*
G02*
X75584000Y-63645201I0J249999D01*
G01*
G37*
G36*
G01*
X73584000Y-63645201D02*
X73584000Y-62745199D01*
G75*
G02*
X73833999Y-62495200I249999J0D01*
G01*
X74534001Y-62495200D01*
G75*
G02*
X74784000Y-62745199I0J-249999D01*
G01*
X74784000Y-63645201D01*
G75*
G02*
X74534001Y-63895200I-249999J0D01*
G01*
X73833999Y-63895200D01*
G75*
G02*
X73584000Y-63645201I0J249999D01*
G01*
G37*
%TD*%
%TO.C,R7*%
G36*
G01*
X75584000Y-61156001D02*
X75584000Y-60255999D01*
G75*
G02*
X75833999Y-60006000I249999J0D01*
G01*
X76534001Y-60006000D01*
G75*
G02*
X76784000Y-60255999I0J-249999D01*
G01*
X76784000Y-61156001D01*
G75*
G02*
X76534001Y-61406000I-249999J0D01*
G01*
X75833999Y-61406000D01*
G75*
G02*
X75584000Y-61156001I0J249999D01*
G01*
G37*
G36*
G01*
X73584000Y-61156001D02*
X73584000Y-60255999D01*
G75*
G02*
X73833999Y-60006000I249999J0D01*
G01*
X74534001Y-60006000D01*
G75*
G02*
X74784000Y-60255999I0J-249999D01*
G01*
X74784000Y-61156001D01*
G75*
G02*
X74534001Y-61406000I-249999J0D01*
G01*
X73833999Y-61406000D01*
G75*
G02*
X73584000Y-61156001I0J249999D01*
G01*
G37*
%TD*%
%TO.C,R4*%
G36*
G01*
X71774000Y-58870001D02*
X71774000Y-57969999D01*
G75*
G02*
X72023999Y-57720000I249999J0D01*
G01*
X72724001Y-57720000D01*
G75*
G02*
X72974000Y-57969999I0J-249999D01*
G01*
X72974000Y-58870001D01*
G75*
G02*
X72724001Y-59120000I-249999J0D01*
G01*
X72023999Y-59120000D01*
G75*
G02*
X71774000Y-58870001I0J249999D01*
G01*
G37*
G36*
G01*
X69774000Y-58870001D02*
X69774000Y-57969999D01*
G75*
G02*
X70023999Y-57720000I249999J0D01*
G01*
X70724001Y-57720000D01*
G75*
G02*
X70974000Y-57969999I0J-249999D01*
G01*
X70974000Y-58870001D01*
G75*
G02*
X70724001Y-59120000I-249999J0D01*
G01*
X70023999Y-59120000D01*
G75*
G02*
X69774000Y-58870001I0J249999D01*
G01*
G37*
%TD*%
%TO.C,R3*%
G36*
G01*
X59528000Y-65589999D02*
X59528000Y-66490001D01*
G75*
G02*
X59278001Y-66740000I-249999J0D01*
G01*
X58577999Y-66740000D01*
G75*
G02*
X58328000Y-66490001I0J249999D01*
G01*
X58328000Y-65589999D01*
G75*
G02*
X58577999Y-65340000I249999J0D01*
G01*
X59278001Y-65340000D01*
G75*
G02*
X59528000Y-65589999I0J-249999D01*
G01*
G37*
G36*
G01*
X61528000Y-65589999D02*
X61528000Y-66490001D01*
G75*
G02*
X61278001Y-66740000I-249999J0D01*
G01*
X60577999Y-66740000D01*
G75*
G02*
X60328000Y-66490001I0J249999D01*
G01*
X60328000Y-65589999D01*
G75*
G02*
X60577999Y-65340000I249999J0D01*
G01*
X61278001Y-65340000D01*
G75*
G02*
X61528000Y-65589999I0J-249999D01*
G01*
G37*
%TD*%
%TO.C,R1*%
G36*
G01*
X70466000Y-62745199D02*
X70466000Y-63645201D01*
G75*
G02*
X70216001Y-63895200I-249999J0D01*
G01*
X69515999Y-63895200D01*
G75*
G02*
X69266000Y-63645201I0J249999D01*
G01*
X69266000Y-62745199D01*
G75*
G02*
X69515999Y-62495200I249999J0D01*
G01*
X70216001Y-62495200D01*
G75*
G02*
X70466000Y-62745199I0J-249999D01*
G01*
G37*
G36*
G01*
X72466000Y-62745199D02*
X72466000Y-63645201D01*
G75*
G02*
X72216001Y-63895200I-249999J0D01*
G01*
X71515999Y-63895200D01*
G75*
G02*
X71266000Y-63645201I0J249999D01*
G01*
X71266000Y-62745199D01*
G75*
G02*
X71515999Y-62495200I249999J0D01*
G01*
X72216001Y-62495200D01*
G75*
G02*
X72466000Y-62745199I0J-249999D01*
G01*
G37*
%TD*%
D16*
%TO.C,J4*%
X47752000Y-65786000D03*
D17*
X50292000Y-65786000D03*
%TD*%
D16*
%TO.C,J3*%
X50282000Y-49022000D03*
D17*
X47742000Y-49022000D03*
%TD*%
D16*
%TO.C,J2*%
X73690000Y-49276000D03*
X71150000Y-49276000D03*
D17*
X68610000Y-49276000D03*
%TD*%
D16*
%TO.C,J1*%
X68580000Y-66040000D03*
X71120000Y-66040000D03*
D17*
X73660000Y-66040000D03*
%TD*%
%TO.C,D7*%
G36*
G01*
X45904000Y-57899000D02*
X46420000Y-57899000D01*
G75*
G02*
X46462000Y-57941000I0J-42000D01*
G01*
X46462000Y-59217000D01*
G75*
G02*
X46420000Y-59259000I-42000J0D01*
G01*
X45904000Y-59259000D01*
G75*
G02*
X45862000Y-59217000I0J42000D01*
G01*
X45862000Y-57941000D01*
G75*
G02*
X45904000Y-57899000I42000J0D01*
G01*
G37*
G36*
G01*
X44954000Y-57899000D02*
X45470000Y-57899000D01*
G75*
G02*
X45512000Y-57941000I0J-42000D01*
G01*
X45512000Y-59217000D01*
G75*
G02*
X45470000Y-59259000I-42000J0D01*
G01*
X44954000Y-59259000D01*
G75*
G02*
X44912000Y-59217000I0J42000D01*
G01*
X44912000Y-57941000D01*
G75*
G02*
X44954000Y-57899000I42000J0D01*
G01*
G37*
G36*
G01*
X44004000Y-57899000D02*
X44520000Y-57899000D01*
G75*
G02*
X44562000Y-57941000I0J-42000D01*
G01*
X44562000Y-59217000D01*
G75*
G02*
X44520000Y-59259000I-42000J0D01*
G01*
X44004000Y-59259000D01*
G75*
G02*
X43962000Y-59217000I0J42000D01*
G01*
X43962000Y-57941000D01*
G75*
G02*
X44004000Y-57899000I42000J0D01*
G01*
G37*
G36*
G01*
X44004000Y-55549000D02*
X44520000Y-55549000D01*
G75*
G02*
X44562000Y-55591000I0J-42000D01*
G01*
X44562000Y-56867000D01*
G75*
G02*
X44520000Y-56909000I-42000J0D01*
G01*
X44004000Y-56909000D01*
G75*
G02*
X43962000Y-56867000I0J42000D01*
G01*
X43962000Y-55591000D01*
G75*
G02*
X44004000Y-55549000I42000J0D01*
G01*
G37*
G36*
G01*
X44954000Y-55549000D02*
X45470000Y-55549000D01*
G75*
G02*
X45512000Y-55591000I0J-42000D01*
G01*
X45512000Y-56867000D01*
G75*
G02*
X45470000Y-56909000I-42000J0D01*
G01*
X44954000Y-56909000D01*
G75*
G02*
X44912000Y-56867000I0J42000D01*
G01*
X44912000Y-55591000D01*
G75*
G02*
X44954000Y-55549000I42000J0D01*
G01*
G37*
G36*
G01*
X45904000Y-55549000D02*
X46420000Y-55549000D01*
G75*
G02*
X46462000Y-55591000I0J-42000D01*
G01*
X46462000Y-56867000D01*
G75*
G02*
X46420000Y-56909000I-42000J0D01*
G01*
X45904000Y-56909000D01*
G75*
G02*
X45862000Y-56867000I0J42000D01*
G01*
X45862000Y-55591000D01*
G75*
G02*
X45904000Y-55549000I42000J0D01*
G01*
G37*
%TD*%
%TO.C,D6*%
G36*
G01*
X59594000Y-48530500D02*
X59594000Y-49005500D01*
G75*
G02*
X59356500Y-49243000I-237500J0D01*
G01*
X58781500Y-49243000D01*
G75*
G02*
X58544000Y-49005500I0J237500D01*
G01*
X58544000Y-48530500D01*
G75*
G02*
X58781500Y-48293000I237500J0D01*
G01*
X59356500Y-48293000D01*
G75*
G02*
X59594000Y-48530500I0J-237500D01*
G01*
G37*
G36*
G01*
X61344000Y-48530500D02*
X61344000Y-49005500D01*
G75*
G02*
X61106500Y-49243000I-237500J0D01*
G01*
X60531500Y-49243000D01*
G75*
G02*
X60294000Y-49005500I0J237500D01*
G01*
X60294000Y-48530500D01*
G75*
G02*
X60531500Y-48293000I237500J0D01*
G01*
X61106500Y-48293000D01*
G75*
G02*
X61344000Y-48530500I0J-237500D01*
G01*
G37*
%TD*%
%TO.C,D5*%
G36*
G01*
X55863000Y-49132500D02*
X55863000Y-48657500D01*
G75*
G02*
X56100500Y-48420000I237500J0D01*
G01*
X56675500Y-48420000D01*
G75*
G02*
X56913000Y-48657500I0J-237500D01*
G01*
X56913000Y-49132500D01*
G75*
G02*
X56675500Y-49370000I-237500J0D01*
G01*
X56100500Y-49370000D01*
G75*
G02*
X55863000Y-49132500I0J237500D01*
G01*
G37*
G36*
G01*
X54113000Y-49132500D02*
X54113000Y-48657500D01*
G75*
G02*
X54350500Y-48420000I237500J0D01*
G01*
X54925500Y-48420000D01*
G75*
G02*
X55163000Y-48657500I0J-237500D01*
G01*
X55163000Y-49132500D01*
G75*
G02*
X54925500Y-49370000I-237500J0D01*
G01*
X54350500Y-49370000D01*
G75*
G02*
X54113000Y-49132500I0J237500D01*
G01*
G37*
%TD*%
%TO.C,C7*%
G36*
G01*
X54922000Y-65565000D02*
X54922000Y-66515000D01*
G75*
G02*
X54672000Y-66765000I-250000J0D01*
G01*
X53997000Y-66765000D01*
G75*
G02*
X53747000Y-66515000I0J250000D01*
G01*
X53747000Y-65565000D01*
G75*
G02*
X53997000Y-65315000I250000J0D01*
G01*
X54672000Y-65315000D01*
G75*
G02*
X54922000Y-65565000I0J-250000D01*
G01*
G37*
G36*
G01*
X56997000Y-65565000D02*
X56997000Y-66515000D01*
G75*
G02*
X56747000Y-66765000I-250000J0D01*
G01*
X56072000Y-66765000D01*
G75*
G02*
X55822000Y-66515000I0J250000D01*
G01*
X55822000Y-65565000D01*
G75*
G02*
X56072000Y-65315000I250000J0D01*
G01*
X56747000Y-65315000D01*
G75*
G02*
X56997000Y-65565000I0J-250000D01*
G01*
G37*
%TD*%
%TO.C,C4*%
G36*
G01*
X66998000Y-54069000D02*
X66998000Y-53119000D01*
G75*
G02*
X67248000Y-52869000I250000J0D01*
G01*
X67923000Y-52869000D01*
G75*
G02*
X68173000Y-53119000I0J-250000D01*
G01*
X68173000Y-54069000D01*
G75*
G02*
X67923000Y-54319000I-250000J0D01*
G01*
X67248000Y-54319000D01*
G75*
G02*
X66998000Y-54069000I0J250000D01*
G01*
G37*
G36*
G01*
X64923000Y-54069000D02*
X64923000Y-53119000D01*
G75*
G02*
X65173000Y-52869000I250000J0D01*
G01*
X65848000Y-52869000D01*
G75*
G02*
X66098000Y-53119000I0J-250000D01*
G01*
X66098000Y-54069000D01*
G75*
G02*
X65848000Y-54319000I-250000J0D01*
G01*
X65173000Y-54319000D01*
G75*
G02*
X64923000Y-54069000I0J250000D01*
G01*
G37*
%TD*%
%TO.C,C1*%
G36*
G01*
X66976500Y-63213000D02*
X66976500Y-62263000D01*
G75*
G02*
X67226500Y-62013000I250000J0D01*
G01*
X67901500Y-62013000D01*
G75*
G02*
X68151500Y-62263000I0J-250000D01*
G01*
X68151500Y-63213000D01*
G75*
G02*
X67901500Y-63463000I-250000J0D01*
G01*
X67226500Y-63463000D01*
G75*
G02*
X66976500Y-63213000I0J250000D01*
G01*
G37*
G36*
G01*
X64901500Y-63213000D02*
X64901500Y-62263000D01*
G75*
G02*
X65151500Y-62013000I250000J0D01*
G01*
X65826500Y-62013000D01*
G75*
G02*
X66076500Y-62263000I0J-250000D01*
G01*
X66076500Y-63213000D01*
G75*
G02*
X65826500Y-63463000I-250000J0D01*
G01*
X65151500Y-63463000D01*
G75*
G02*
X64901500Y-63213000I0J250000D01*
G01*
G37*
%TD*%
M02*
